M48
METRIC,LZ,000.000
;FILE_FORMAT=3:3
;TYPE=PLATED
;Layer: PTH_Through
;EasyEDA v6.5.1, 2022-03-28 07:45:05
;8a3c461addb741cca4737953a7c37c6d,45e7c3065f504378a11261742efe6332,10
;Gerber Generator version 0.2
;Holesize 1 = 0.305 mm
T01C0.305
;Holesize 2 = 0.306 mm
T02C0.306
;Holesize 3 = 0.800 mm
T03C0.800
;Holesize 4 = 0.889 mm
T04C0.889
;Holesize 5 = 0.915 mm
T05C0.915
;Holesize 6 = 1.101 mm
T06C1.101
;Holesize 7 = 1.800 mm
T07C1.800
%
G05
G90
T01
X049530Y086106
X051943Y085725
X025908Y074295
X008763Y091948
X056007Y073660
X053848Y077978
X037846Y093345
X040132Y092710
X008255Y074676
X022479Y075438
X048895Y079375
X049657Y083566
X057912Y083566
X045339Y080264
X049784Y084963
T02
X014342Y090558
X024137Y092055
X054610Y085344
X027051Y081407
X022789Y093102
T03
X050893Y071882
X048893Y071882
X046893Y071882
X044893Y071882
X042893Y071882
X040893Y071882
X038893Y071882
X036893Y071882
X034893Y071882
X032828Y071882
X030893Y071882
X028893Y071882
X026893Y071882
X024893Y071882
X022893Y071882
X020893Y071882
X018893Y071882
X016893Y071882
X014893Y071882
X050893Y094234
X048893Y094234
X046893Y094234
X044893Y094234
X042893Y094234
X040893Y094234
X038893Y094234
X036893Y094234
X034893Y094234
X032828Y094234
X030893Y094234
X028893Y094234
X026893Y094234
X024893Y094234
X022893Y094234
X020893Y094234
X018893Y094234
X016893Y094234
X014893Y094234
T04
X010795Y091948
X010795Y089408
X010795Y086868
X010795Y084328
X010795Y081788
X010795Y079248
X010795Y076708
X010795Y074168
T05
X061047Y093599
X058547Y093599
X056047Y093599
T06
X060325Y071882
X057785Y071882
T07
X008636Y094615
X008636Y071628
X065405Y094488
X065405Y071628
M30
