G04 Layer: TopSilkscreenLayer*
G04 EasyEDA v6.5.1, 2022-03-28 07:45:05*
G04 8a3c461addb741cca4737953a7c37c6d,45e7c3065f504378a11261742efe6332,10*
G04 Gerber Generator version 0.2*
G04 Scale: 100 percent, Rotated: No, Reflected: No *
G04 Dimensions in millimeters *
G04 leading zeros omitted , absolute positions ,4 integer and 5 decimal *
%FSLAX45Y45*%
%MOMM*%

%ADD10C,0.2540*%
%ADD25C,0.1524*%
%ADD26C,0.2032*%
%ADD27C,0.2030*%
%ADD28C,0.2030*%

%LPD*%
G36*
X5849721Y7853527D02*
G01*
X5798870Y7853476D01*
X5613958Y7530084D01*
X5604713Y7513624D01*
X5656529Y7513675D01*
X5798261Y7762240D01*
X5812840Y7787335D01*
X5814364Y7787386D01*
X5816244Y7782966D01*
X5818682Y7773162D01*
X5828690Y7723225D01*
X5863488Y7722412D01*
X5870752Y7722717D01*
X5874613Y7723479D01*
X5875782Y7724851D01*
X5874004Y7734909D01*
X5862777Y7790637D01*
G37*
G36*
X6054902Y7844434D02*
G01*
X6046978Y7831683D01*
X5924550Y7619949D01*
X5903772Y7584490D01*
X5899607Y7577734D01*
X5897778Y7588402D01*
X5888939Y7650175D01*
X5886754Y7663180D01*
X5851753Y7663027D01*
X5844387Y7662570D01*
X5840323Y7661656D01*
X5839104Y7660335D01*
X5844590Y7622489D01*
X5861100Y7514793D01*
X5911900Y7513523D01*
X6104686Y7842758D01*
X6103061Y7843418D01*
X6097879Y7843926D01*
X6090056Y7844332D01*
G37*
G36*
X5782056Y7713014D02*
G01*
X5765139Y7682687D01*
X5760821Y7674508D01*
X5944311Y7674508D01*
X5964936Y7711287D01*
X5963208Y7711643D01*
X5949594Y7712252D01*
X5924956Y7712709D01*
X5892292Y7713014D01*
G37*
D28*
X6078766Y7642334D02*
G01*
X6078766Y7527780D01*
X6155220Y7642334D02*
G01*
X6155220Y7527780D01*
X6078766Y7587724D02*
G01*
X6155220Y7587724D01*
X6256566Y7603980D02*
G01*
X6256566Y7527780D01*
X6256566Y7587724D02*
G01*
X6245644Y7598646D01*
X6234722Y7603980D01*
X6218466Y7603980D01*
X6207544Y7598646D01*
X6196622Y7587724D01*
X6191034Y7571468D01*
X6191034Y7560546D01*
X6196622Y7544036D01*
X6207544Y7533114D01*
X6218466Y7527780D01*
X6234722Y7527780D01*
X6245644Y7533114D01*
X6256566Y7544036D01*
X6292634Y7603980D02*
G01*
X6292634Y7527780D01*
X6292634Y7582390D02*
G01*
X6308890Y7598646D01*
X6319812Y7603980D01*
X6336322Y7603980D01*
X6347244Y7598646D01*
X6352578Y7582390D01*
X6352578Y7527780D01*
D25*
X6053836Y9122155D02*
G01*
X6043422Y9132570D01*
X6027927Y9137650D01*
X6007100Y9137650D01*
X5991606Y9132570D01*
X5981191Y9122155D01*
X5981191Y9111742D01*
X5986272Y9101328D01*
X5991606Y9095994D01*
X6002020Y9090913D01*
X6033261Y9080500D01*
X6043422Y9075420D01*
X6048756Y9070086D01*
X6053836Y9059671D01*
X6053836Y9044178D01*
X6043422Y9033763D01*
X6027927Y9028684D01*
X6007100Y9028684D01*
X5991606Y9033763D01*
X5981191Y9044178D01*
X6088125Y9137650D02*
G01*
X6114288Y9028684D01*
X6140195Y9137650D02*
G01*
X6114288Y9028684D01*
X6140195Y9137650D02*
G01*
X6166104Y9028684D01*
X6192011Y9137650D02*
G01*
X6166104Y9028684D01*
X6231636Y9111742D02*
G01*
X6231636Y9116821D01*
X6236715Y9127236D01*
X6242050Y9132570D01*
X6252463Y9137650D01*
X6273291Y9137650D01*
X6283452Y9132570D01*
X6288786Y9127236D01*
X6293865Y9116821D01*
X6293865Y9106408D01*
X6288786Y9095994D01*
X6278372Y9080500D01*
X6226302Y9028684D01*
X6299200Y9028684D01*
X5664200Y8916415D02*
G01*
X5664200Y8807450D01*
X5664200Y8916415D02*
G01*
X5710936Y8916415D01*
X5726429Y8911336D01*
X5731763Y8906002D01*
X5736843Y8895587D01*
X5736843Y8885174D01*
X5731763Y8874760D01*
X5726429Y8869679D01*
X5710936Y8864600D01*
X5664200Y8864600D01*
X5700522Y8864600D02*
G01*
X5736843Y8807450D01*
X5771134Y8895587D02*
G01*
X5781547Y8900921D01*
X5797295Y8916415D01*
X5797295Y8807450D01*
X5295900Y7214615D02*
G01*
X5295900Y7136637D01*
X5300979Y7121144D01*
X5311393Y7110729D01*
X5327141Y7105650D01*
X5337556Y7105650D01*
X5353050Y7110729D01*
X5363463Y7121144D01*
X5368543Y7136637D01*
X5368543Y7214615D01*
X5402834Y7193787D02*
G01*
X5413247Y7199121D01*
X5428995Y7214615D01*
X5428995Y7105650D01*
X5016500Y9233915D02*
G01*
X5016500Y9155937D01*
X5021579Y9140444D01*
X5031993Y9130029D01*
X5047741Y9124950D01*
X5058156Y9124950D01*
X5073650Y9130029D01*
X5084063Y9140444D01*
X5089143Y9155937D01*
X5089143Y9233915D01*
X5128768Y9208008D02*
G01*
X5128768Y9213087D01*
X5133847Y9223502D01*
X5139181Y9228836D01*
X5149595Y9233915D01*
X5170170Y9233915D01*
X5180584Y9228836D01*
X5185918Y9223502D01*
X5190997Y9213087D01*
X5190997Y9202674D01*
X5185918Y9192260D01*
X5175504Y9176765D01*
X5123434Y9124950D01*
X5196331Y9124950D01*
X786384Y7315200D02*
G01*
X895350Y7315200D01*
X786384Y7387844D02*
G01*
X895350Y7387844D01*
X838200Y7315200D02*
G01*
X838200Y7387844D01*
X807212Y7422134D02*
G01*
X801878Y7432547D01*
X786384Y7448295D01*
X895350Y7448295D01*
D10*
X5796038Y9439899D02*
G01*
X5679711Y9439899D01*
X6029713Y9439899D02*
G01*
X5913386Y9439899D01*
X5796038Y9279900D02*
G01*
X5689612Y9279900D01*
X6029713Y9279900D02*
G01*
X5913386Y9279900D01*
X5679711Y9424870D02*
G01*
X5679711Y9439899D01*
X5679711Y9279900D02*
G01*
X5679711Y9294929D01*
X6029713Y9439899D02*
G01*
X6029713Y9424870D01*
X6029713Y9279900D02*
G01*
X6029713Y9294929D01*
X6294711Y9554898D02*
G01*
X5414784Y9554898D01*
X5414784Y9164828D02*
G01*
X5414784Y9458197D01*
X5414784Y9458197D01*
X5414784Y9554971D01*
X6294711Y9164899D02*
G01*
X6294711Y9554898D01*
X6294711Y9164899D02*
G01*
X5414713Y9164899D01*
X6007112Y9296400D02*
G01*
X5905512Y9296400D01*
X5905512Y9423400D01*
X6007112Y9423400D01*
X6007112Y9296400D01*
D25*
X5711819Y8582390D02*
G01*
X5840313Y8582390D01*
X5840313Y8765809D01*
X5711819Y8765809D01*
X5616580Y8582390D02*
G01*
X5488086Y8582390D01*
X5488086Y8765809D01*
X5616580Y8765809D01*
D10*
X4985499Y7068200D02*
G01*
X4985499Y7308199D01*
X5214299Y7068200D02*
G01*
X5214299Y7308199D01*
X5214299Y7308199D02*
G01*
X1364300Y7308199D01*
X5214299Y7068200D02*
G01*
X1364300Y7068200D01*
X1364300Y7308199D02*
G01*
X1364300Y7068200D01*
X4985499Y9303397D02*
G01*
X4985499Y9543397D01*
X5214299Y9303397D02*
G01*
X5214299Y9543397D01*
X5214299Y9543397D02*
G01*
X1364300Y9543397D01*
X5214299Y9303397D02*
G01*
X1364300Y9303397D01*
X1364300Y9543397D02*
G01*
X1364300Y9303397D01*
D26*
X1206500Y7289800D02*
G01*
X952500Y7289800D01*
X952500Y9321800D01*
X1206500Y9321800D01*
X1206500Y9131300D01*
D27*
X1206500Y7289800D02*
G01*
X1206500Y9131300D01*
M02*
