G04 Layer: BottomSolderMaskLayer*
G04 EasyEDA v6.5.1, 2022-03-28 07:45:05*
G04 8a3c461addb741cca4737953a7c37c6d,45e7c3065f504378a11261742efe6332,10*
G04 Gerber Generator version 0.2*
G04 Scale: 100 percent, Rotated: No, Reflected: No *
G04 Dimensions in millimeters *
G04 leading zeros omitted , absolute positions ,4 integer and 5 decimal *
%FSLAX45Y45*%
%MOMM*%

%ADD29C,1.6256*%
%ADD32C,1.4016*%
%ADD34C,1.6764*%
%ADD36C,1.8016*%
%ADD37C,2.0016*%

%LPD*%
D29*
G01*
X6104699Y9359900D03*
G01*
X5854712Y9359900D03*
G01*
X5604700Y9359900D03*
G36*
X5019293Y7118095D02*
G01*
X5019293Y7258304D01*
X5159502Y7258304D01*
X5159502Y7118095D01*
G37*
D32*
G01*
X4889296Y7188200D03*
G01*
X4689297Y7188200D03*
G01*
X4489297Y7188200D03*
G01*
X4289297Y7188200D03*
G01*
X4089298Y7188200D03*
G01*
X3889298Y7188200D03*
G01*
X3689299Y7188200D03*
G01*
X3489299Y7188200D03*
G01*
X3282797Y7188200D03*
G01*
X3089300Y7188200D03*
G01*
X2889300Y7188200D03*
G01*
X2689301Y7188200D03*
G01*
X2489301Y7188200D03*
G01*
X2289302Y7188200D03*
G01*
X2089302Y7188200D03*
G01*
X1889302Y7188200D03*
G01*
X1689303Y7188200D03*
G01*
X1489303Y7188200D03*
G36*
X5019293Y9353295D02*
G01*
X5019293Y9493504D01*
X5159502Y9493504D01*
X5159502Y9353295D01*
G37*
G01*
X4889296Y9423400D03*
G01*
X4689297Y9423400D03*
G01*
X4489297Y9423400D03*
G01*
X4289297Y9423400D03*
G01*
X4089298Y9423400D03*
G01*
X3889298Y9423400D03*
G01*
X3689299Y9423400D03*
G01*
X3489299Y9423400D03*
G01*
X3282797Y9423400D03*
G01*
X3089300Y9423400D03*
G01*
X2889300Y9423400D03*
G01*
X2689301Y9423400D03*
G01*
X2489301Y9423400D03*
G01*
X2289302Y9423400D03*
G01*
X2089302Y9423400D03*
G01*
X1889302Y9423400D03*
G01*
X1689303Y9423400D03*
G01*
X1489303Y9423400D03*
G36*
X995679Y9110979D02*
G01*
X995679Y9278620D01*
X1163320Y9278620D01*
X1163320Y9110979D01*
G37*
D34*
G01*
X1079500Y8940800D03*
G01*
X1079500Y8686800D03*
G01*
X1079500Y8432800D03*
G01*
X1079500Y8178800D03*
G01*
X1079500Y7924800D03*
G01*
X1079500Y7670800D03*
G01*
X1079500Y7416800D03*
G36*
X5023358Y8117586D02*
G01*
X5023358Y8265413D01*
X5146802Y8265413D01*
X5146802Y8117586D01*
G37*
G36*
X5216397Y8117586D02*
G01*
X5216397Y8265413D01*
X5339841Y8265413D01*
X5339841Y8117586D01*
G37*
G36*
X5023358Y8676386D02*
G01*
X5023358Y8824213D01*
X5146802Y8824213D01*
X5146802Y8676386D01*
G37*
G36*
X5216397Y8676386D02*
G01*
X5216397Y8824213D01*
X5339841Y8824213D01*
X5339841Y8676386D01*
G37*
G36*
X2281174Y7892795D02*
G01*
X2268474Y7898129D01*
X2263140Y7911084D01*
X2263140Y7934960D01*
X2268474Y7947913D01*
X2281174Y7953247D01*
X2468625Y7953247D01*
X2481325Y7947913D01*
X2486659Y7934960D01*
X2486659Y7911084D01*
X2481325Y7898129D01*
X2468625Y7892795D01*
G37*
G36*
X2281174Y7962900D02*
G01*
X2268474Y7968234D01*
X2263140Y7980934D01*
X2263140Y8005063D01*
X2268474Y8017763D01*
X2281174Y8023097D01*
X2468625Y8023097D01*
X2481325Y8017763D01*
X2486659Y8005063D01*
X2486659Y7980934D01*
X2481325Y7968234D01*
X2468625Y7962900D01*
G37*
G36*
X2281174Y8032750D02*
G01*
X2268474Y8038084D01*
X2263140Y8051037D01*
X2263140Y8074913D01*
X2268474Y8087868D01*
X2281174Y8093202D01*
X2468625Y8093202D01*
X2481325Y8087868D01*
X2486659Y8074913D01*
X2486659Y8051037D01*
X2481325Y8038084D01*
X2468625Y8032750D01*
G37*
G36*
X2281174Y8102854D02*
G01*
X2268474Y8108187D01*
X2263140Y8120887D01*
X2263140Y8145018D01*
X2268474Y8157971D01*
X2281174Y8163052D01*
X2468625Y8163052D01*
X2481325Y8157971D01*
X2486659Y8145018D01*
X2486659Y8120887D01*
X2481325Y8108187D01*
X2468625Y8102854D01*
G37*
G36*
X2281174Y8172958D02*
G01*
X2268474Y8178037D01*
X2263140Y8190992D01*
X2263140Y8215121D01*
X2268474Y8227821D01*
X2281174Y8233155D01*
X2468625Y8233155D01*
X2481325Y8227821D01*
X2486659Y8215121D01*
X2486659Y8190992D01*
X2481325Y8178037D01*
X2468625Y8172958D01*
G37*
G36*
X2281174Y8242808D02*
G01*
X2268474Y8248142D01*
X2263140Y8261095D01*
X2263140Y8284971D01*
X2268474Y8297926D01*
X2281174Y8303260D01*
X2468625Y8303260D01*
X2481325Y8297926D01*
X2486659Y8284971D01*
X2486659Y8261095D01*
X2481325Y8248142D01*
X2468625Y8242808D01*
G37*
G36*
X2281174Y8312912D02*
G01*
X2268474Y8318245D01*
X2263140Y8330945D01*
X2263140Y8355076D01*
X2268474Y8367776D01*
X2281174Y8373110D01*
X2468625Y8373110D01*
X2481325Y8367776D01*
X2486659Y8355076D01*
X2486659Y8330945D01*
X2481325Y8318245D01*
X2468625Y8312912D01*
G37*
G36*
X2281174Y8382762D02*
G01*
X2268474Y8388095D01*
X2263140Y8401050D01*
X2263140Y8424926D01*
X2268474Y8437879D01*
X2281174Y8443213D01*
X2468625Y8443213D01*
X2481325Y8437879D01*
X2486659Y8424926D01*
X2486659Y8401050D01*
X2481325Y8388095D01*
X2468625Y8382762D01*
G37*
G36*
X2281174Y8452865D02*
G01*
X2268474Y8458200D01*
X2263140Y8470900D01*
X2263140Y8495029D01*
X2268474Y8507729D01*
X2281174Y8513063D01*
X2468625Y8513063D01*
X2481325Y8507729D01*
X2486659Y8495029D01*
X2486659Y8470900D01*
X2481325Y8458200D01*
X2468625Y8452865D01*
G37*
G36*
X2281174Y8522715D02*
G01*
X2268474Y8528050D01*
X2263140Y8541004D01*
X2263140Y8565134D01*
X2268474Y8577834D01*
X2281174Y8583168D01*
X2468625Y8583168D01*
X2481325Y8577834D01*
X2486659Y8565134D01*
X2486659Y8541004D01*
X2481325Y8528050D01*
X2468625Y8522715D01*
G37*
G36*
X2281174Y8592820D02*
G01*
X2268474Y8598154D01*
X2263140Y8610854D01*
X2263140Y8634984D01*
X2268474Y8647937D01*
X2281174Y8653271D01*
X2468625Y8653271D01*
X2481325Y8647937D01*
X2486659Y8634984D01*
X2486659Y8610854D01*
X2481325Y8598154D01*
X2468625Y8592820D01*
G37*
G36*
X2281174Y8662924D02*
G01*
X2268474Y8668258D01*
X2263140Y8680958D01*
X2263140Y8705087D01*
X2268474Y8717787D01*
X2281174Y8723121D01*
X2468625Y8723121D01*
X2481325Y8717787D01*
X2486659Y8705087D01*
X2486659Y8680958D01*
X2481325Y8668258D01*
X2468625Y8662924D01*
G37*
G36*
X5938774Y7875778D02*
G01*
X5938774Y7985760D01*
X6108954Y7985760D01*
X6108954Y7875778D01*
G37*
G36*
X5938774Y8025637D02*
G01*
X5938774Y8135873D01*
X6108954Y8135873D01*
X6108954Y8025637D01*
G37*
G36*
X5938774Y8325612D02*
G01*
X5938774Y8435847D01*
X6108954Y8435847D01*
X6108954Y8325612D01*
G37*
G36*
X5938774Y8475726D02*
G01*
X5938774Y8585962D01*
X6108954Y8585962D01*
X6108954Y8475726D01*
G37*
G36*
X5938774Y8175752D02*
G01*
X5938774Y8285987D01*
X6108954Y8285987D01*
X6108954Y8175752D01*
G37*
G36*
X5938774Y8625839D02*
G01*
X5938774Y8735821D01*
X6108954Y8735821D01*
X6108954Y8625839D01*
G37*
G36*
X6063741Y7675626D02*
G01*
X6063741Y7785862D01*
X6258813Y7785862D01*
X6258813Y7675626D01*
G37*
G36*
X6063741Y8825737D02*
G01*
X6063741Y8935974D01*
X6258813Y8935974D01*
X6258813Y8825737D01*
G37*
G36*
X6468618Y8755634D02*
G01*
X6468618Y8945879D01*
X6578854Y8945879D01*
X6578854Y8755634D01*
G37*
G36*
X6468618Y7665720D02*
G01*
X6468618Y7855965D01*
X6578854Y7855965D01*
X6578854Y7665720D01*
G37*
G36*
X5942329Y7104379D02*
G01*
X5942329Y7272020D01*
X6122670Y7272020D01*
X6122670Y7104379D01*
G37*
D36*
G01*
X5778500Y7188200D03*
D37*
G01*
X863600Y9461500D03*
G01*
X863600Y7162800D03*
G01*
X6540500Y9448800D03*
G01*
X6540500Y7162800D03*
M02*
