G04 Layer: BottomPasteMaskLayer*
G04 EasyEDA v6.5.1, 2022-03-28 07:45:05*
G04 8a3c461addb741cca4737953a7c37c6d,45e7c3065f504378a11261742efe6332,10*
G04 Gerber Generator version 0.2*
G04 Scale: 100 percent, Rotated: No, Reflected: No *
G04 Dimensions in millimeters *
G04 leading zeros omitted , absolute positions ,4 integer and 5 decimal *
%FSLAX45Y45*%
%MOMM*%

%ADD10C,0.0001*%

%LPD*%
G36*
X5231587Y8260486D02*
G01*
X5226608Y8255508D01*
X5226100Y8214512D01*
X5271109Y8214512D01*
X5271109Y8169503D01*
X5227116Y8169503D01*
X5226608Y8127492D01*
X5231587Y8122513D01*
X5346598Y8122513D01*
X5351627Y8127492D01*
X5351627Y8255508D01*
X5346598Y8260486D01*
G37*
G36*
X5016601Y8260486D02*
G01*
X5011623Y8255508D01*
X5011623Y8127492D01*
X5016601Y8122513D01*
X5131612Y8122513D01*
X5136591Y8127492D01*
X5136591Y8169503D01*
X5092090Y8169503D01*
X5092090Y8214512D01*
X5136083Y8214512D01*
X5136591Y8255508D01*
X5131612Y8260486D01*
G37*
G36*
X5231587Y8819286D02*
G01*
X5226608Y8814308D01*
X5226100Y8773312D01*
X5271109Y8773312D01*
X5271109Y8728303D01*
X5227116Y8728303D01*
X5226608Y8686292D01*
X5231587Y8681313D01*
X5346598Y8681313D01*
X5351627Y8686292D01*
X5351627Y8814308D01*
X5346598Y8819286D01*
G37*
G36*
X5016601Y8819286D02*
G01*
X5011623Y8814308D01*
X5011623Y8686292D01*
X5016601Y8681313D01*
X5131612Y8681313D01*
X5136591Y8686292D01*
X5136591Y8728303D01*
X5092090Y8728303D01*
X5092090Y8773312D01*
X5136083Y8773312D01*
X5136591Y8814308D01*
X5131612Y8819286D01*
G37*
G36*
X2466492Y7903001D02*
G01*
X2473563Y7905930D01*
X2476492Y7913001D01*
X2476492Y7933001D01*
X2473563Y7940073D01*
X2466492Y7943001D01*
X2283292Y7943001D01*
X2276220Y7940073D01*
X2273292Y7933001D01*
X2273292Y7913001D01*
X2276220Y7905930D01*
X2283292Y7903001D01*
G37*
G36*
X2466492Y7973001D02*
G01*
X2473563Y7975930D01*
X2476492Y7983001D01*
X2476492Y8003001D01*
X2473563Y8010072D01*
X2466492Y8013001D01*
X2283292Y8013001D01*
X2276220Y8010072D01*
X2273292Y8003001D01*
X2273292Y7983001D01*
X2276220Y7975930D01*
X2283292Y7973001D01*
G37*
G36*
X2466492Y8043001D02*
G01*
X2473563Y8045930D01*
X2476492Y8053001D01*
X2476492Y8073001D01*
X2473563Y8080072D01*
X2466492Y8083001D01*
X2283292Y8083001D01*
X2276220Y8080072D01*
X2273292Y8073001D01*
X2273292Y8053001D01*
X2276220Y8045930D01*
X2283292Y8043001D01*
G37*
G36*
X2466492Y8113001D02*
G01*
X2473563Y8115929D01*
X2476492Y8123001D01*
X2476492Y8143001D01*
X2473563Y8150072D01*
X2466492Y8153001D01*
X2283292Y8153001D01*
X2276220Y8150072D01*
X2273292Y8143001D01*
X2273292Y8123001D01*
X2276220Y8115929D01*
X2283292Y8113001D01*
G37*
G36*
X2466492Y8183001D02*
G01*
X2473563Y8185929D01*
X2476492Y8193001D01*
X2476492Y8213001D01*
X2473563Y8220072D01*
X2466492Y8223001D01*
X2283292Y8223001D01*
X2276220Y8220072D01*
X2273292Y8213001D01*
X2273292Y8193001D01*
X2276220Y8185929D01*
X2283292Y8183001D01*
G37*
G36*
X2466492Y8253001D02*
G01*
X2473563Y8255929D01*
X2476492Y8263001D01*
X2476492Y8283000D01*
X2473563Y8290072D01*
X2466492Y8293000D01*
X2283292Y8293000D01*
X2276220Y8290072D01*
X2273292Y8283000D01*
X2273292Y8263001D01*
X2276220Y8255929D01*
X2283292Y8253001D01*
G37*
G36*
X2466492Y8323000D02*
G01*
X2473563Y8325929D01*
X2476492Y8333000D01*
X2476492Y8353000D01*
X2473563Y8360072D01*
X2466492Y8363000D01*
X2283292Y8363000D01*
X2276220Y8360072D01*
X2273292Y8353000D01*
X2273292Y8333000D01*
X2276220Y8325929D01*
X2283292Y8323000D01*
G37*
G36*
X2466492Y8393000D02*
G01*
X2473563Y8395929D01*
X2476492Y8403000D01*
X2476492Y8423000D01*
X2473563Y8430072D01*
X2466492Y8433000D01*
X2283292Y8433000D01*
X2276220Y8430072D01*
X2273292Y8423000D01*
X2273292Y8403000D01*
X2276220Y8395929D01*
X2283292Y8393000D01*
G37*
G36*
X2466492Y8463000D02*
G01*
X2473563Y8465929D01*
X2476492Y8473000D01*
X2476492Y8493000D01*
X2473563Y8500071D01*
X2466492Y8503000D01*
X2283292Y8503000D01*
X2276220Y8500071D01*
X2273292Y8493000D01*
X2273292Y8473000D01*
X2276220Y8465929D01*
X2283292Y8463000D01*
G37*
G36*
X2466492Y8533000D02*
G01*
X2473563Y8535929D01*
X2476492Y8543000D01*
X2476492Y8563000D01*
X2473563Y8570071D01*
X2466492Y8573000D01*
X2283292Y8573000D01*
X2276220Y8570071D01*
X2273292Y8563000D01*
X2273292Y8543000D01*
X2276220Y8535929D01*
X2283292Y8533000D01*
G37*
G36*
X2466492Y8603000D02*
G01*
X2473563Y8605928D01*
X2476492Y8613000D01*
X2476492Y8633000D01*
X2473563Y8640071D01*
X2466492Y8643000D01*
X2283292Y8643000D01*
X2276220Y8640071D01*
X2273292Y8633000D01*
X2273292Y8613000D01*
X2276220Y8605928D01*
X2283292Y8603000D01*
G37*
G36*
X2466492Y8673000D02*
G01*
X2473563Y8675928D01*
X2476492Y8683000D01*
X2476492Y8703000D01*
X2473563Y8710071D01*
X2466492Y8713000D01*
X2283292Y8713000D01*
X2276220Y8710071D01*
X2273292Y8703000D01*
X2273292Y8683000D01*
X2276220Y8675928D01*
X2283292Y8673000D01*
G37*
G36*
X6103802Y7880802D02*
G01*
X6103802Y7980801D01*
X5943803Y7980801D01*
X5943803Y7880802D01*
G37*
G36*
X6103802Y8030801D02*
G01*
X6103802Y8130801D01*
X5943803Y8130801D01*
X5943803Y8030801D01*
G37*
G36*
X6103802Y8330801D02*
G01*
X6103802Y8430801D01*
X5943803Y8430801D01*
X5943803Y8330801D01*
G37*
G36*
X6103802Y8480800D02*
G01*
X6103802Y8580800D01*
X5943803Y8580800D01*
X5943803Y8480800D01*
G37*
G36*
X6103802Y8180801D02*
G01*
X6103802Y8280801D01*
X5943803Y8280801D01*
X5943803Y8180801D01*
G37*
G36*
X6103802Y8630800D02*
G01*
X6103802Y8730800D01*
X5943803Y8730800D01*
X5943803Y8630800D01*
G37*
G36*
X6253802Y7680802D02*
G01*
X6253802Y7780802D01*
X6068804Y7780802D01*
X6068804Y7680802D01*
G37*
G36*
X6253802Y8830797D02*
G01*
X6253802Y8930800D01*
X6068804Y8930800D01*
X6068804Y8830797D01*
G37*
G36*
X6573801Y8760800D02*
G01*
X6573801Y8940800D01*
X6473802Y8940800D01*
X6473802Y8760800D01*
G37*
G36*
X6573801Y7670802D02*
G01*
X6573801Y7850802D01*
X6473802Y7850802D01*
X6473802Y7670802D01*
G37*
M02*
