G04 Layer: BottomLayer*
G04 EasyEDA v6.5.1, 2022-03-28 07:45:05*
G04 8a3c461addb741cca4737953a7c37c6d,45e7c3065f504378a11261742efe6332,10*
G04 Gerber Generator version 0.2*
G04 Scale: 100 percent, Rotated: No, Reflected: No *
G04 Dimensions in millimeters *
G04 leading zeros omitted , absolute positions ,4 integer and 5 decimal *
%FSLAX45Y45*%
%MOMM*%

%ADD10C,0.2540*%
%ADD11C,0.6000*%
%ADD12C,0.6096*%
%ADD14C,1.5240*%
%ADD15R,1.3000X1.3000*%
%ADD16C,1.3000*%
%ADD17R,1.5748X1.5748*%
%ADD18C,1.5748*%
%ADD20C,1.7000*%
%ADD21C,1.9000*%

%LPD*%
G36*
X900836Y7025894D02*
G01*
X882446Y7026859D01*
X865581Y7029399D01*
X849020Y7033615D01*
X832916Y7039406D01*
X817524Y7046772D01*
X814679Y7048449D01*
X812038Y7050735D01*
X810361Y7053732D01*
X809752Y7057136D01*
X809752Y7108952D01*
X757631Y7108952D01*
X754227Y7109561D01*
X751179Y7111238D01*
X748944Y7113879D01*
X746302Y7118400D01*
X739038Y7133844D01*
X733298Y7149947D01*
X729234Y7166559D01*
X726744Y7183424D01*
X725932Y7200849D01*
X725932Y9399168D01*
X726846Y9417558D01*
X729386Y9434423D01*
X733602Y9450984D01*
X739394Y9467037D01*
X746760Y9482480D01*
X755548Y9497110D01*
X765759Y9510776D01*
X766876Y9511995D01*
X770280Y9514484D01*
X774395Y9515348D01*
X809752Y9515348D01*
X809752Y9542830D01*
X810361Y9546285D01*
X812038Y9549282D01*
X814679Y9551568D01*
X818388Y9553702D01*
X833882Y9560966D01*
X849934Y9566706D01*
X866546Y9570770D01*
X883462Y9573260D01*
X900836Y9574072D01*
X907287Y9574072D01*
X911199Y9573310D01*
X914450Y9571126D01*
X916686Y9567824D01*
X917448Y9563912D01*
X917448Y9515348D01*
X971651Y9515348D01*
X970127Y9518700D01*
X962253Y9531350D01*
X952957Y9542932D01*
X942238Y9553295D01*
X938936Y9555835D01*
X936142Y9558985D01*
X934923Y9562998D01*
X935380Y9567164D01*
X937514Y9570770D01*
X940917Y9573209D01*
X945032Y9574072D01*
X1811477Y9574072D01*
X1815338Y9573310D01*
X1818639Y9571126D01*
X1820875Y9567824D01*
X1821637Y9563912D01*
X1820875Y9560052D01*
X1818639Y9556750D01*
X1763725Y9501835D01*
X1759356Y9496552D01*
X1756460Y9494164D01*
X1752955Y9492996D01*
X1749247Y9493148D01*
X1745843Y9494621D01*
X1734718Y9502089D01*
X1723339Y9507677D01*
X1711299Y9511588D01*
X1698802Y9513773D01*
X1686153Y9514230D01*
X1673504Y9512909D01*
X1661210Y9509810D01*
X1649475Y9505086D01*
X1638503Y9498736D01*
X1628495Y9490913D01*
X1619656Y9481820D01*
X1612239Y9471558D01*
X1606296Y9460382D01*
X1601927Y9448444D01*
X1599133Y9434982D01*
X1597558Y9431274D01*
X1594662Y9428480D01*
X1590852Y9427057D01*
X1586839Y9427159D01*
X1583182Y9428886D01*
X1580489Y9431832D01*
X1579118Y9435642D01*
X1578203Y9442297D01*
X1574698Y9454489D01*
X1569516Y9466072D01*
X1562811Y9476841D01*
X1554683Y9486544D01*
X1545234Y9495028D01*
X1534718Y9502089D01*
X1523339Y9507677D01*
X1511300Y9511588D01*
X1498803Y9513773D01*
X1486103Y9514230D01*
X1473504Y9512909D01*
X1461211Y9509810D01*
X1449476Y9505086D01*
X1438452Y9498736D01*
X1428496Y9490913D01*
X1419656Y9481820D01*
X1412240Y9471558D01*
X1406245Y9460382D01*
X1401927Y9448444D01*
X1399286Y9436049D01*
X1398422Y9423400D01*
X1399286Y9410750D01*
X1401927Y9398355D01*
X1406245Y9386417D01*
X1412240Y9375241D01*
X1419656Y9364980D01*
X1428496Y9355836D01*
X1438452Y9348063D01*
X1449476Y9341713D01*
X1461211Y9336938D01*
X1473504Y9333890D01*
X1486103Y9332569D01*
X1498803Y9333026D01*
X1511300Y9335211D01*
X1523339Y9339122D01*
X1534718Y9344710D01*
X1545234Y9351772D01*
X1554683Y9360255D01*
X1562811Y9369958D01*
X1569516Y9380728D01*
X1574698Y9392310D01*
X1578203Y9404553D01*
X1579168Y9410852D01*
X1580540Y9414611D01*
X1583283Y9417558D01*
X1586941Y9419234D01*
X1590954Y9419336D01*
X1594662Y9417913D01*
X1597558Y9415119D01*
X1599133Y9411462D01*
X1601927Y9398355D01*
X1606296Y9386417D01*
X1612239Y9375241D01*
X1619656Y9364980D01*
X1628495Y9355836D01*
X1638503Y9348063D01*
X1649475Y9341713D01*
X1661210Y9336938D01*
X1673504Y9333890D01*
X1686153Y9332569D01*
X1696974Y9332925D01*
X1700936Y9332264D01*
X1704339Y9330131D01*
X1706625Y9326829D01*
X1707489Y9322917D01*
X1706727Y9318955D01*
X1704492Y9315602D01*
X1625295Y9236405D01*
X1621993Y9234170D01*
X1618081Y9233408D01*
X1194308Y9233408D01*
X1190396Y9234170D01*
X1187145Y9236405D01*
X1184910Y9239656D01*
X1184148Y9243568D01*
X1184148Y9272981D01*
X1183436Y9279280D01*
X1181506Y9284766D01*
X1178458Y9289643D01*
X1174343Y9293758D01*
X1169466Y9296806D01*
X1163980Y9298736D01*
X1157681Y9299448D01*
X1001318Y9299448D01*
X995019Y9298736D01*
X989533Y9296806D01*
X984656Y9293758D01*
X980541Y9289643D01*
X977493Y9284766D01*
X975563Y9279280D01*
X974852Y9272981D01*
X974852Y9243568D01*
X974090Y9239656D01*
X971854Y9236405D01*
X968603Y9234170D01*
X964692Y9233408D01*
X921308Y9233408D01*
X917397Y9234170D01*
X914095Y9236405D01*
X912520Y9237980D01*
X904494Y9243618D01*
X895553Y9247733D01*
X886104Y9250273D01*
X876300Y9251137D01*
X866495Y9250273D01*
X857046Y9247733D01*
X848106Y9243618D01*
X840079Y9237980D01*
X833119Y9231020D01*
X827481Y9222994D01*
X823366Y9214053D01*
X820826Y9204604D01*
X819962Y9194800D01*
X820826Y9184995D01*
X823366Y9175546D01*
X827481Y9166606D01*
X833119Y9158579D01*
X840079Y9151620D01*
X848106Y9145981D01*
X857046Y9141866D01*
X866495Y9139326D01*
X876300Y9138462D01*
X886104Y9139326D01*
X895553Y9141866D01*
X904494Y9145981D01*
X912520Y9151620D01*
X914095Y9153194D01*
X917397Y9155430D01*
X921308Y9156192D01*
X964692Y9156192D01*
X968603Y9155430D01*
X971854Y9153194D01*
X974090Y9149943D01*
X974852Y9146032D01*
X974852Y9116618D01*
X975563Y9110319D01*
X977493Y9104833D01*
X980541Y9099956D01*
X984656Y9095841D01*
X989533Y9092793D01*
X999236Y9089694D01*
X1002182Y9087307D01*
X1004112Y9084056D01*
X1004671Y9080296D01*
X1003808Y9076639D01*
X1001674Y9073489D01*
X940003Y9011818D01*
X934872Y9005570D01*
X931316Y8998915D01*
X929132Y8991701D01*
X928319Y8983675D01*
X928319Y8545880D01*
X929132Y8537854D01*
X931316Y8530590D01*
X934872Y8523935D01*
X940003Y8517737D01*
X978865Y8478824D01*
X980998Y8475726D01*
X981862Y8472068D01*
X981303Y8468360D01*
X978458Y8459876D01*
X975766Y8446465D01*
X974852Y8432800D01*
X975766Y8419134D01*
X978458Y8405723D01*
X982827Y8392769D01*
X988872Y8380475D01*
X996492Y8369147D01*
X1006297Y8358022D01*
X1008329Y8354517D01*
X1008837Y8350503D01*
X1007719Y8346592D01*
X1005230Y8343442D01*
X994562Y8337854D01*
X988364Y8332724D01*
X938276Y8282635D01*
X933145Y8276437D01*
X929589Y8269731D01*
X927404Y8262518D01*
X926592Y8254492D01*
X926592Y7836408D01*
X927404Y7828381D01*
X929589Y7821168D01*
X933145Y7814462D01*
X938276Y7808264D01*
X988364Y7758175D01*
X994562Y7753045D01*
X998524Y7750200D01*
X1000404Y7747050D01*
X1001014Y7743494D01*
X1000404Y7739938D01*
X998524Y7736789D01*
X996492Y7734503D01*
X988872Y7723124D01*
X982827Y7710830D01*
X978458Y7697876D01*
X975766Y7684465D01*
X974852Y7670800D01*
X975766Y7657134D01*
X978458Y7643723D01*
X982827Y7630769D01*
X988872Y7618475D01*
X996492Y7607096D01*
X1005535Y7596835D01*
X1015796Y7587792D01*
X1027176Y7580172D01*
X1039469Y7574127D01*
X1052423Y7569758D01*
X1065834Y7567066D01*
X1079500Y7566152D01*
X1093165Y7567066D01*
X1106576Y7569758D01*
X1119530Y7574127D01*
X1131824Y7580172D01*
X1143203Y7587792D01*
X1153464Y7596835D01*
X1162507Y7607096D01*
X1170127Y7618475D01*
X1174038Y7626400D01*
X1176883Y7629906D01*
X1180947Y7631836D01*
X1185418Y7631836D01*
X1189482Y7629855D01*
X1192276Y7626299D01*
X1193292Y7621930D01*
X1193292Y7582408D01*
X1194104Y7574381D01*
X1196289Y7567168D01*
X1199845Y7560462D01*
X1204976Y7554264D01*
X1369364Y7389875D01*
X1375562Y7384745D01*
X1382268Y7381189D01*
X1389481Y7379004D01*
X1397508Y7378192D01*
X2003145Y7378192D01*
X2007057Y7377430D01*
X2010359Y7375194D01*
X2012543Y7371943D01*
X2013305Y7368031D01*
X2012543Y7364120D01*
X2010359Y7360869D01*
X1993595Y7344105D01*
X1990293Y7341870D01*
X1986381Y7341108D01*
X1588008Y7341108D01*
X1579981Y7340295D01*
X1572768Y7338110D01*
X1566062Y7334554D01*
X1559864Y7329424D01*
X1511198Y7280808D01*
X1508556Y7278878D01*
X1505508Y7277912D01*
X1502257Y7277963D01*
X1498803Y7278573D01*
X1486103Y7279030D01*
X1473504Y7277709D01*
X1461211Y7274610D01*
X1449476Y7269886D01*
X1438452Y7263536D01*
X1428496Y7255764D01*
X1419656Y7246620D01*
X1412240Y7236358D01*
X1406245Y7225182D01*
X1401927Y7213244D01*
X1399286Y7200849D01*
X1398422Y7188200D01*
X1399286Y7175550D01*
X1401927Y7163155D01*
X1406245Y7151217D01*
X1412240Y7140041D01*
X1419656Y7129780D01*
X1428496Y7120636D01*
X1438452Y7112863D01*
X1449476Y7106513D01*
X1461211Y7101789D01*
X1473504Y7098690D01*
X1486103Y7097369D01*
X1498803Y7097826D01*
X1511300Y7100011D01*
X1523339Y7103922D01*
X1534718Y7109510D01*
X1545234Y7116572D01*
X1554683Y7125055D01*
X1562811Y7134758D01*
X1569516Y7145528D01*
X1574698Y7157110D01*
X1578203Y7169353D01*
X1579168Y7175652D01*
X1580540Y7179411D01*
X1583283Y7182358D01*
X1586941Y7184034D01*
X1590954Y7184136D01*
X1594662Y7182713D01*
X1597558Y7179919D01*
X1599133Y7176262D01*
X1601927Y7163155D01*
X1606296Y7151217D01*
X1612239Y7140041D01*
X1619656Y7129780D01*
X1628495Y7120636D01*
X1638503Y7112863D01*
X1649475Y7106513D01*
X1661210Y7101789D01*
X1673504Y7098690D01*
X1686153Y7097369D01*
X1698802Y7097826D01*
X1711299Y7100011D01*
X1723339Y7103922D01*
X1734718Y7109510D01*
X1745234Y7116572D01*
X1754682Y7125055D01*
X1762810Y7134758D01*
X1769567Y7145528D01*
X1774698Y7157110D01*
X1778203Y7169353D01*
X1779168Y7175652D01*
X1780539Y7179411D01*
X1783283Y7182358D01*
X1786940Y7184034D01*
X1790954Y7184136D01*
X1794662Y7182713D01*
X1797557Y7179919D01*
X1799132Y7176262D01*
X1801926Y7163155D01*
X1806295Y7151217D01*
X1812239Y7140041D01*
X1819656Y7129780D01*
X1828495Y7120636D01*
X1838502Y7112863D01*
X1849475Y7106513D01*
X1861210Y7101789D01*
X1873504Y7098690D01*
X1886153Y7097369D01*
X1898802Y7097826D01*
X1911299Y7100011D01*
X1923338Y7103922D01*
X1934718Y7109510D01*
X1945233Y7116572D01*
X1954682Y7125055D01*
X1962810Y7134758D01*
X1969566Y7145528D01*
X1974697Y7157110D01*
X1978202Y7169353D01*
X1979168Y7175652D01*
X1980539Y7179411D01*
X1983282Y7182358D01*
X1986940Y7184034D01*
X1990953Y7184136D01*
X1994662Y7182713D01*
X1997557Y7179919D01*
X1999132Y7176262D01*
X2001926Y7163155D01*
X2006295Y7151217D01*
X2012238Y7140041D01*
X2019655Y7129780D01*
X2028494Y7120636D01*
X2038502Y7112863D01*
X2049475Y7106513D01*
X2061210Y7101789D01*
X2073503Y7098690D01*
X2086152Y7097369D01*
X2098802Y7097826D01*
X2111298Y7100011D01*
X2123338Y7103922D01*
X2134717Y7109510D01*
X2145233Y7116572D01*
X2154682Y7125055D01*
X2162810Y7134758D01*
X2169566Y7145528D01*
X2174697Y7157110D01*
X2178202Y7169353D01*
X2179167Y7175652D01*
X2180539Y7179411D01*
X2183282Y7182358D01*
X2186940Y7184034D01*
X2190902Y7184136D01*
X2194661Y7182713D01*
X2197557Y7179919D01*
X2199132Y7176262D01*
X2201926Y7163155D01*
X2206294Y7151217D01*
X2212238Y7140041D01*
X2219655Y7129780D01*
X2228494Y7120636D01*
X2238502Y7112863D01*
X2249474Y7106513D01*
X2261209Y7101789D01*
X2273503Y7098690D01*
X2286152Y7097369D01*
X2298801Y7097826D01*
X2311298Y7100011D01*
X2323338Y7103922D01*
X2334717Y7109510D01*
X2345232Y7116572D01*
X2354681Y7125055D01*
X2362809Y7134758D01*
X2369566Y7145528D01*
X2374696Y7157110D01*
X2378202Y7169302D01*
X2379980Y7181850D01*
X2379980Y7194550D01*
X2378202Y7207097D01*
X2374696Y7219289D01*
X2369566Y7230872D01*
X2362809Y7241641D01*
X2354681Y7251344D01*
X2345232Y7259828D01*
X2334717Y7266889D01*
X2323338Y7272477D01*
X2311298Y7276388D01*
X2298801Y7278573D01*
X2286152Y7279030D01*
X2273503Y7277709D01*
X2261209Y7274610D01*
X2249474Y7269886D01*
X2238502Y7263536D01*
X2228494Y7255764D01*
X2219655Y7246620D01*
X2212238Y7236358D01*
X2206294Y7225182D01*
X2201926Y7213244D01*
X2199132Y7199833D01*
X2197557Y7196124D01*
X2194661Y7193330D01*
X2190851Y7191857D01*
X2186838Y7192009D01*
X2183180Y7193686D01*
X2180488Y7196683D01*
X2179116Y7200493D01*
X2178202Y7207097D01*
X2174697Y7219289D01*
X2169566Y7230872D01*
X2162810Y7241641D01*
X2154682Y7251344D01*
X2145233Y7259828D01*
X2134717Y7266889D01*
X2123338Y7272477D01*
X2111298Y7276388D01*
X2098802Y7278573D01*
X2086152Y7279030D01*
X2073503Y7277709D01*
X2060752Y7274458D01*
X2056841Y7273696D01*
X2052980Y7274509D01*
X2049729Y7276693D01*
X2047544Y7279995D01*
X2046782Y7283907D01*
X2047544Y7287768D01*
X2049729Y7291070D01*
X2243378Y7484668D01*
X2246274Y7486700D01*
X2249678Y7487615D01*
X2257704Y7488326D01*
X2267153Y7490866D01*
X2276094Y7494981D01*
X2284120Y7500620D01*
X2291080Y7507579D01*
X2296718Y7515606D01*
X2300833Y7524546D01*
X2303373Y7533995D01*
X2304237Y7543800D01*
X2303373Y7553604D01*
X2300833Y7563053D01*
X2296718Y7571994D01*
X2291080Y7580020D01*
X2284120Y7586980D01*
X2276094Y7592618D01*
X2267153Y7596733D01*
X2257704Y7599273D01*
X2247900Y7600137D01*
X2238095Y7599273D01*
X2235809Y7598664D01*
X2232101Y7598359D01*
X2228545Y7599425D01*
X2225598Y7601712D01*
X2223668Y7604861D01*
X2223008Y7608468D01*
X2223008Y8272881D01*
X2223770Y8276793D01*
X2226005Y8280095D01*
X2230018Y8284159D01*
X2233320Y8286343D01*
X2237232Y8287105D01*
X2241092Y8286343D01*
X2244394Y8284159D01*
X2246630Y8280857D01*
X2247392Y8276945D01*
X2247392Y8263483D01*
X2247950Y8257946D01*
X2248966Y8254492D01*
X2248966Y8294370D01*
X2249830Y8298434D01*
X2252268Y8301837D01*
X2255824Y8303971D01*
X2259939Y8304479D01*
X2263952Y8303310D01*
X2266746Y8301786D01*
X2272893Y8299246D01*
X2278227Y8297621D01*
X2283815Y8297113D01*
X2465984Y8297113D01*
X2471521Y8297621D01*
X2476855Y8299246D01*
X2483002Y8301786D01*
X2485847Y8303310D01*
X2489860Y8304479D01*
X2493975Y8303971D01*
X2495702Y8303209D01*
X2494635Y8306358D01*
X2494635Y8309660D01*
X2495702Y8312810D01*
X2497683Y8316468D01*
X2500223Y8322614D01*
X2501849Y8327948D01*
X2502408Y8333486D01*
X2502408Y8352485D01*
X2501849Y8358022D01*
X2500223Y8363356D01*
X2497683Y8369503D01*
X2495702Y8373211D01*
X2494635Y8376361D01*
X2494635Y8379663D01*
X2495702Y8382812D01*
X2497683Y8386470D01*
X2500223Y8392617D01*
X2501849Y8397951D01*
X2502408Y8403488D01*
X2502408Y8422487D01*
X2501849Y8428024D01*
X2500223Y8433358D01*
X2497683Y8439505D01*
X2495702Y8443214D01*
X2494635Y8446363D01*
X2494635Y8449665D01*
X2495702Y8452764D01*
X2497683Y8456472D01*
X2500223Y8462619D01*
X2501849Y8467953D01*
X2502408Y8473490D01*
X2502408Y8492490D01*
X2501849Y8498027D01*
X2500223Y8503361D01*
X2497683Y8509508D01*
X2495702Y8513216D01*
X2494635Y8516366D01*
X2494635Y8519668D01*
X2495702Y8522766D01*
X2497683Y8526475D01*
X2500223Y8532622D01*
X2501849Y8537956D01*
X2502408Y8543493D01*
X2502408Y8562492D01*
X2501849Y8568029D01*
X2500223Y8573363D01*
X2497683Y8579510D01*
X2495702Y8583218D01*
X2494635Y8586368D01*
X2494635Y8589670D01*
X2495702Y8592769D01*
X2497683Y8596477D01*
X2500223Y8602624D01*
X2501849Y8607958D01*
X2502408Y8613495D01*
X2502408Y8632494D01*
X2501849Y8638032D01*
X2500223Y8643366D01*
X2497683Y8649512D01*
X2495702Y8653221D01*
X2494635Y8656320D01*
X2494635Y8659672D01*
X2495956Y8663228D01*
X2493975Y8662060D01*
X2489860Y8661501D01*
X2485847Y8662670D01*
X2483002Y8664194D01*
X2476855Y8666734D01*
X2471521Y8668359D01*
X2465984Y8668918D01*
X2298192Y8668918D01*
X2294280Y8669680D01*
X2290978Y8671864D01*
X2280666Y8682228D01*
X2278481Y8685530D01*
X2277719Y8689390D01*
X2277719Y8739987D01*
X2278888Y8744508D01*
X2277719Y8749080D01*
X2277719Y8908796D01*
X2278481Y8912656D01*
X2280666Y8915958D01*
X2541066Y9176359D01*
X2546197Y9182608D01*
X2549753Y9189262D01*
X2551938Y9196476D01*
X2552750Y9204502D01*
X2552750Y9228023D01*
X2553512Y9231884D01*
X2555697Y9235186D01*
X2654147Y9333636D01*
X2656992Y9335668D01*
X2660345Y9336582D01*
X2663799Y9336328D01*
X2673502Y9333890D01*
X2686151Y9332569D01*
X2698800Y9333026D01*
X2711297Y9335211D01*
X2723337Y9339122D01*
X2734767Y9344710D01*
X2745232Y9351772D01*
X2754680Y9360255D01*
X2762808Y9369958D01*
X2769565Y9380728D01*
X2774696Y9392310D01*
X2778201Y9404553D01*
X2779166Y9410852D01*
X2780538Y9414611D01*
X2783281Y9417558D01*
X2786938Y9419234D01*
X2790952Y9419336D01*
X2794660Y9417913D01*
X2797556Y9415119D01*
X2799130Y9411462D01*
X2801924Y9398355D01*
X2806293Y9386417D01*
X2812237Y9375241D01*
X2819704Y9364980D01*
X2828493Y9355836D01*
X2838500Y9348063D01*
X2849473Y9341713D01*
X2861208Y9336938D01*
X2873502Y9333890D01*
X2886151Y9332569D01*
X2898800Y9333026D01*
X2911297Y9335211D01*
X2923336Y9339122D01*
X2934766Y9344710D01*
X2945231Y9351772D01*
X2954680Y9360255D01*
X2962808Y9369958D01*
X2969564Y9380728D01*
X2974695Y9392310D01*
X2978200Y9404553D01*
X2979166Y9410852D01*
X2980537Y9414611D01*
X2983280Y9417558D01*
X2986938Y9419234D01*
X2990951Y9419336D01*
X2994660Y9417913D01*
X2997555Y9415119D01*
X2999130Y9411462D01*
X3001924Y9398355D01*
X3006293Y9386417D01*
X3012236Y9375241D01*
X3019704Y9364980D01*
X3028492Y9355836D01*
X3038500Y9348063D01*
X3049473Y9341713D01*
X3061208Y9336938D01*
X3073501Y9333890D01*
X3086150Y9332569D01*
X3098800Y9333026D01*
X3111296Y9335211D01*
X3123336Y9339122D01*
X3134766Y9344710D01*
X3145231Y9351772D01*
X3154680Y9360255D01*
X3162808Y9369958D01*
X3169564Y9380728D01*
X3174695Y9392310D01*
X3176168Y9397492D01*
X3178149Y9401200D01*
X3181502Y9403842D01*
X3185617Y9404858D01*
X3189782Y9404096D01*
X3193288Y9401759D01*
X3195523Y9398152D01*
X3199790Y9386417D01*
X3205734Y9375241D01*
X3213201Y9364980D01*
X3221990Y9355836D01*
X3231997Y9348063D01*
X3242970Y9341713D01*
X3254705Y9336938D01*
X3266998Y9333890D01*
X3279648Y9332569D01*
X3292297Y9333026D01*
X3304794Y9335211D01*
X3316833Y9339122D01*
X3328263Y9344710D01*
X3338728Y9351772D01*
X3348177Y9360255D01*
X3356305Y9369958D01*
X3363061Y9380728D01*
X3368192Y9392310D01*
X3371697Y9404502D01*
X3373475Y9417050D01*
X3373475Y9429750D01*
X3371697Y9442297D01*
X3368192Y9454489D01*
X3363061Y9466072D01*
X3356305Y9476841D01*
X3348177Y9486544D01*
X3338728Y9495028D01*
X3328263Y9502089D01*
X3321913Y9505188D01*
X3318357Y9508032D01*
X3316427Y9512096D01*
X3316427Y9516618D01*
X3318408Y9520682D01*
X3321964Y9523476D01*
X3326333Y9524492D01*
X3445205Y9524492D01*
X3449523Y9523526D01*
X3453028Y9520834D01*
X3455060Y9516973D01*
X3455212Y9512554D01*
X3453536Y9508490D01*
X3450285Y9505543D01*
X3438448Y9498736D01*
X3428492Y9490913D01*
X3419703Y9481820D01*
X3412236Y9471558D01*
X3406292Y9460382D01*
X3401923Y9448444D01*
X3399282Y9436049D01*
X3398418Y9423400D01*
X3399282Y9410750D01*
X3401923Y9398355D01*
X3406292Y9386417D01*
X3412236Y9375241D01*
X3419703Y9364980D01*
X3428492Y9355836D01*
X3438499Y9348063D01*
X3449472Y9341713D01*
X3461207Y9336938D01*
X3473500Y9333890D01*
X3486150Y9332569D01*
X3498799Y9333026D01*
X3511296Y9335211D01*
X3523335Y9339122D01*
X3534765Y9344710D01*
X3545230Y9351772D01*
X3554679Y9360255D01*
X3562807Y9369958D01*
X3569563Y9380728D01*
X3574694Y9392310D01*
X3578199Y9404553D01*
X3579164Y9410852D01*
X3580536Y9414611D01*
X3583279Y9417558D01*
X3586937Y9419234D01*
X3590950Y9419336D01*
X3594658Y9417913D01*
X3597554Y9415119D01*
X3599129Y9411462D01*
X3601923Y9398355D01*
X3606292Y9386417D01*
X3612235Y9375241D01*
X3619703Y9364980D01*
X3628491Y9355836D01*
X3638499Y9348063D01*
X3649472Y9341713D01*
X3661206Y9336938D01*
X3673500Y9333890D01*
X3686149Y9332569D01*
X3698798Y9333026D01*
X3711295Y9335211D01*
X3715562Y9336582D01*
X3719169Y9337090D01*
X3722725Y9336278D01*
X3725722Y9334296D01*
X3727856Y9331350D01*
X3728821Y9327845D01*
X3729126Y9324695D01*
X3731666Y9315246D01*
X3735781Y9306306D01*
X3741420Y9298279D01*
X3748379Y9291320D01*
X3756406Y9285681D01*
X3765346Y9281566D01*
X3774795Y9279026D01*
X3784600Y9278162D01*
X3794404Y9279026D01*
X3803853Y9281566D01*
X3812794Y9285681D01*
X3820820Y9291320D01*
X3827779Y9298279D01*
X3833418Y9306306D01*
X3837533Y9315246D01*
X3840073Y9324695D01*
X3840632Y9331096D01*
X3841648Y9334754D01*
X3843934Y9337751D01*
X3847185Y9339732D01*
X3850436Y9340291D01*
X3850436Y9384538D01*
X3833368Y9384538D01*
X3829456Y9385300D01*
X3826205Y9387535D01*
X3823970Y9390837D01*
X3823208Y9394698D01*
X3823208Y9452102D01*
X3823970Y9455962D01*
X3826205Y9459264D01*
X3829456Y9461449D01*
X3833368Y9462262D01*
X3850436Y9462262D01*
X3850436Y9505492D01*
X3838448Y9498736D01*
X3834434Y9497415D01*
X3830218Y9497872D01*
X3826560Y9499955D01*
X3824071Y9503410D01*
X3823208Y9507524D01*
X3823208Y9511792D01*
X3822395Y9519818D01*
X3820210Y9527032D01*
X3816654Y9533737D01*
X3811524Y9539935D01*
X3794760Y9556750D01*
X3792524Y9560052D01*
X3791762Y9563912D01*
X3792524Y9567824D01*
X3794760Y9571126D01*
X3798062Y9573310D01*
X3801922Y9574072D01*
X6478219Y9574072D01*
X6482638Y9573107D01*
X6486144Y9570313D01*
X6487414Y9567824D01*
X6489649Y9571126D01*
X6492900Y9573310D01*
X6496812Y9574072D01*
X6517538Y9573158D01*
X6534454Y9570618D01*
X6551015Y9566402D01*
X6567068Y9560610D01*
X6582460Y9553244D01*
X6589420Y9549079D01*
X6592062Y9546844D01*
X6593738Y9543796D01*
X6594348Y9540392D01*
X6594348Y9502648D01*
X6635191Y9502648D01*
X6638290Y9502140D01*
X6641134Y9500768D01*
X6644995Y9496298D01*
X6653733Y9481616D01*
X6660997Y9466122D01*
X6666687Y9450019D01*
X6670802Y9433458D01*
X6673240Y9416542D01*
X6674103Y9399168D01*
X6674103Y8378342D01*
X6673291Y8374430D01*
X6671056Y8371128D01*
X6667753Y8368893D01*
X6663791Y8368182D01*
X6659930Y8368995D01*
X6656628Y8371281D01*
X6654647Y8373364D01*
X6644640Y8381136D01*
X6633667Y8387486D01*
X6621881Y8392210D01*
X6609588Y8395309D01*
X6596989Y8396630D01*
X6584289Y8396173D01*
X6571843Y8393988D01*
X6559753Y8390077D01*
X6548374Y8384489D01*
X6537858Y8377428D01*
X6528460Y8368944D01*
X6520281Y8359241D01*
X6513576Y8348472D01*
X6508394Y8336889D01*
X6504940Y8324697D01*
X6503162Y8312150D01*
X6503162Y8299450D01*
X6504940Y8286902D01*
X6508394Y8274710D01*
X6513576Y8263128D01*
X6520281Y8252358D01*
X6528460Y8242655D01*
X6537858Y8234172D01*
X6548374Y8227110D01*
X6559753Y8221522D01*
X6571843Y8217611D01*
X6584289Y8215426D01*
X6596989Y8214969D01*
X6609588Y8216290D01*
X6621881Y8219338D01*
X6633667Y8224113D01*
X6644640Y8230463D01*
X6654647Y8238236D01*
X6656628Y8240318D01*
X6659930Y8242604D01*
X6663791Y8243417D01*
X6667753Y8242706D01*
X6671056Y8240471D01*
X6673291Y8237169D01*
X6674103Y8233257D01*
X6674103Y7200849D01*
X6673138Y7182459D01*
X6670598Y7165543D01*
X6666382Y7148982D01*
X6660591Y7132929D01*
X6653275Y7117537D01*
X6651091Y7113879D01*
X6648805Y7111238D01*
X6645757Y7109561D01*
X6642353Y7108952D01*
X6594348Y7108952D01*
X6594348Y7059625D01*
X6593738Y7056170D01*
X6592062Y7053173D01*
X6589420Y7050887D01*
X6581597Y7046264D01*
X6566153Y7039000D01*
X6550050Y7033310D01*
X6533438Y7029196D01*
X6516573Y7026757D01*
X6499148Y7025894D01*
G37*

%LPC*%
G36*
X6432448Y9502648D02*
G01*
X6486652Y9502648D01*
X6486652Y9558578D01*
X6486245Y9557664D01*
X6482740Y9554819D01*
X6480048Y9553498D01*
X6467652Y9545269D01*
X6456324Y9535566D01*
X6446316Y9524593D01*
X6437731Y9512452D01*
G37*
G36*
X5948070Y7083552D02*
G01*
X6116929Y7083552D01*
X6123228Y7084263D01*
X6128715Y7086193D01*
X6133592Y7089241D01*
X6137706Y7093356D01*
X6140805Y7098233D01*
X6142685Y7103719D01*
X6143396Y7110018D01*
X6143396Y7266381D01*
X6142685Y7272680D01*
X6140805Y7278166D01*
X6137706Y7283043D01*
X6133592Y7287158D01*
X6128715Y7290206D01*
X6123228Y7292136D01*
X6116929Y7292848D01*
X6109614Y7292848D01*
X6105753Y7293609D01*
X6102451Y7295845D01*
X6100216Y7299096D01*
X6099454Y7303008D01*
X6100216Y7306919D01*
X6102451Y7310170D01*
X6325565Y7533335D01*
X6330696Y7539532D01*
X6334252Y7546187D01*
X6336436Y7553452D01*
X6337249Y7561478D01*
X6337249Y9329216D01*
X6336436Y9337243D01*
X6334252Y9344456D01*
X6330696Y9351111D01*
X6325565Y9357360D01*
X6187490Y9495434D01*
X6181242Y9500565D01*
X6174587Y9504121D01*
X6167374Y9506305D01*
X6159347Y9507067D01*
X5963767Y9507067D01*
X5955741Y9506305D01*
X5948527Y9504121D01*
X5941872Y9500565D01*
X5935624Y9495434D01*
X5898743Y9458553D01*
X5895543Y9456369D01*
X5891733Y9455556D01*
X5887923Y9456267D01*
X5884976Y9457385D01*
X5871718Y9460585D01*
X5858103Y9461906D01*
X5844489Y9461449D01*
X5831027Y9459214D01*
X5818022Y9455150D01*
X5805627Y9449409D01*
X5794146Y9442094D01*
X5783732Y9433306D01*
X5774588Y9423146D01*
X5766866Y9411919D01*
X5760720Y9399778D01*
X5756249Y9386874D01*
X5753557Y9373514D01*
X5752642Y9359900D01*
X5753557Y9346285D01*
X5756249Y9332925D01*
X5760720Y9320022D01*
X5766866Y9307880D01*
X5774588Y9296654D01*
X5783732Y9286494D01*
X5794146Y9277705D01*
X5805627Y9270390D01*
X5818022Y9264650D01*
X5831027Y9260586D01*
X5844489Y9258350D01*
X5858103Y9257893D01*
X5871718Y9259214D01*
X5884976Y9262414D01*
X5897676Y9267291D01*
X5909665Y9273844D01*
X5920638Y9281922D01*
X5930442Y9291421D01*
X5938875Y9302140D01*
X5945835Y9313875D01*
X5951169Y9326422D01*
X5954776Y9339580D01*
X5956554Y9353092D01*
X5956554Y9366707D01*
X5954776Y9380220D01*
X5950915Y9394190D01*
X5950559Y9397746D01*
X5951474Y9401200D01*
X5953506Y9404096D01*
X5976315Y9426905D01*
X5979617Y9429089D01*
X5983478Y9429851D01*
X6009894Y9429851D01*
X6014161Y9428937D01*
X6017666Y9426295D01*
X6019698Y9422384D01*
X6019901Y9418015D01*
X6018276Y9413951D01*
X6016853Y9411919D01*
X6010706Y9399778D01*
X6006236Y9386874D01*
X6003544Y9373514D01*
X6002629Y9359900D01*
X6003544Y9346285D01*
X6006236Y9332925D01*
X6010706Y9320022D01*
X6016853Y9307880D01*
X6024575Y9296654D01*
X6033719Y9286494D01*
X6044133Y9277705D01*
X6055664Y9270390D01*
X6068009Y9264650D01*
X6081064Y9260586D01*
X6094476Y9258350D01*
X6108141Y9257893D01*
X6121704Y9259214D01*
X6134963Y9262414D01*
X6137910Y9263532D01*
X6141720Y9264192D01*
X6145530Y9263430D01*
X6148781Y9261246D01*
X6216243Y9193733D01*
X6218478Y9190431D01*
X6219240Y9186570D01*
X6219240Y9072067D01*
X6218478Y9068155D01*
X6216243Y9064853D01*
X6197295Y9045905D01*
X6193993Y9043670D01*
X6190081Y9042908D01*
X6096508Y9042908D01*
X6088481Y9042095D01*
X6081268Y9039910D01*
X6074562Y9036354D01*
X6068364Y9031224D01*
X5996889Y8959748D01*
X5991758Y8953550D01*
X5988202Y8946845D01*
X5986018Y8939631D01*
X5985205Y8931605D01*
X5985205Y8766860D01*
X5984443Y8763000D01*
X5982208Y8759698D01*
X5978956Y8757462D01*
X5975045Y8756700D01*
X5944362Y8756700D01*
X5938062Y8755989D01*
X5932576Y8754110D01*
X5927699Y8751011D01*
X5923584Y8746896D01*
X5920536Y8742019D01*
X5918606Y8736533D01*
X5917895Y8730234D01*
X5917895Y8631377D01*
X5918606Y8625078D01*
X5920536Y8619591D01*
X5923584Y8614714D01*
X5925312Y8612987D01*
X5927496Y8609685D01*
X5928258Y8605774D01*
X5927496Y8601913D01*
X5925312Y8598611D01*
X5923584Y8596884D01*
X5920536Y8592007D01*
X5918606Y8586520D01*
X5917895Y8580221D01*
X5917895Y8481364D01*
X5918606Y8475065D01*
X5920536Y8469579D01*
X5923584Y8464702D01*
X5925312Y8462975D01*
X5927496Y8459673D01*
X5928258Y8455812D01*
X5927496Y8451900D01*
X5925312Y8448598D01*
X5923584Y8446922D01*
X5920536Y8441994D01*
X5918606Y8436610D01*
X5917844Y8428583D01*
X5916828Y8425027D01*
X5914542Y8422030D01*
X5911392Y8420100D01*
X5907735Y8419388D01*
X5815888Y8419388D01*
X5807862Y8418626D01*
X5800648Y8416442D01*
X5796381Y8414156D01*
X5792419Y8412988D01*
X5781395Y8412073D01*
X5771946Y8409533D01*
X5763006Y8405418D01*
X5754979Y8399780D01*
X5748020Y8392820D01*
X5742381Y8384794D01*
X5738266Y8375853D01*
X5735726Y8366404D01*
X5734862Y8356600D01*
X5735726Y8346795D01*
X5738266Y8337346D01*
X5742381Y8328406D01*
X5748020Y8320379D01*
X5754979Y8313420D01*
X5763006Y8307781D01*
X5771946Y8303666D01*
X5781395Y8301126D01*
X5791200Y8300262D01*
X5801004Y8301126D01*
X5810453Y8303666D01*
X5819394Y8307781D01*
X5827420Y8313420D01*
X5834380Y8320379D01*
X5840018Y8328406D01*
X5843676Y8336330D01*
X5845911Y8339429D01*
X5849162Y8341461D01*
X5852871Y8342172D01*
X5907735Y8342172D01*
X5911392Y8341512D01*
X5914542Y8339581D01*
X5916828Y8336584D01*
X5917844Y8333028D01*
X5918606Y8325002D01*
X5920536Y8319617D01*
X5923584Y8314690D01*
X5925312Y8312962D01*
X5927496Y8309711D01*
X5928258Y8305800D01*
X5927496Y8301888D01*
X5925312Y8298637D01*
X5923584Y8296909D01*
X5920536Y8291982D01*
X5918606Y8286546D01*
X5917895Y8280247D01*
X5917895Y8262721D01*
X5917133Y8258809D01*
X5914898Y8255508D01*
X5865876Y8206435D01*
X5860745Y8200237D01*
X5857189Y8193531D01*
X5855004Y8186318D01*
X5854192Y8178292D01*
X5854192Y8046618D01*
X5853430Y8042706D01*
X5851194Y8039404D01*
X5828995Y8017205D01*
X5825693Y8014970D01*
X5821781Y8014208D01*
X5659018Y8014208D01*
X5655106Y8014970D01*
X5651804Y8017205D01*
X5479846Y8189163D01*
X5477662Y8192465D01*
X5476900Y8196325D01*
X5476900Y8453374D01*
X5477662Y8457234D01*
X5479846Y8460536D01*
X5487924Y8468664D01*
X5493054Y8474862D01*
X5496610Y8481568D01*
X5498795Y8488781D01*
X5499912Y8493760D01*
X5501894Y8496604D01*
X5503773Y8498484D01*
X5509361Y8506460D01*
X5513476Y8515299D01*
X5516016Y8524697D01*
X5516880Y8534400D01*
X5516016Y8544102D01*
X5513476Y8553500D01*
X5509361Y8562340D01*
X5503773Y8570315D01*
X5496915Y8577173D01*
X5488940Y8582761D01*
X5480100Y8586876D01*
X5470702Y8589416D01*
X5461000Y8590280D01*
X5451297Y8589416D01*
X5448909Y8588756D01*
X5445201Y8588502D01*
X5441645Y8589518D01*
X5438698Y8591804D01*
X5436768Y8594953D01*
X5436108Y8598611D01*
X5436108Y8724392D01*
X5435295Y8732418D01*
X5433110Y8739632D01*
X5429554Y8746337D01*
X5424424Y8752535D01*
X5399735Y8777224D01*
X5393537Y8782354D01*
X5386832Y8785910D01*
X5379669Y8788095D01*
X5370017Y8788958D01*
X5366410Y8789974D01*
X5363413Y8792210D01*
X5361432Y8795410D01*
X5360771Y8799068D01*
X5360771Y8818575D01*
X5360060Y8824925D01*
X5358130Y8830360D01*
X5355082Y8835288D01*
X5350967Y8839352D01*
X5346090Y8842451D01*
X5340604Y8844330D01*
X5334304Y8845042D01*
X5326176Y8845042D01*
X5322519Y8845753D01*
X5319369Y8847683D01*
X5317134Y8850630D01*
X5313832Y8861806D01*
X5310276Y8868511D01*
X5305501Y8874353D01*
X5299659Y8879128D01*
X5293004Y8882684D01*
X5285740Y8884869D01*
X5278221Y8885631D01*
X5270703Y8884869D01*
X5263489Y8882684D01*
X5256784Y8879128D01*
X5250942Y8874353D01*
X5246166Y8868511D01*
X5242610Y8861806D01*
X5239308Y8850630D01*
X5237073Y8847683D01*
X5233924Y8845753D01*
X5230266Y8845042D01*
X5222189Y8845042D01*
X5215839Y8844330D01*
X5210403Y8842451D01*
X5205476Y8839352D01*
X5201412Y8835288D01*
X5198313Y8830360D01*
X5196382Y8824925D01*
X5195671Y8818575D01*
X5195671Y8682024D01*
X5196382Y8675674D01*
X5198313Y8670239D01*
X5201412Y8665311D01*
X5205476Y8661247D01*
X5208778Y8659164D01*
X5211470Y8656726D01*
X5213146Y8653475D01*
X5213553Y8649868D01*
X5212638Y8646363D01*
X5210556Y8643366D01*
X5198821Y8631631D01*
X5195925Y8629599D01*
X5192522Y8628684D01*
X5184495Y8627973D01*
X5175046Y8625433D01*
X5166106Y8621318D01*
X5158079Y8615680D01*
X5151120Y8608720D01*
X5145481Y8600694D01*
X5141366Y8591753D01*
X5138826Y8582304D01*
X5137962Y8572500D01*
X5138826Y8562695D01*
X5141366Y8553246D01*
X5145481Y8544306D01*
X5151120Y8536279D01*
X5158079Y8529320D01*
X5166106Y8523681D01*
X5175046Y8519566D01*
X5184495Y8517026D01*
X5194300Y8516162D01*
X5204104Y8517026D01*
X5213553Y8519566D01*
X5222494Y8523681D01*
X5230520Y8529320D01*
X5237480Y8536279D01*
X5243118Y8544306D01*
X5247233Y8553246D01*
X5249773Y8562695D01*
X5250484Y8570722D01*
X5251399Y8574125D01*
X5253431Y8577021D01*
X5294731Y8618372D01*
X5299659Y8621471D01*
X5305501Y8626246D01*
X5310276Y8632088D01*
X5313832Y8638743D01*
X5317134Y8649970D01*
X5319369Y8652916D01*
X5322519Y8654846D01*
X5326176Y8655558D01*
X5334304Y8655558D01*
X5340604Y8656269D01*
X5345379Y8657945D01*
X5349189Y8658504D01*
X5352948Y8657590D01*
X5356098Y8655354D01*
X5358180Y8652103D01*
X5358892Y8648344D01*
X5358892Y8293455D01*
X5358180Y8289696D01*
X5356098Y8286445D01*
X5352948Y8284209D01*
X5349189Y8283295D01*
X5345379Y8283854D01*
X5340604Y8285530D01*
X5334304Y8286242D01*
X5222189Y8286242D01*
X5215839Y8285530D01*
X5210403Y8283651D01*
X5205476Y8280552D01*
X5201412Y8276488D01*
X5198313Y8271560D01*
X5196382Y8266125D01*
X5195671Y8259775D01*
X5195671Y8123224D01*
X5196382Y8116874D01*
X5198313Y8111439D01*
X5201412Y8106511D01*
X5205476Y8102447D01*
X5210403Y8099348D01*
X5215839Y8097469D01*
X5222189Y8096758D01*
X5268366Y8096758D01*
X5272227Y8095945D01*
X5275529Y8093760D01*
X5330494Y8038795D01*
X5332730Y8035493D01*
X5333492Y8031581D01*
X5333492Y7822844D01*
X5332526Y7818577D01*
X5331866Y7817053D01*
X5329326Y7807604D01*
X5328462Y7797800D01*
X5329326Y7787995D01*
X5331866Y7778546D01*
X5335981Y7769606D01*
X5341620Y7761579D01*
X5343194Y7760004D01*
X5345430Y7756702D01*
X5346192Y7752791D01*
X5346192Y7645908D01*
X5347004Y7637881D01*
X5349189Y7630668D01*
X5352745Y7623962D01*
X5357876Y7617764D01*
X5558282Y7417308D01*
X5560466Y7414006D01*
X5561228Y7410145D01*
X5560466Y7406233D01*
X5551881Y7394194D01*
X5547766Y7385253D01*
X5545226Y7375804D01*
X5544362Y7366000D01*
X5545226Y7356195D01*
X5547766Y7346746D01*
X5551881Y7337806D01*
X5557520Y7329779D01*
X5559856Y7327442D01*
X5561888Y7324598D01*
X5562904Y7320381D01*
X5565089Y7313168D01*
X5568645Y7306462D01*
X5573776Y7300264D01*
X5623864Y7250175D01*
X5630062Y7245045D01*
X5636768Y7241489D01*
X5643981Y7239304D01*
X5652008Y7238492D01*
X5664403Y7238492D01*
X5668264Y7237730D01*
X5669280Y7237069D01*
X5729630Y7237069D01*
X5729630Y7258354D01*
X5730443Y7262215D01*
X5732627Y7265517D01*
X5766104Y7298994D01*
X5769406Y7301230D01*
X5773318Y7301992D01*
X5817209Y7301992D01*
X5821070Y7301230D01*
X5824372Y7298994D01*
X5826556Y7295743D01*
X5827369Y7291831D01*
X5827369Y7237069D01*
X5877814Y7237069D01*
X5875121Y7242606D01*
X5867349Y7254544D01*
X5858154Y7265365D01*
X5847638Y7274864D01*
X5835243Y7283500D01*
X5832348Y7286599D01*
X5830976Y7290612D01*
X5831382Y7294880D01*
X5833465Y7298588D01*
X5836920Y7301077D01*
X5841085Y7301992D01*
X5921705Y7301992D01*
X5925616Y7301230D01*
X5928868Y7298994D01*
X5931103Y7295743D01*
X5931865Y7291831D01*
X5931103Y7287920D01*
X5928868Y7284669D01*
X5927293Y7283043D01*
X5924194Y7278166D01*
X5922314Y7272680D01*
X5921603Y7266381D01*
X5921603Y7110018D01*
X5922314Y7103719D01*
X5924194Y7098233D01*
X5927293Y7093356D01*
X5931408Y7089241D01*
X5936284Y7086193D01*
X5941771Y7084263D01*
G37*
G36*
X5729630Y7088784D02*
G01*
X5729630Y7139330D01*
X5679033Y7139330D01*
X5685586Y7127697D01*
X5694070Y7116318D01*
X5703925Y7106107D01*
X5715050Y7097268D01*
X5727192Y7089902D01*
G37*
G36*
X5827369Y7088886D02*
G01*
X5836005Y7093356D01*
X5847638Y7101484D01*
X5858154Y7111034D01*
X5867349Y7121855D01*
X5875121Y7133793D01*
X5877814Y7139330D01*
X5827369Y7139330D01*
G37*
G36*
X5024882Y7097268D02*
G01*
X5153710Y7097268D01*
X5160060Y7097979D01*
X5165496Y7099909D01*
X5170424Y7103008D01*
X5174488Y7107072D01*
X5177586Y7112000D01*
X5179517Y7117435D01*
X5180228Y7123785D01*
X5180228Y7252614D01*
X5179517Y7258964D01*
X5177586Y7264400D01*
X5174488Y7269327D01*
X5170424Y7273391D01*
X5165496Y7276490D01*
X5160060Y7278420D01*
X5153710Y7279131D01*
X5024882Y7279131D01*
X5018532Y7278420D01*
X5013096Y7276490D01*
X5008168Y7273391D01*
X5004104Y7269327D01*
X5001006Y7264400D01*
X4999126Y7258964D01*
X4998415Y7252614D01*
X4998415Y7208672D01*
X4997551Y7204659D01*
X4995164Y7201255D01*
X4991658Y7199122D01*
X4987544Y7198563D01*
X4983581Y7199680D01*
X4980381Y7202271D01*
X4978450Y7205929D01*
X4974691Y7219289D01*
X4969560Y7230872D01*
X4962804Y7241641D01*
X4954676Y7251344D01*
X4945227Y7259828D01*
X4934762Y7266889D01*
X4923332Y7272477D01*
X4911293Y7276388D01*
X4898796Y7278573D01*
X4886147Y7279030D01*
X4873498Y7277709D01*
X4861204Y7274610D01*
X4849469Y7269886D01*
X4838496Y7263536D01*
X4828489Y7255764D01*
X4819700Y7246620D01*
X4812233Y7236358D01*
X4806289Y7225182D01*
X4801920Y7213244D01*
X4799126Y7199833D01*
X4797552Y7196124D01*
X4794656Y7193330D01*
X4790897Y7191857D01*
X4786833Y7192009D01*
X4783175Y7193686D01*
X4780483Y7196683D01*
X4779111Y7200493D01*
X4778197Y7207097D01*
X4774692Y7219289D01*
X4769561Y7230872D01*
X4762804Y7241641D01*
X4754676Y7251344D01*
X4745228Y7259828D01*
X4734763Y7266889D01*
X4723333Y7272477D01*
X4711293Y7276388D01*
X4698796Y7278573D01*
X4686147Y7279030D01*
X4673498Y7277709D01*
X4661204Y7274610D01*
X4649470Y7269886D01*
X4638497Y7263536D01*
X4628489Y7255764D01*
X4619701Y7246620D01*
X4612233Y7236358D01*
X4606290Y7225182D01*
X4601921Y7213244D01*
X4599127Y7199833D01*
X4597552Y7196124D01*
X4594656Y7193330D01*
X4590897Y7191857D01*
X4586833Y7192009D01*
X4583176Y7193686D01*
X4580483Y7196683D01*
X4579112Y7200493D01*
X4578197Y7207097D01*
X4574692Y7219289D01*
X4569561Y7230872D01*
X4562805Y7241641D01*
X4554677Y7251344D01*
X4545228Y7259828D01*
X4534763Y7266889D01*
X4523333Y7272477D01*
X4511294Y7276388D01*
X4498797Y7278573D01*
X4486148Y7279030D01*
X4473498Y7277709D01*
X4461205Y7274610D01*
X4449470Y7269886D01*
X4438497Y7263536D01*
X4428490Y7255764D01*
X4419701Y7246620D01*
X4412234Y7236358D01*
X4406290Y7225182D01*
X4401921Y7213244D01*
X4399127Y7199833D01*
X4397552Y7196124D01*
X4394657Y7193330D01*
X4390898Y7191857D01*
X4386834Y7192009D01*
X4383176Y7193686D01*
X4380484Y7196683D01*
X4379112Y7200493D01*
X4378198Y7207097D01*
X4374692Y7219289D01*
X4369562Y7230872D01*
X4362805Y7241641D01*
X4354677Y7251344D01*
X4345228Y7259828D01*
X4334764Y7266889D01*
X4323334Y7272477D01*
X4311294Y7276388D01*
X4298797Y7278573D01*
X4286148Y7279030D01*
X4273499Y7277709D01*
X4261205Y7274610D01*
X4249470Y7269886D01*
X4238498Y7263536D01*
X4228490Y7255764D01*
X4219702Y7246620D01*
X4212234Y7236358D01*
X4206290Y7225182D01*
X4201922Y7213244D01*
X4199128Y7199833D01*
X4197553Y7196124D01*
X4194657Y7193330D01*
X4190898Y7191857D01*
X4186834Y7192009D01*
X4183176Y7193686D01*
X4180484Y7196683D01*
X4179112Y7200493D01*
X4178198Y7207097D01*
X4174693Y7219289D01*
X4169562Y7230872D01*
X4162806Y7241641D01*
X4154678Y7251344D01*
X4145229Y7259828D01*
X4134764Y7266889D01*
X4123334Y7272477D01*
X4111294Y7276388D01*
X4098798Y7278573D01*
X4086148Y7279030D01*
X4073499Y7277709D01*
X4061206Y7274610D01*
X4049471Y7269886D01*
X4038498Y7263536D01*
X4028490Y7255764D01*
X4019702Y7246620D01*
X4012234Y7236358D01*
X4006291Y7225182D01*
X4001922Y7213244D01*
X3999128Y7199782D01*
X3997553Y7196074D01*
X3994658Y7193280D01*
X3990898Y7191857D01*
X3986834Y7192009D01*
X3983177Y7193686D01*
X3980484Y7196683D01*
X3979113Y7200442D01*
X3978198Y7207097D01*
X3974693Y7219289D01*
X3969562Y7230872D01*
X3962806Y7241641D01*
X3954678Y7251344D01*
X3945229Y7259828D01*
X3934764Y7266889D01*
X3923334Y7272477D01*
X3911295Y7276388D01*
X3898798Y7278573D01*
X3886149Y7279030D01*
X3873500Y7277709D01*
X3861206Y7274610D01*
X3849471Y7269886D01*
X3838498Y7263536D01*
X3828491Y7255764D01*
X3819702Y7246620D01*
X3812235Y7236358D01*
X3806291Y7225182D01*
X3801922Y7213244D01*
X3799128Y7199833D01*
X3797554Y7196124D01*
X3794658Y7193330D01*
X3790848Y7191857D01*
X3786835Y7192009D01*
X3783177Y7193686D01*
X3780485Y7196683D01*
X3779113Y7200493D01*
X3778199Y7207097D01*
X3774694Y7219289D01*
X3769563Y7230872D01*
X3762806Y7241641D01*
X3754678Y7251344D01*
X3745229Y7259828D01*
X3734765Y7266889D01*
X3723335Y7272477D01*
X3711295Y7276388D01*
X3698798Y7278573D01*
X3686149Y7279030D01*
X3673500Y7277709D01*
X3661206Y7274610D01*
X3649472Y7269886D01*
X3638499Y7263536D01*
X3628491Y7255764D01*
X3619703Y7246620D01*
X3612235Y7236358D01*
X3606292Y7225182D01*
X3601923Y7213244D01*
X3599129Y7199833D01*
X3597554Y7196124D01*
X3594658Y7193330D01*
X3590848Y7191857D01*
X3586835Y7192009D01*
X3583178Y7193686D01*
X3580485Y7196683D01*
X3579114Y7200493D01*
X3578199Y7207097D01*
X3574694Y7219289D01*
X3569563Y7230872D01*
X3562807Y7241641D01*
X3554679Y7251344D01*
X3545230Y7259828D01*
X3534765Y7266889D01*
X3523335Y7272477D01*
X3511296Y7276388D01*
X3498799Y7278573D01*
X3486150Y7279030D01*
X3473500Y7277709D01*
X3461207Y7274610D01*
X3449472Y7269886D01*
X3438499Y7263536D01*
X3428492Y7255764D01*
X3419703Y7246620D01*
X3412236Y7236358D01*
X3406292Y7225182D01*
X3401923Y7213244D01*
X3399282Y7200849D01*
X3398418Y7188200D01*
X3399282Y7175550D01*
X3401923Y7163155D01*
X3406292Y7151217D01*
X3412236Y7140041D01*
X3419703Y7129780D01*
X3428492Y7120636D01*
X3438499Y7112863D01*
X3449472Y7106513D01*
X3461207Y7101789D01*
X3473500Y7098690D01*
X3486150Y7097369D01*
X3498799Y7097826D01*
X3511296Y7100011D01*
X3523335Y7103922D01*
X3534765Y7109510D01*
X3545230Y7116572D01*
X3554679Y7125055D01*
X3562807Y7134758D01*
X3569563Y7145528D01*
X3574694Y7157110D01*
X3578199Y7169353D01*
X3579164Y7175652D01*
X3580536Y7179411D01*
X3583279Y7182358D01*
X3586937Y7184034D01*
X3590950Y7184136D01*
X3594658Y7182713D01*
X3597554Y7179919D01*
X3599129Y7176262D01*
X3601923Y7163155D01*
X3606292Y7151217D01*
X3612235Y7140041D01*
X3619703Y7129780D01*
X3628491Y7120636D01*
X3638499Y7112863D01*
X3649472Y7106513D01*
X3661206Y7101789D01*
X3673500Y7098690D01*
X3686149Y7097369D01*
X3698798Y7097826D01*
X3711295Y7100011D01*
X3723335Y7103922D01*
X3734765Y7109510D01*
X3745229Y7116572D01*
X3754678Y7125055D01*
X3762806Y7134758D01*
X3769563Y7145528D01*
X3774694Y7157110D01*
X3778199Y7169353D01*
X3779164Y7175652D01*
X3780536Y7179411D01*
X3783279Y7182358D01*
X3786936Y7184034D01*
X3790950Y7184136D01*
X3794658Y7182713D01*
X3797554Y7179919D01*
X3799128Y7176262D01*
X3801922Y7163155D01*
X3806291Y7151217D01*
X3812235Y7140041D01*
X3819702Y7129780D01*
X3828491Y7120636D01*
X3838498Y7112863D01*
X3849471Y7106513D01*
X3861206Y7101789D01*
X3873500Y7098690D01*
X3886149Y7097369D01*
X3898798Y7097826D01*
X3911295Y7100011D01*
X3923334Y7103922D01*
X3934764Y7109510D01*
X3945229Y7116572D01*
X3954678Y7125055D01*
X3962806Y7134758D01*
X3969562Y7145528D01*
X3974693Y7157110D01*
X3978198Y7169353D01*
X3979164Y7175652D01*
X3980535Y7179411D01*
X3983278Y7182358D01*
X3986936Y7184034D01*
X3990949Y7184136D01*
X3994658Y7182713D01*
X3997553Y7179919D01*
X3999179Y7176262D01*
X4001922Y7163155D01*
X4006291Y7151217D01*
X4012234Y7140041D01*
X4019702Y7129780D01*
X4028490Y7120636D01*
X4038498Y7112863D01*
X4049471Y7106513D01*
X4061206Y7101789D01*
X4073499Y7098690D01*
X4086148Y7097369D01*
X4098798Y7097826D01*
X4111294Y7100011D01*
X4123334Y7103922D01*
X4134764Y7109510D01*
X4145229Y7116572D01*
X4154678Y7125055D01*
X4162806Y7134758D01*
X4169562Y7145528D01*
X4174693Y7157110D01*
X4178198Y7169353D01*
X4179163Y7175652D01*
X4180535Y7179411D01*
X4183278Y7182358D01*
X4186936Y7184034D01*
X4190949Y7184136D01*
X4194657Y7182713D01*
X4197553Y7179919D01*
X4199178Y7176262D01*
X4201922Y7163155D01*
X4206290Y7151217D01*
X4212234Y7140041D01*
X4219702Y7129780D01*
X4228490Y7120636D01*
X4238498Y7112863D01*
X4249470Y7106513D01*
X4261205Y7101789D01*
X4273499Y7098690D01*
X4286148Y7097369D01*
X4298797Y7097826D01*
X4311294Y7100011D01*
X4323334Y7103922D01*
X4334764Y7109510D01*
X4345228Y7116572D01*
X4354677Y7125055D01*
X4362805Y7134758D01*
X4369562Y7145528D01*
X4374692Y7157110D01*
X4378198Y7169353D01*
X4379163Y7175652D01*
X4380534Y7179411D01*
X4383278Y7182358D01*
X4386935Y7184034D01*
X4390948Y7184136D01*
X4394657Y7182713D01*
X4397552Y7179919D01*
X4399178Y7176262D01*
X4401921Y7163155D01*
X4406290Y7151217D01*
X4412234Y7140041D01*
X4419701Y7129780D01*
X4428490Y7120636D01*
X4438497Y7112863D01*
X4449470Y7106513D01*
X4461205Y7101789D01*
X4473498Y7098690D01*
X4486148Y7097369D01*
X4498797Y7097826D01*
X4511294Y7100011D01*
X4523333Y7103922D01*
X4534763Y7109510D01*
X4545228Y7116572D01*
X4554677Y7125055D01*
X4562805Y7134758D01*
X4569561Y7145528D01*
X4574692Y7157110D01*
X4578197Y7169353D01*
X4579162Y7175652D01*
X4580534Y7179411D01*
X4583277Y7182358D01*
X4586935Y7184034D01*
X4590948Y7184136D01*
X4594656Y7182713D01*
X4597552Y7179919D01*
X4599178Y7176262D01*
X4601921Y7163155D01*
X4606290Y7151217D01*
X4612233Y7140041D01*
X4619701Y7129780D01*
X4628489Y7120636D01*
X4638497Y7112863D01*
X4649470Y7106513D01*
X4661204Y7101789D01*
X4673498Y7098690D01*
X4686147Y7097369D01*
X4698796Y7097826D01*
X4711293Y7100011D01*
X4723333Y7103922D01*
X4734763Y7109510D01*
X4745228Y7116572D01*
X4754676Y7125055D01*
X4762804Y7134758D01*
X4769561Y7145528D01*
X4774692Y7157110D01*
X4778197Y7169353D01*
X4779162Y7175652D01*
X4780534Y7179411D01*
X4783277Y7182358D01*
X4786934Y7184034D01*
X4790948Y7184136D01*
X4794656Y7182713D01*
X4797552Y7179919D01*
X4799177Y7176262D01*
X4801920Y7163155D01*
X4806289Y7151217D01*
X4812233Y7140041D01*
X4819700Y7129780D01*
X4828489Y7120636D01*
X4838496Y7112863D01*
X4849469Y7106513D01*
X4861204Y7101789D01*
X4873498Y7098690D01*
X4886147Y7097369D01*
X4898796Y7097826D01*
X4911293Y7100011D01*
X4923332Y7103922D01*
X4934762Y7109510D01*
X4945227Y7116572D01*
X4954676Y7125055D01*
X4962804Y7134758D01*
X4969560Y7145528D01*
X4974691Y7157110D01*
X4978450Y7170470D01*
X4980381Y7174128D01*
X4983581Y7176719D01*
X4987544Y7177836D01*
X4991658Y7177278D01*
X4995164Y7175144D01*
X4997551Y7171740D01*
X4998415Y7167676D01*
X4998415Y7123785D01*
X4999126Y7117435D01*
X5001006Y7112000D01*
X5004104Y7107072D01*
X5008168Y7103008D01*
X5013096Y7099909D01*
X5018532Y7097979D01*
G37*
G36*
X2686151Y7097369D02*
G01*
X2698800Y7097826D01*
X2711297Y7100011D01*
X2723337Y7103922D01*
X2734767Y7109510D01*
X2745232Y7116572D01*
X2754680Y7125055D01*
X2762808Y7134758D01*
X2769565Y7145528D01*
X2774696Y7157110D01*
X2778201Y7169353D01*
X2779166Y7175652D01*
X2780538Y7179411D01*
X2783281Y7182358D01*
X2786938Y7184034D01*
X2790952Y7184136D01*
X2794660Y7182713D01*
X2797556Y7179919D01*
X2799130Y7176262D01*
X2801924Y7163155D01*
X2806293Y7151217D01*
X2812237Y7140041D01*
X2819704Y7129780D01*
X2828493Y7120636D01*
X2838500Y7112863D01*
X2849473Y7106513D01*
X2861208Y7101789D01*
X2873502Y7098690D01*
X2886151Y7097369D01*
X2898800Y7097826D01*
X2911297Y7100011D01*
X2923336Y7103922D01*
X2934766Y7109510D01*
X2945231Y7116572D01*
X2954680Y7125055D01*
X2962808Y7134758D01*
X2969564Y7145528D01*
X2974695Y7157110D01*
X2978200Y7169353D01*
X2979166Y7175652D01*
X2980537Y7179411D01*
X2983280Y7182358D01*
X2986938Y7184034D01*
X2990951Y7184136D01*
X2994660Y7182713D01*
X2997555Y7179919D01*
X2999130Y7176262D01*
X3001924Y7163155D01*
X3006293Y7151217D01*
X3012236Y7140041D01*
X3019704Y7129780D01*
X3028492Y7120636D01*
X3038500Y7112863D01*
X3049473Y7106513D01*
X3061208Y7101789D01*
X3073501Y7098690D01*
X3086150Y7097369D01*
X3098800Y7097826D01*
X3111296Y7100011D01*
X3123336Y7103922D01*
X3134766Y7109510D01*
X3145231Y7116572D01*
X3154680Y7125055D01*
X3162808Y7134758D01*
X3169564Y7145528D01*
X3174695Y7157110D01*
X3176168Y7162292D01*
X3178149Y7166051D01*
X3181502Y7168642D01*
X3185617Y7169658D01*
X3189782Y7168896D01*
X3193288Y7166559D01*
X3195523Y7162952D01*
X3199790Y7151217D01*
X3205734Y7140041D01*
X3213201Y7129780D01*
X3221990Y7120636D01*
X3231997Y7112863D01*
X3242970Y7106513D01*
X3254705Y7101789D01*
X3266998Y7098690D01*
X3279648Y7097369D01*
X3292297Y7097826D01*
X3304794Y7100011D01*
X3316833Y7103922D01*
X3328263Y7109510D01*
X3338728Y7116572D01*
X3348177Y7125055D01*
X3356305Y7134758D01*
X3363061Y7145528D01*
X3368192Y7157110D01*
X3371697Y7169302D01*
X3373475Y7181850D01*
X3373475Y7194550D01*
X3371697Y7207097D01*
X3368192Y7219289D01*
X3363061Y7230872D01*
X3356305Y7241641D01*
X3348177Y7251344D01*
X3338728Y7259828D01*
X3328263Y7266889D01*
X3316833Y7272477D01*
X3304794Y7276388D01*
X3292297Y7278573D01*
X3279648Y7279030D01*
X3266998Y7277709D01*
X3257803Y7275423D01*
X3253435Y7275271D01*
X3249422Y7276998D01*
X3246475Y7280249D01*
X3245205Y7284415D01*
X3245815Y7288784D01*
X3248152Y7292441D01*
X3303524Y7347864D01*
X3308654Y7354062D01*
X3312210Y7360767D01*
X3314395Y7367981D01*
X3315208Y7376007D01*
X3315208Y8463381D01*
X3315970Y8467293D01*
X3318205Y8470595D01*
X3518204Y8670594D01*
X3521506Y8672830D01*
X3525418Y8673592D01*
X4555845Y8673592D01*
X4559757Y8672830D01*
X4563059Y8670594D01*
X4565243Y8667343D01*
X4566005Y8663432D01*
X4565243Y8659520D01*
X4563059Y8656269D01*
X4506976Y8600135D01*
X4501845Y8593937D01*
X4498289Y8587232D01*
X4496104Y8580018D01*
X4495292Y8571992D01*
X4495292Y8071408D01*
X4494530Y8067497D01*
X4492294Y8064195D01*
X4490720Y8062620D01*
X4485081Y8054594D01*
X4480966Y8045653D01*
X4478426Y8036204D01*
X4477562Y8026400D01*
X4478426Y8016595D01*
X4480966Y8007146D01*
X4485081Y7998206D01*
X4490720Y7990179D01*
X4497679Y7983220D01*
X4505706Y7977581D01*
X4514646Y7973466D01*
X4524095Y7970926D01*
X4533900Y7970062D01*
X4543704Y7970926D01*
X4553153Y7973466D01*
X4562094Y7977581D01*
X4570120Y7983220D01*
X4577080Y7990179D01*
X4582718Y7998206D01*
X4586833Y8007146D01*
X4589373Y8016595D01*
X4590237Y8026400D01*
X4589373Y8036204D01*
X4586833Y8045653D01*
X4582718Y8054594D01*
X4577080Y8062620D01*
X4575505Y8064195D01*
X4573270Y8067497D01*
X4572508Y8071408D01*
X4572508Y8552281D01*
X4573270Y8556193D01*
X4575505Y8559495D01*
X4635804Y8619794D01*
X4639106Y8622030D01*
X4643018Y8622792D01*
X4793081Y8622792D01*
X4796993Y8622030D01*
X4800295Y8619794D01*
X4919268Y8500821D01*
X4921300Y8497925D01*
X4922215Y8494522D01*
X4922926Y8486495D01*
X4925466Y8477046D01*
X4929581Y8468106D01*
X4935220Y8460079D01*
X4942179Y8453120D01*
X4950206Y8447481D01*
X4959146Y8443366D01*
X4968595Y8440826D01*
X4978400Y8439962D01*
X4988204Y8440826D01*
X4997653Y8443366D01*
X5006594Y8447481D01*
X5014620Y8453120D01*
X5021580Y8460079D01*
X5027218Y8468106D01*
X5031333Y8477046D01*
X5033873Y8486495D01*
X5034737Y8496300D01*
X5033873Y8506104D01*
X5031333Y8515553D01*
X5027218Y8524494D01*
X5021580Y8532520D01*
X5014620Y8539480D01*
X5006594Y8545118D01*
X4997653Y8549233D01*
X4993640Y8550300D01*
X4989880Y8552230D01*
X4987239Y8555532D01*
X4986172Y8559596D01*
X4986832Y8563762D01*
X4989118Y8567318D01*
X4996180Y8574379D01*
X5001818Y8582406D01*
X5005933Y8591346D01*
X5008473Y8600795D01*
X5009337Y8610600D01*
X5008473Y8620404D01*
X5005933Y8629853D01*
X5001818Y8638794D01*
X4996180Y8646820D01*
X4989220Y8653780D01*
X4981194Y8659418D01*
X4972253Y8663533D01*
X4962804Y8666073D01*
X4954778Y8666784D01*
X4951374Y8667699D01*
X4948478Y8669731D01*
X4879035Y8739124D01*
X4872837Y8744254D01*
X4866132Y8747810D01*
X4858918Y8749995D01*
X4850892Y8750808D01*
X3505708Y8750808D01*
X3497681Y8749995D01*
X3490468Y8747810D01*
X3483762Y8744254D01*
X3477564Y8739124D01*
X3249676Y8511235D01*
X3244545Y8505037D01*
X3240989Y8498332D01*
X3238804Y8491118D01*
X3237992Y8483092D01*
X3237992Y7395718D01*
X3237230Y7391806D01*
X3234994Y7388504D01*
X3124454Y7277963D01*
X3121406Y7275830D01*
X3117799Y7274966D01*
X3114141Y7275474D01*
X3111296Y7276388D01*
X3098800Y7278573D01*
X3086150Y7279030D01*
X3073501Y7277709D01*
X3061208Y7274610D01*
X3049473Y7269886D01*
X3038500Y7263536D01*
X3028492Y7255764D01*
X3019704Y7246620D01*
X3012236Y7236358D01*
X3006293Y7225182D01*
X3001924Y7213244D01*
X2999130Y7199833D01*
X2997555Y7196124D01*
X2994660Y7193330D01*
X2990850Y7191857D01*
X2986836Y7192009D01*
X2983179Y7193686D01*
X2980486Y7196683D01*
X2979115Y7200493D01*
X2978200Y7207097D01*
X2974695Y7219289D01*
X2969564Y7230872D01*
X2962808Y7241641D01*
X2954680Y7251344D01*
X2945231Y7259828D01*
X2934766Y7266889D01*
X2923336Y7272477D01*
X2911297Y7276388D01*
X2898800Y7278573D01*
X2886151Y7279030D01*
X2873502Y7277709D01*
X2861208Y7274610D01*
X2849473Y7269886D01*
X2838500Y7263536D01*
X2828493Y7255764D01*
X2819704Y7246620D01*
X2812237Y7236358D01*
X2806293Y7225182D01*
X2801924Y7213244D01*
X2799130Y7199833D01*
X2797556Y7196124D01*
X2794660Y7193330D01*
X2790850Y7191857D01*
X2786837Y7192009D01*
X2783179Y7193686D01*
X2780487Y7196683D01*
X2779115Y7200493D01*
X2778201Y7207097D01*
X2774696Y7219289D01*
X2769565Y7230872D01*
X2762808Y7241641D01*
X2754680Y7251344D01*
X2745232Y7259828D01*
X2734767Y7266889D01*
X2723337Y7272477D01*
X2711297Y7276388D01*
X2698800Y7278573D01*
X2686151Y7279030D01*
X2673502Y7277709D01*
X2661208Y7274610D01*
X2649474Y7269886D01*
X2638501Y7263536D01*
X2628493Y7255764D01*
X2619705Y7246620D01*
X2612237Y7236358D01*
X2606294Y7225182D01*
X2601925Y7213244D01*
X2599283Y7200493D01*
X2598420Y7188200D01*
X2599283Y7175550D01*
X2601925Y7163155D01*
X2606294Y7151217D01*
X2612237Y7140041D01*
X2619705Y7129780D01*
X2628493Y7120636D01*
X2638501Y7112863D01*
X2649474Y7106513D01*
X2661208Y7101789D01*
X2673502Y7098690D01*
G37*
G36*
X2450439Y7106107D02*
G01*
X2450439Y7149338D01*
X2407259Y7149338D01*
X2412238Y7140041D01*
X2419654Y7129780D01*
X2428494Y7120636D01*
X2438501Y7112863D01*
G37*
G36*
X2528163Y7106259D02*
G01*
X2534716Y7109510D01*
X2545232Y7116572D01*
X2554681Y7125055D01*
X2562809Y7134758D01*
X2569565Y7145528D01*
X2571242Y7149338D01*
X2528163Y7149338D01*
G37*
G36*
X755548Y7216648D02*
G01*
X809752Y7216648D01*
X809752Y7270800D01*
X803148Y7267498D01*
X790752Y7259269D01*
X779424Y7249566D01*
X769416Y7238593D01*
X760831Y7226452D01*
G37*
G36*
X6432448Y7216648D02*
G01*
X6486652Y7216648D01*
X6486652Y7270800D01*
X6480048Y7267498D01*
X6467652Y7259269D01*
X6456324Y7249566D01*
X6446316Y7238593D01*
X6437731Y7226452D01*
G37*
G36*
X917448Y7216648D02*
G01*
X971651Y7216648D01*
X970127Y7220000D01*
X962253Y7232650D01*
X952957Y7244232D01*
X942238Y7254595D01*
X930351Y7263587D01*
X917448Y7271054D01*
G37*
G36*
X6594348Y7216648D02*
G01*
X6648551Y7216648D01*
X6647027Y7220000D01*
X6639153Y7232650D01*
X6629857Y7244232D01*
X6619138Y7254595D01*
X6607251Y7263587D01*
X6594348Y7271054D01*
G37*
G36*
X2528163Y7227062D02*
G01*
X2571242Y7227062D01*
X2569565Y7230872D01*
X2562809Y7241641D01*
X2554681Y7251344D01*
X2545232Y7259828D01*
X2534716Y7266889D01*
X2528163Y7270140D01*
G37*
G36*
X2407259Y7227062D02*
G01*
X2450439Y7227062D01*
X2450439Y7270292D01*
X2438501Y7263536D01*
X2428494Y7255764D01*
X2419654Y7246620D01*
X2412238Y7236358D01*
G37*
G36*
X1033780Y7322921D02*
G01*
X1033780Y7371080D01*
X985621Y7371080D01*
X988872Y7364475D01*
X996492Y7353096D01*
X1005535Y7342835D01*
X1015796Y7333792D01*
X1027176Y7326172D01*
G37*
G36*
X1125220Y7322921D02*
G01*
X1131824Y7326172D01*
X1143203Y7333792D01*
X1153464Y7342835D01*
X1162507Y7353096D01*
X1170127Y7364475D01*
X1173378Y7371080D01*
X1125220Y7371080D01*
G37*
G36*
X2590800Y7373162D02*
G01*
X2600604Y7374026D01*
X2610053Y7376566D01*
X2618994Y7380681D01*
X2627020Y7386320D01*
X2633980Y7393279D01*
X2639618Y7401306D01*
X2643733Y7410246D01*
X2646273Y7419695D01*
X2647137Y7429500D01*
X2646273Y7439304D01*
X2643733Y7448753D01*
X2639618Y7457694D01*
X2633980Y7465720D01*
X2627020Y7472680D01*
X2618994Y7478318D01*
X2610053Y7482433D01*
X2600604Y7484973D01*
X2592578Y7485684D01*
X2589174Y7486599D01*
X2586278Y7488631D01*
X2581605Y7493304D01*
X2579370Y7496606D01*
X2578608Y7500518D01*
X2578608Y8000492D01*
X2577795Y8008518D01*
X2575610Y8015731D01*
X2572054Y8022437D01*
X2566924Y8028635D01*
X2510840Y8084769D01*
X2508656Y8088020D01*
X2507894Y8091931D01*
X2508656Y8095843D01*
X2510840Y8099094D01*
X2514142Y8101330D01*
X2518054Y8102092D01*
X2660802Y8102092D01*
X2664663Y8101330D01*
X2667965Y8099094D01*
X2669184Y8097926D01*
X2677160Y8092338D01*
X2685999Y8088223D01*
X2695397Y8085683D01*
X2705100Y8084820D01*
X2714802Y8085683D01*
X2724200Y8088223D01*
X2733040Y8092338D01*
X2741015Y8097926D01*
X2747873Y8104784D01*
X2753461Y8112759D01*
X2757576Y8121599D01*
X2760116Y8130997D01*
X2760980Y8140700D01*
X2760116Y8150402D01*
X2757576Y8159800D01*
X2753461Y8168640D01*
X2747873Y8176615D01*
X2741015Y8183473D01*
X2733040Y8189061D01*
X2724200Y8193176D01*
X2714802Y8195716D01*
X2705100Y8196580D01*
X2695397Y8195716D01*
X2685999Y8193176D01*
X2677160Y8189061D01*
X2669184Y8183473D01*
X2667965Y8182305D01*
X2664663Y8180070D01*
X2660802Y8179308D01*
X2512212Y8179308D01*
X2508097Y8180171D01*
X2504694Y8182660D01*
X2502560Y8186267D01*
X2502103Y8190484D01*
X2502408Y8193481D01*
X2502408Y8212480D01*
X2501849Y8218068D01*
X2500833Y8221472D01*
X2500833Y8189468D01*
X2500020Y8185556D01*
X2497836Y8182305D01*
X2494534Y8180070D01*
X2490673Y8179308D01*
X2383078Y8179308D01*
X2378557Y8178901D01*
X2283815Y8178901D01*
X2278227Y8178342D01*
X2272893Y8176768D01*
X2266746Y8174177D01*
X2263952Y8172703D01*
X2259939Y8171535D01*
X2255824Y8172043D01*
X2254046Y8172805D01*
X2255113Y8169656D01*
X2255113Y8166353D01*
X2254046Y8163204D01*
X2252116Y8159546D01*
X2249525Y8153400D01*
X2247950Y8148066D01*
X2247392Y8142478D01*
X2247392Y8123478D01*
X2247950Y8117941D01*
X2249525Y8112607D01*
X2252116Y8106460D01*
X2254046Y8102803D01*
X2255113Y8099653D01*
X2255113Y8096351D01*
X2254046Y8093202D01*
X2252116Y8089544D01*
X2249525Y8083397D01*
X2247950Y8078063D01*
X2247392Y8072526D01*
X2247392Y8053476D01*
X2247950Y8047939D01*
X2249525Y8042605D01*
X2252116Y8036458D01*
X2254046Y8032800D01*
X2255113Y8029651D01*
X2255113Y8026349D01*
X2253843Y8022742D01*
X2255824Y8023961D01*
X2259939Y8024469D01*
X2263952Y8023301D01*
X2266746Y8021777D01*
X2272893Y8019237D01*
X2278227Y8017662D01*
X2283815Y8017103D01*
X2465120Y8017103D01*
X2468981Y8016341D01*
X2472283Y8014106D01*
X2497836Y7988553D01*
X2500020Y7985252D01*
X2500833Y7981391D01*
X2500833Y7877403D01*
X2501392Y7874660D01*
X2501392Y7480808D01*
X2502204Y7472781D01*
X2504389Y7465568D01*
X2507945Y7458862D01*
X2513076Y7452664D01*
X2531668Y7434021D01*
X2533700Y7431125D01*
X2534615Y7427722D01*
X2535326Y7419695D01*
X2537866Y7410246D01*
X2541981Y7401306D01*
X2547620Y7393279D01*
X2554579Y7386320D01*
X2562606Y7380681D01*
X2571546Y7376566D01*
X2580995Y7374026D01*
G37*
G36*
X985621Y7462520D02*
G01*
X1033780Y7462520D01*
X1033780Y7510678D01*
X1027176Y7507427D01*
X1015796Y7499807D01*
X1005535Y7490764D01*
X996492Y7480503D01*
X988872Y7469124D01*
G37*
G36*
X1125220Y7462520D02*
G01*
X1173378Y7462520D01*
X1170127Y7469124D01*
X1162507Y7480503D01*
X1153464Y7490764D01*
X1143203Y7499807D01*
X1131824Y7507427D01*
X1125220Y7510678D01*
G37*
G36*
X6474358Y7644892D02*
G01*
X6573215Y7644892D01*
X6579565Y7645603D01*
X6585000Y7647482D01*
X6589928Y7650581D01*
X6593992Y7654696D01*
X6597091Y7659573D01*
X6598970Y7665059D01*
X6599732Y7671358D01*
X6599732Y7850225D01*
X6598970Y7856524D01*
X6597091Y7862011D01*
X6593992Y7866888D01*
X6589928Y7871002D01*
X6585000Y7874101D01*
X6579565Y7875981D01*
X6573215Y7876692D01*
X6474358Y7876692D01*
X6468059Y7875981D01*
X6462572Y7874101D01*
X6457696Y7871002D01*
X6453581Y7866888D01*
X6450533Y7862011D01*
X6448602Y7856524D01*
X6447891Y7850225D01*
X6447891Y7671358D01*
X6448602Y7665059D01*
X6450533Y7659573D01*
X6453581Y7654696D01*
X6457696Y7650581D01*
X6462572Y7647482D01*
X6468059Y7645603D01*
G37*
G36*
X4889500Y7881162D02*
G01*
X4899304Y7882026D01*
X4908753Y7884566D01*
X4917694Y7888681D01*
X4925720Y7894320D01*
X4932680Y7901279D01*
X4938318Y7909306D01*
X4942433Y7918246D01*
X4944973Y7927695D01*
X4945837Y7937500D01*
X4944973Y7947304D01*
X4942433Y7956753D01*
X4938318Y7965694D01*
X4932680Y7973720D01*
X4931105Y7975295D01*
X4928870Y7978597D01*
X4928108Y7982508D01*
X4928108Y8260181D01*
X4928870Y8264093D01*
X4931105Y8267395D01*
X4961178Y8297468D01*
X4964074Y8299500D01*
X4967478Y8300415D01*
X4975504Y8301126D01*
X4984953Y8303666D01*
X4993894Y8307781D01*
X5001920Y8313420D01*
X5008880Y8320379D01*
X5014518Y8328406D01*
X5018633Y8337346D01*
X5021173Y8346795D01*
X5022037Y8356600D01*
X5021173Y8366404D01*
X5018633Y8375853D01*
X5014518Y8384794D01*
X5008880Y8392820D01*
X5001920Y8399780D01*
X4993894Y8405418D01*
X4984953Y8409533D01*
X4975504Y8412073D01*
X4965700Y8412937D01*
X4955895Y8412073D01*
X4946446Y8409533D01*
X4937506Y8405418D01*
X4929479Y8399780D01*
X4922520Y8392820D01*
X4916881Y8384794D01*
X4912766Y8375853D01*
X4910226Y8366404D01*
X4909515Y8358378D01*
X4908600Y8354974D01*
X4906568Y8352078D01*
X4862576Y8308035D01*
X4857445Y8301837D01*
X4853889Y8295131D01*
X4851704Y8287918D01*
X4850892Y8279892D01*
X4850892Y7982508D01*
X4850130Y7978597D01*
X4847894Y7975295D01*
X4846320Y7973720D01*
X4840681Y7965694D01*
X4836566Y7956753D01*
X4834026Y7947304D01*
X4833162Y7937500D01*
X4834026Y7927695D01*
X4836566Y7918246D01*
X4840681Y7909306D01*
X4846320Y7901279D01*
X4853279Y7894320D01*
X4861306Y7888681D01*
X4870246Y7884566D01*
X4879695Y7882026D01*
G37*
G36*
X2248966Y7904480D02*
G01*
X2248966Y7941513D01*
X2247950Y7938058D01*
X2247392Y7932521D01*
X2247392Y7913522D01*
X2247950Y7907934D01*
G37*
G36*
X2248966Y7974482D02*
G01*
X2248966Y8011515D01*
X2247950Y8008061D01*
X2247392Y8002524D01*
X2247392Y7983524D01*
X2247950Y7977936D01*
G37*
G36*
X5028895Y8096758D02*
G01*
X5050332Y8096758D01*
X5050332Y8150707D01*
X5002428Y8150707D01*
X5002428Y8123224D01*
X5003139Y8116874D01*
X5005070Y8111439D01*
X5008118Y8106511D01*
X5012232Y8102447D01*
X5017109Y8099348D01*
X5022596Y8097469D01*
G37*
G36*
X6486652Y7054799D02*
G01*
X6486652Y7108952D01*
X6432448Y7108952D01*
X6437731Y7099147D01*
X6446316Y7087006D01*
X6456324Y7076033D01*
X6467652Y7066330D01*
X6480048Y7058101D01*
G37*
G36*
X917448Y7054545D02*
G01*
X930351Y7062012D01*
X942238Y7071004D01*
X952957Y7081367D01*
X962253Y7092950D01*
X970127Y7105599D01*
X971651Y7108952D01*
X917448Y7108952D01*
G37*
G36*
X2248966Y8184489D02*
G01*
X2248966Y8221522D01*
X2247950Y8218068D01*
X2247392Y8212480D01*
X2247392Y8193481D01*
X2247950Y8187944D01*
G37*
G36*
X5002428Y8232292D02*
G01*
X5050332Y8232292D01*
X5050332Y8286242D01*
X5028895Y8286242D01*
X5022596Y8285530D01*
X5017109Y8283651D01*
X5012232Y8280552D01*
X5008118Y8276488D01*
X5005070Y8271560D01*
X5003139Y8266125D01*
X5002428Y8259775D01*
G37*
G36*
X5119624Y8232292D02*
G01*
X5167528Y8232292D01*
X5167528Y8259775D01*
X5166817Y8266125D01*
X5164886Y8271560D01*
X5161788Y8276488D01*
X5157724Y8280552D01*
X5152796Y8283651D01*
X5147360Y8285530D01*
X5141010Y8286242D01*
X5119624Y8286242D01*
G37*
G36*
X2500833Y8254542D02*
G01*
X2501849Y8257946D01*
X2502408Y8263483D01*
X2502408Y8282482D01*
X2501849Y8288020D01*
X2500833Y8291474D01*
G37*
G36*
X5119624Y8655558D02*
G01*
X5141010Y8655558D01*
X5147360Y8656269D01*
X5152796Y8658148D01*
X5157724Y8661247D01*
X5161788Y8665311D01*
X5164886Y8670239D01*
X5166817Y8675674D01*
X5167528Y8682024D01*
X5167528Y8709507D01*
X5119624Y8709507D01*
G37*
G36*
X5028895Y8655558D02*
G01*
X5050332Y8655558D01*
X5050332Y8709507D01*
X5002428Y8709507D01*
X5002428Y8682024D01*
X5003139Y8675674D01*
X5005070Y8670239D01*
X5008118Y8665311D01*
X5012232Y8661247D01*
X5017109Y8658148D01*
X5022596Y8656269D01*
G37*
G36*
X2500833Y8674557D02*
G01*
X2501849Y8677960D01*
X2502408Y8683498D01*
X2502408Y8702497D01*
X2501849Y8708034D01*
X2500833Y8711438D01*
G37*
G36*
X6474358Y8734907D02*
G01*
X6573215Y8734907D01*
X6579565Y8735618D01*
X6585000Y8737498D01*
X6589928Y8740597D01*
X6593992Y8744712D01*
X6597091Y8749588D01*
X6598970Y8755075D01*
X6599732Y8761374D01*
X6599732Y8940241D01*
X6598970Y8946540D01*
X6597091Y8952026D01*
X6593992Y8956903D01*
X6589928Y8961018D01*
X6585000Y8964117D01*
X6579565Y8965996D01*
X6573215Y8966708D01*
X6474358Y8966708D01*
X6468059Y8965996D01*
X6462572Y8964117D01*
X6457696Y8961018D01*
X6453581Y8956903D01*
X6450533Y8952026D01*
X6448602Y8946540D01*
X6447891Y8940241D01*
X6447891Y8761374D01*
X6448602Y8755075D01*
X6450533Y8749588D01*
X6453581Y8744712D01*
X6457696Y8740597D01*
X6462572Y8737498D01*
X6468059Y8735618D01*
G37*
G36*
X5119624Y8791092D02*
G01*
X5167528Y8791092D01*
X5167528Y8818575D01*
X5166817Y8824925D01*
X5164886Y8830360D01*
X5161788Y8835288D01*
X5157724Y8839352D01*
X5152796Y8842451D01*
X5147360Y8844330D01*
X5141010Y8845042D01*
X5119624Y8845042D01*
G37*
G36*
X5002428Y8791092D02*
G01*
X5050332Y8791092D01*
X5050332Y8845042D01*
X5028895Y8845042D01*
X5022596Y8844330D01*
X5017109Y8842451D01*
X5012232Y8839352D01*
X5008118Y8835288D01*
X5005070Y8830360D01*
X5003139Y8824925D01*
X5002428Y8818575D01*
G37*
G36*
X4013200Y9214662D02*
G01*
X4023004Y9215526D01*
X4032453Y9218066D01*
X4041394Y9222181D01*
X4049420Y9227820D01*
X4050995Y9229394D01*
X4054297Y9231630D01*
X4058208Y9232392D01*
X4536389Y9232392D01*
X4544415Y9233204D01*
X4551680Y9235389D01*
X4558334Y9238945D01*
X4564532Y9244076D01*
X4654143Y9333636D01*
X4656988Y9335668D01*
X4660341Y9336582D01*
X4663795Y9336328D01*
X4673498Y9333890D01*
X4686147Y9332569D01*
X4698796Y9333026D01*
X4711293Y9335211D01*
X4723333Y9339122D01*
X4734763Y9344710D01*
X4745228Y9351772D01*
X4754676Y9360255D01*
X4762804Y9369958D01*
X4769561Y9380728D01*
X4774692Y9392310D01*
X4778197Y9404553D01*
X4779162Y9410852D01*
X4780534Y9414611D01*
X4783277Y9417558D01*
X4786934Y9419234D01*
X4790948Y9419336D01*
X4794656Y9417913D01*
X4797552Y9415119D01*
X4799177Y9411462D01*
X4801920Y9398355D01*
X4806289Y9386417D01*
X4812233Y9375241D01*
X4819700Y9364980D01*
X4828489Y9355836D01*
X4838496Y9348063D01*
X4849469Y9341713D01*
X4861204Y9336938D01*
X4873498Y9333890D01*
X4886147Y9332569D01*
X4898796Y9333026D01*
X4911293Y9335211D01*
X4923332Y9339122D01*
X4934762Y9344710D01*
X4945227Y9351772D01*
X4954676Y9360255D01*
X4962804Y9369958D01*
X4969560Y9380728D01*
X4974691Y9392310D01*
X4978247Y9405010D01*
X4979974Y9417050D01*
X4979974Y9429750D01*
X4978196Y9442297D01*
X4974691Y9454489D01*
X4969560Y9466072D01*
X4962804Y9476841D01*
X4954676Y9486544D01*
X4945227Y9495028D01*
X4934762Y9502089D01*
X4923332Y9507677D01*
X4911293Y9511588D01*
X4898796Y9513773D01*
X4886147Y9514230D01*
X4873498Y9512909D01*
X4861204Y9509810D01*
X4849469Y9505086D01*
X4838496Y9498736D01*
X4828489Y9490913D01*
X4819700Y9481820D01*
X4812233Y9471558D01*
X4806289Y9460382D01*
X4801920Y9448444D01*
X4799126Y9435033D01*
X4797552Y9431324D01*
X4794656Y9428530D01*
X4790897Y9427057D01*
X4786833Y9427210D01*
X4783175Y9428886D01*
X4780483Y9431883D01*
X4779111Y9435693D01*
X4778197Y9442297D01*
X4774692Y9454489D01*
X4769561Y9466072D01*
X4762804Y9476841D01*
X4754676Y9486544D01*
X4745228Y9495028D01*
X4734763Y9502089D01*
X4723333Y9507677D01*
X4711293Y9511588D01*
X4698796Y9513773D01*
X4686147Y9514230D01*
X4673498Y9512909D01*
X4661204Y9509810D01*
X4649470Y9505086D01*
X4638497Y9498736D01*
X4628489Y9490913D01*
X4619701Y9481820D01*
X4612233Y9471558D01*
X4606290Y9460382D01*
X4601921Y9448444D01*
X4599127Y9435033D01*
X4597552Y9431324D01*
X4594656Y9428530D01*
X4590897Y9427057D01*
X4586833Y9427210D01*
X4583176Y9428886D01*
X4580483Y9431883D01*
X4579112Y9435693D01*
X4578197Y9442297D01*
X4574692Y9454489D01*
X4569561Y9466072D01*
X4562805Y9476841D01*
X4554677Y9486544D01*
X4545228Y9495028D01*
X4534763Y9502089D01*
X4523333Y9507677D01*
X4511294Y9511588D01*
X4498797Y9513773D01*
X4486148Y9514230D01*
X4473498Y9512909D01*
X4461205Y9509810D01*
X4449470Y9505086D01*
X4438497Y9498736D01*
X4428490Y9490913D01*
X4419701Y9481820D01*
X4412234Y9471558D01*
X4406290Y9460382D01*
X4401921Y9448444D01*
X4399127Y9435033D01*
X4397552Y9431324D01*
X4394657Y9428530D01*
X4390898Y9427057D01*
X4386834Y9427210D01*
X4383176Y9428886D01*
X4380484Y9431883D01*
X4379112Y9435693D01*
X4378198Y9442297D01*
X4374692Y9454489D01*
X4369562Y9466072D01*
X4362805Y9476841D01*
X4354677Y9486544D01*
X4345228Y9495028D01*
X4334764Y9502089D01*
X4323334Y9507677D01*
X4311294Y9511588D01*
X4298797Y9513773D01*
X4286148Y9514230D01*
X4273499Y9512909D01*
X4261205Y9509810D01*
X4249470Y9505086D01*
X4238498Y9498736D01*
X4228490Y9490913D01*
X4219702Y9481820D01*
X4212234Y9471558D01*
X4206290Y9460382D01*
X4201922Y9448444D01*
X4199128Y9435033D01*
X4197553Y9431324D01*
X4194657Y9428530D01*
X4190898Y9427057D01*
X4186834Y9427210D01*
X4183176Y9428886D01*
X4180484Y9431883D01*
X4179112Y9435693D01*
X4178198Y9442297D01*
X4174693Y9454489D01*
X4169562Y9466072D01*
X4162806Y9476841D01*
X4154678Y9486544D01*
X4145229Y9495028D01*
X4134764Y9502089D01*
X4123334Y9507677D01*
X4111294Y9511588D01*
X4098798Y9513773D01*
X4086148Y9514230D01*
X4073499Y9512909D01*
X4061206Y9509810D01*
X4049471Y9505086D01*
X4038498Y9498736D01*
X4028490Y9490913D01*
X4019702Y9481820D01*
X4012234Y9471558D01*
X4006291Y9460382D01*
X4001922Y9448444D01*
X3999280Y9435693D01*
X3998417Y9423400D01*
X3999280Y9410750D01*
X4001922Y9398355D01*
X4006291Y9386417D01*
X4012234Y9375241D01*
X4019702Y9364980D01*
X4028490Y9355836D01*
X4038498Y9348063D01*
X4049471Y9341713D01*
X4061206Y9336938D01*
X4073499Y9333890D01*
X4086148Y9332569D01*
X4098798Y9333026D01*
X4111294Y9335211D01*
X4123334Y9339122D01*
X4134764Y9344710D01*
X4145229Y9351772D01*
X4154678Y9360255D01*
X4162806Y9369958D01*
X4169562Y9380728D01*
X4174693Y9392310D01*
X4178198Y9404553D01*
X4179163Y9410852D01*
X4180535Y9414611D01*
X4183278Y9417558D01*
X4186936Y9419234D01*
X4190949Y9419336D01*
X4194657Y9417913D01*
X4197553Y9415119D01*
X4199178Y9411462D01*
X4201922Y9398355D01*
X4206290Y9386417D01*
X4212234Y9375241D01*
X4219702Y9364980D01*
X4228490Y9355836D01*
X4238498Y9348063D01*
X4249470Y9341713D01*
X4261205Y9336938D01*
X4273499Y9333890D01*
X4286148Y9332569D01*
X4298797Y9333026D01*
X4311294Y9335211D01*
X4323334Y9339122D01*
X4334764Y9344710D01*
X4345228Y9351772D01*
X4354677Y9360255D01*
X4362805Y9369958D01*
X4369562Y9380728D01*
X4374692Y9392310D01*
X4378198Y9404553D01*
X4379163Y9410852D01*
X4380534Y9414611D01*
X4383278Y9417558D01*
X4386935Y9419234D01*
X4390948Y9419336D01*
X4394657Y9417913D01*
X4397552Y9415119D01*
X4399178Y9411462D01*
X4401921Y9398355D01*
X4406290Y9386417D01*
X4412234Y9375241D01*
X4419701Y9364980D01*
X4428490Y9355836D01*
X4438497Y9348063D01*
X4449470Y9341713D01*
X4461205Y9336938D01*
X4473498Y9333890D01*
X4486148Y9332569D01*
X4498797Y9333026D01*
X4511294Y9335211D01*
X4523232Y9339072D01*
X4527702Y9339478D01*
X4531918Y9337954D01*
X4535017Y9334754D01*
X4536490Y9330486D01*
X4535932Y9326016D01*
X4533544Y9322257D01*
X4523892Y9312605D01*
X4520590Y9310370D01*
X4516678Y9309608D01*
X4058208Y9309608D01*
X4054297Y9310370D01*
X4050995Y9312605D01*
X4049420Y9314180D01*
X4041394Y9319818D01*
X4032453Y9323933D01*
X4023004Y9326473D01*
X4013200Y9327337D01*
X4003395Y9326473D01*
X3993946Y9323933D01*
X3985006Y9319818D01*
X3976979Y9314180D01*
X3970020Y9307220D01*
X3964381Y9299194D01*
X3960266Y9290253D01*
X3957726Y9280804D01*
X3956862Y9271000D01*
X3957726Y9261195D01*
X3960266Y9251746D01*
X3964381Y9242806D01*
X3970020Y9234779D01*
X3976979Y9227820D01*
X3985006Y9222181D01*
X3993946Y9218066D01*
X4003395Y9215526D01*
G37*
G36*
X5608116Y9257893D02*
G01*
X5621680Y9259214D01*
X5634939Y9262414D01*
X5647690Y9267291D01*
X5659628Y9273844D01*
X5670600Y9281922D01*
X5680405Y9291421D01*
X5688888Y9302140D01*
X5695848Y9313875D01*
X5701131Y9326422D01*
X5704738Y9339580D01*
X5706567Y9353092D01*
X5706567Y9366707D01*
X5704738Y9380220D01*
X5701131Y9393377D01*
X5695848Y9405924D01*
X5688888Y9417659D01*
X5680405Y9428378D01*
X5670600Y9437878D01*
X5659628Y9445955D01*
X5647690Y9452508D01*
X5634939Y9457385D01*
X5621680Y9460585D01*
X5608116Y9461906D01*
X5594502Y9461449D01*
X5581040Y9459214D01*
X5568035Y9455150D01*
X5555640Y9449409D01*
X5544159Y9442094D01*
X5533745Y9433306D01*
X5524601Y9423146D01*
X5516880Y9411919D01*
X5510733Y9399778D01*
X5506262Y9386874D01*
X5503519Y9373514D01*
X5502605Y9359900D01*
X5503519Y9346285D01*
X5506262Y9332925D01*
X5510733Y9320022D01*
X5516880Y9307880D01*
X5524601Y9296654D01*
X5533745Y9286494D01*
X5544159Y9277705D01*
X5555640Y9270390D01*
X5568035Y9264650D01*
X5581040Y9260586D01*
X5594502Y9258350D01*
G37*
G36*
X5024882Y9332468D02*
G01*
X5050434Y9332468D01*
X5050434Y9384538D01*
X4998415Y9384538D01*
X4998415Y9358985D01*
X4999126Y9352635D01*
X5001006Y9347200D01*
X5004104Y9342272D01*
X5008168Y9338208D01*
X5013096Y9335109D01*
X5018532Y9333179D01*
G37*
G36*
X5128158Y9332468D02*
G01*
X5153710Y9332468D01*
X5160060Y9333179D01*
X5165496Y9335109D01*
X5170424Y9338208D01*
X5174488Y9342272D01*
X5177586Y9347200D01*
X5179517Y9352635D01*
X5180228Y9358985D01*
X5180228Y9384538D01*
X5128158Y9384538D01*
G37*
G36*
X6594348Y9340545D02*
G01*
X6607251Y9348012D01*
X6619138Y9357004D01*
X6629857Y9367367D01*
X6639153Y9378950D01*
X6647027Y9391599D01*
X6648551Y9394952D01*
X6594348Y9394952D01*
G37*
G36*
X6486652Y9340799D02*
G01*
X6486652Y9394952D01*
X6432448Y9394952D01*
X6437731Y9385147D01*
X6446316Y9373006D01*
X6456324Y9362033D01*
X6467652Y9352330D01*
X6480048Y9344101D01*
G37*
G36*
X3928160Y9341459D02*
G01*
X3934764Y9344710D01*
X3945229Y9351772D01*
X3954678Y9360255D01*
X3962806Y9369958D01*
X3969562Y9380728D01*
X3971239Y9384538D01*
X3928160Y9384538D01*
G37*
G36*
X917346Y9353245D02*
G01*
X930351Y9360712D01*
X942238Y9369704D01*
X952957Y9380067D01*
X962253Y9391650D01*
X970127Y9404299D01*
X971651Y9407652D01*
X917448Y9407652D01*
G37*
G36*
X809752Y9353499D02*
G01*
X809752Y9407652D01*
X755548Y9407652D01*
X760831Y9397847D01*
X769416Y9385706D01*
X779424Y9374733D01*
X790752Y9365030D01*
X803148Y9356801D01*
G37*
G36*
X3928160Y9462262D02*
G01*
X3971239Y9462262D01*
X3969562Y9466072D01*
X3962806Y9476841D01*
X3954678Y9486544D01*
X3945229Y9495028D01*
X3934764Y9502089D01*
X3928160Y9505340D01*
G37*
G36*
X5128158Y9462262D02*
G01*
X5180228Y9462262D01*
X5180228Y9487814D01*
X5179517Y9494164D01*
X5177586Y9499600D01*
X5174488Y9504527D01*
X5170424Y9508591D01*
X5165496Y9511690D01*
X5160060Y9513570D01*
X5153710Y9514281D01*
X5128158Y9514281D01*
G37*
G36*
X4998415Y9462262D02*
G01*
X5050434Y9462262D01*
X5050434Y9514281D01*
X5024882Y9514281D01*
X5018532Y9513570D01*
X5013096Y9511690D01*
X5008168Y9508591D01*
X5004104Y9504527D01*
X5001006Y9499600D01*
X4999126Y9494164D01*
X4998415Y9487814D01*
G37*
G36*
X5119624Y8096758D02*
G01*
X5141010Y8096758D01*
X5147360Y8097469D01*
X5152796Y8099348D01*
X5157724Y8102447D01*
X5161788Y8106511D01*
X5164886Y8111439D01*
X5166817Y8116874D01*
X5167528Y8123224D01*
X5167528Y8150707D01*
X5119624Y8150707D01*
G37*

%LPD*%
D10*
X4533900Y8026400D02*
G01*
X4533900Y8572500D01*
X4622800Y8661400D01*
X4813300Y8661400D01*
X4978400Y8496300D01*
X5461000Y8534400D02*
G01*
X5461000Y8496300D01*
X5438266Y8473567D01*
X5438266Y8176133D01*
X5638800Y7975600D01*
X5842000Y7975600D01*
X5892800Y8026400D01*
X5892800Y8178800D01*
X5944791Y8230796D01*
X6023818Y8230796D01*
X5600700Y7366000D02*
G01*
X5600700Y7327900D01*
X5651500Y7277100D01*
X5689600Y7277100D01*
X5753100Y7340600D01*
X6019800Y7340600D01*
X6159500Y7480300D01*
X6159500Y7581900D01*
X6108700Y7632700D01*
X6032500Y7632700D01*
X5981700Y7683500D01*
X5981700Y7772400D01*
X6032500Y7823200D01*
X6134100Y7823200D01*
X6184900Y7874000D01*
X6184900Y8026400D01*
X6130493Y8080806D01*
X6023813Y8080806D01*
X6023813Y8680805D02*
G01*
X6023813Y8932113D01*
X6096000Y9004300D01*
X6210300Y9004300D01*
X6257848Y9051848D01*
X6257848Y9206750D01*
X6104699Y9359900D01*
X6023813Y8530793D02*
G01*
X6023813Y8680805D01*
X6023813Y8380806D02*
G01*
X6023813Y8530793D01*
X5791200Y8356600D02*
G01*
X5815406Y8380806D01*
X6023813Y8380806D01*
X4889500Y7937500D02*
G01*
X4889500Y8280400D01*
X4965700Y8356600D01*
X2247900Y7543800D02*
G01*
X2006600Y7302500D01*
X1587500Y7302500D01*
X1489303Y7204303D01*
X1489303Y7188200D01*
X1079500Y7416800D02*
G01*
X876300Y7416800D01*
X825500Y7467600D01*
X1079500Y9194800D02*
G01*
X1638300Y9194800D01*
X1790700Y9347200D01*
X1790700Y9474200D01*
X1879600Y9563100D01*
X3733800Y9563100D01*
X3784600Y9512300D01*
X3784600Y9334500D01*
X863600Y7162800D02*
G01*
X1003300Y7162800D01*
X1079500Y7239000D01*
X1079500Y7416800D01*
X5084978Y8750300D02*
G01*
X5084978Y9148978D01*
X5168900Y9232900D01*
X5168900Y9343796D01*
X5089296Y9423400D01*
X5600700Y7366000D02*
G01*
X5600700Y7429500D01*
X5384800Y7645400D01*
X5384800Y7797800D01*
X5278221Y8191500D02*
G01*
X5278221Y8145678D01*
X5372100Y8051800D01*
X5372100Y7810500D01*
X5384800Y7797800D01*
X5084978Y8191500D02*
G01*
X5084978Y8186521D01*
X5232400Y8039100D01*
X5232400Y7734300D01*
X5511800Y7454900D01*
X5511800Y7289800D01*
X5613400Y7188200D01*
X5778500Y7188200D01*
X1079500Y8686800D02*
G01*
X1193800Y8572500D01*
X1193800Y8356600D01*
X1143000Y8305800D01*
X1016000Y8305800D01*
X965200Y8255000D01*
X965200Y7835900D01*
X1016000Y7785100D01*
X1155700Y7785100D01*
X1231900Y7708900D01*
X1231900Y7581900D01*
X1397000Y7416800D01*
X2057400Y7416800D01*
X2184400Y7543800D01*
X2184400Y8293100D01*
X2235200Y8343900D01*
X2374900Y8343137D01*
X876300Y9194800D02*
G01*
X1079500Y9194800D01*
X2374900Y8062976D02*
G01*
X2478024Y8062976D01*
X2540000Y8001000D01*
X2540000Y7480300D01*
X2590800Y7429500D01*
X2374900Y8692997D02*
G01*
X2317902Y8692997D01*
X2286000Y8724900D01*
X2286000Y8890000D01*
X2654300Y9258300D01*
X3822700Y9258300D01*
X3886200Y9321800D01*
X3886200Y9420301D01*
X3889298Y9423400D01*
X6023813Y7930794D02*
G01*
X5620105Y7930794D01*
X5397500Y8153400D01*
X5397500Y8724900D01*
X5372100Y8750300D01*
X5278221Y8750300D01*
X5194300Y8572500D02*
G01*
X5278221Y8656421D01*
X5278221Y8750300D01*
X3089300Y7188200D02*
G01*
X3276600Y7375499D01*
X3276600Y8483600D01*
X3505200Y8712200D01*
X4851400Y8712200D01*
X4953000Y8610600D01*
X1079502Y9194797D02*
G01*
X1186157Y9194797D01*
X4689302Y9423400D02*
G01*
X4536902Y9271000D01*
X4013200Y9271000D01*
X2374902Y8482987D02*
G01*
X2288567Y8482987D01*
X2131976Y8639578D01*
X2131976Y9163276D01*
X2278890Y9310189D01*
X2705100Y8140700D02*
G01*
X2382601Y8140700D01*
X2374900Y8132998D01*
X5278224Y8191497D02*
G01*
X5299382Y8191497D01*
X5278224Y8798684D02*
G01*
X5278224Y8847071D01*
X5278224Y8798684D02*
G01*
X5278224Y8750297D01*
X5278224Y8750297D02*
G01*
X5278224Y8653523D01*
X2514119Y9248213D02*
G01*
X2689303Y9423397D01*
X2374902Y8622992D02*
G01*
X2285291Y8622992D01*
X2239088Y8669195D01*
X2239088Y8928986D01*
X2514119Y9204017D01*
X2514119Y9248213D01*
X2514119Y9248213D02*
G01*
X2389304Y9373029D01*
X2389304Y9480623D01*
X2350035Y9519892D01*
X2052703Y9519892D01*
X1989305Y9456493D01*
X1989305Y9380115D01*
X1723087Y9113898D01*
X1410108Y9113898D01*
X1384175Y9087965D01*
X1070739Y9087965D01*
X966929Y8984155D01*
X966929Y8545370D01*
X1079502Y8432797D01*
X2089304Y9423397D02*
G01*
X2089304Y8587254D01*
X2263574Y8412985D01*
X2374902Y8412985D01*
X2374902Y8273006D02*
G01*
X2374902Y8203003D01*
X2374902Y7922994D02*
G01*
X2489304Y7808592D01*
X2489304Y7188197D01*
X2374902Y7992996D02*
G01*
X2374902Y7922994D01*
X2374902Y7992996D02*
G01*
X2270330Y7992996D01*
X2236980Y8026346D01*
X2236980Y8152102D01*
X2287882Y8203003D01*
X2374902Y8203003D01*
X5084980Y8191497D02*
G01*
X5084980Y8750297D01*
X2374902Y8273006D02*
G01*
X2478356Y8273006D01*
X2512824Y8307473D01*
X2512824Y8652050D01*
X2512824Y8652050D02*
G01*
X2471879Y8692995D01*
X2374902Y8692995D01*
X2374902Y8552990D02*
G01*
X2277214Y8552990D01*
X2184910Y8645293D01*
X2184910Y8976687D01*
X2413713Y9205490D01*
X1434162Y9055834D02*
G01*
X1411785Y9033456D01*
X1262255Y9033456D01*
X1254610Y9025811D01*
X1254610Y8353905D01*
X1079502Y8178797D01*
X5854702Y9359897D02*
G01*
X5963287Y9468482D01*
X6159832Y9468482D01*
X6298618Y9329696D01*
X6298618Y7560967D01*
X6032502Y7294852D01*
X6032502Y7188197D02*
G01*
X6032502Y7294852D01*
G36*
X5141600Y8122650D02*
G01*
X5141600Y8260349D01*
X5028346Y8260349D01*
X5028346Y8122650D01*
G37*
G36*
X5221599Y8122650D02*
G01*
X5221599Y8260349D01*
X5334853Y8260349D01*
X5334853Y8122650D01*
G37*
G36*
X5141600Y8681450D02*
G01*
X5141600Y8819149D01*
X5028346Y8819149D01*
X5028346Y8681450D01*
G37*
G36*
X5221599Y8681450D02*
G01*
X5221599Y8819149D01*
X5334853Y8819149D01*
X5334853Y8681450D01*
G37*
G36*
X2466492Y7903001D02*
G01*
X2473563Y7905930D01*
X2476492Y7913001D01*
X2476492Y7933001D01*
X2473563Y7940073D01*
X2466492Y7943001D01*
X2283292Y7943001D01*
X2276220Y7940073D01*
X2273292Y7933001D01*
X2273292Y7913001D01*
X2276220Y7905930D01*
X2283292Y7903001D01*
G37*
G36*
X2466492Y7973001D02*
G01*
X2473563Y7975930D01*
X2476492Y7983001D01*
X2476492Y8003001D01*
X2473563Y8010072D01*
X2466492Y8013001D01*
X2283292Y8013001D01*
X2276220Y8010072D01*
X2273292Y8003001D01*
X2273292Y7983001D01*
X2276220Y7975930D01*
X2283292Y7973001D01*
G37*
G36*
X2466492Y8043001D02*
G01*
X2473563Y8045930D01*
X2476492Y8053001D01*
X2476492Y8073001D01*
X2473563Y8080072D01*
X2466492Y8083001D01*
X2283292Y8083001D01*
X2276220Y8080072D01*
X2273292Y8073001D01*
X2273292Y8053001D01*
X2276220Y8045930D01*
X2283292Y8043001D01*
G37*
G36*
X2466492Y8113001D02*
G01*
X2473563Y8115929D01*
X2476492Y8123001D01*
X2476492Y8143001D01*
X2473563Y8150072D01*
X2466492Y8153001D01*
X2283292Y8153001D01*
X2276220Y8150072D01*
X2273292Y8143001D01*
X2273292Y8123001D01*
X2276220Y8115929D01*
X2283292Y8113001D01*
G37*
G36*
X2466492Y8183001D02*
G01*
X2473563Y8185929D01*
X2476492Y8193001D01*
X2476492Y8213001D01*
X2473563Y8220072D01*
X2466492Y8223001D01*
X2283292Y8223001D01*
X2276220Y8220072D01*
X2273292Y8213001D01*
X2273292Y8193001D01*
X2276220Y8185929D01*
X2283292Y8183001D01*
G37*
G36*
X2466492Y8253001D02*
G01*
X2473563Y8255929D01*
X2476492Y8263001D01*
X2476492Y8283000D01*
X2473563Y8290072D01*
X2466492Y8293000D01*
X2283292Y8293000D01*
X2276220Y8290072D01*
X2273292Y8283000D01*
X2273292Y8263001D01*
X2276220Y8255929D01*
X2283292Y8253001D01*
G37*
G36*
X2466492Y8323000D02*
G01*
X2473563Y8325929D01*
X2476492Y8333000D01*
X2476492Y8353000D01*
X2473563Y8360072D01*
X2466492Y8363000D01*
X2283292Y8363000D01*
X2276220Y8360072D01*
X2273292Y8353000D01*
X2273292Y8333000D01*
X2276220Y8325929D01*
X2283292Y8323000D01*
G37*
G36*
X2466492Y8393000D02*
G01*
X2473563Y8395929D01*
X2476492Y8403000D01*
X2476492Y8423000D01*
X2473563Y8430072D01*
X2466492Y8433000D01*
X2283292Y8433000D01*
X2276220Y8430072D01*
X2273292Y8423000D01*
X2273292Y8403000D01*
X2276220Y8395929D01*
X2283292Y8393000D01*
G37*
G36*
X2466492Y8463000D02*
G01*
X2473563Y8465929D01*
X2476492Y8473000D01*
X2476492Y8493000D01*
X2473563Y8500071D01*
X2466492Y8503000D01*
X2283292Y8503000D01*
X2276220Y8500071D01*
X2273292Y8493000D01*
X2273292Y8473000D01*
X2276220Y8465929D01*
X2283292Y8463000D01*
G37*
G36*
X2466492Y8533000D02*
G01*
X2473563Y8535929D01*
X2476492Y8543000D01*
X2476492Y8563000D01*
X2473563Y8570071D01*
X2466492Y8573000D01*
X2283292Y8573000D01*
X2276220Y8570071D01*
X2273292Y8563000D01*
X2273292Y8543000D01*
X2276220Y8535929D01*
X2283292Y8533000D01*
G37*
G36*
X2466492Y8603000D02*
G01*
X2473563Y8605928D01*
X2476492Y8613000D01*
X2476492Y8633000D01*
X2473563Y8640071D01*
X2466492Y8643000D01*
X2283292Y8643000D01*
X2276220Y8640071D01*
X2273292Y8633000D01*
X2273292Y8613000D01*
X2276220Y8605928D01*
X2283292Y8603000D01*
G37*
G36*
X2466492Y8673000D02*
G01*
X2473563Y8675928D01*
X2476492Y8683000D01*
X2476492Y8703000D01*
X2473563Y8710071D01*
X2466492Y8713000D01*
X2283292Y8713000D01*
X2276220Y8710071D01*
X2273292Y8703000D01*
X2273292Y8683000D01*
X2276220Y8675928D01*
X2283292Y8673000D01*
G37*
G36*
X6103802Y7880802D02*
G01*
X6103802Y7980801D01*
X5943803Y7980801D01*
X5943803Y7880802D01*
G37*
G36*
X6103802Y8030801D02*
G01*
X6103802Y8130801D01*
X5943803Y8130801D01*
X5943803Y8030801D01*
G37*
G36*
X6103802Y8330801D02*
G01*
X6103802Y8430801D01*
X5943803Y8430801D01*
X5943803Y8330801D01*
G37*
G36*
X6103802Y8480800D02*
G01*
X6103802Y8580800D01*
X5943803Y8580800D01*
X5943803Y8480800D01*
G37*
G36*
X6103802Y8180801D02*
G01*
X6103802Y8280801D01*
X5943803Y8280801D01*
X5943803Y8180801D01*
G37*
G36*
X6103802Y8630800D02*
G01*
X6103802Y8730800D01*
X5943803Y8730800D01*
X5943803Y8630800D01*
G37*
G36*
X6253802Y7680802D02*
G01*
X6253802Y7780802D01*
X6068804Y7780802D01*
X6068804Y7680802D01*
G37*
G36*
X6253802Y8830797D02*
G01*
X6253802Y8930800D01*
X6068804Y8930800D01*
X6068804Y8830797D01*
G37*
G36*
X6573801Y8760800D02*
G01*
X6573801Y8940800D01*
X6473802Y8940800D01*
X6473802Y8760800D01*
G37*
G36*
X6573801Y7670802D02*
G01*
X6573801Y7850802D01*
X6473802Y7850802D01*
X6473802Y7670802D01*
G37*
D14*
G01*
X6104699Y9359900D03*
G01*
X5854712Y9359900D03*
G01*
X5604700Y9359900D03*
D15*
G01*
X5089296Y7188200D03*
D16*
G01*
X4889296Y7188200D03*
G01*
X4689297Y7188200D03*
G01*
X4489297Y7188200D03*
G01*
X4289297Y7188200D03*
G01*
X4089298Y7188200D03*
G01*
X3889298Y7188200D03*
G01*
X3689299Y7188200D03*
G01*
X3489299Y7188200D03*
G01*
X3282797Y7188200D03*
G01*
X3089300Y7188200D03*
G01*
X2889300Y7188200D03*
G01*
X2689301Y7188200D03*
G01*
X2489301Y7188200D03*
G01*
X2289302Y7188200D03*
G01*
X2089302Y7188200D03*
G01*
X1889302Y7188200D03*
G01*
X1689303Y7188200D03*
G01*
X1489303Y7188200D03*
D15*
G01*
X5089296Y9423400D03*
D16*
G01*
X4889296Y9423400D03*
G01*
X4689297Y9423400D03*
G01*
X4489297Y9423400D03*
G01*
X4289297Y9423400D03*
G01*
X4089298Y9423400D03*
G01*
X3889298Y9423400D03*
G01*
X3689299Y9423400D03*
G01*
X3489299Y9423400D03*
G01*
X3282797Y9423400D03*
G01*
X3089300Y9423400D03*
G01*
X2889300Y9423400D03*
G01*
X2689301Y9423400D03*
G01*
X2489301Y9423400D03*
G01*
X2289302Y9423400D03*
G01*
X2089302Y9423400D03*
G01*
X1889302Y9423400D03*
G01*
X1689303Y9423400D03*
G01*
X1489303Y9423400D03*
D17*
G01*
X1079500Y9194800D03*
D18*
G01*
X1079500Y8940800D03*
G01*
X1079500Y8686800D03*
G01*
X1079500Y8432800D03*
G01*
X1079500Y8178800D03*
G01*
X1079500Y7924800D03*
G01*
X1079500Y7670800D03*
G01*
X1079500Y7416800D03*
G36*
X6117498Y7266939D02*
G01*
X5947498Y7266939D01*
X5947498Y7109460D01*
X6117498Y7109460D01*
G37*
D20*
G01*
X5778500Y7188200D03*
D21*
G01*
X863600Y9461500D03*
G01*
X863600Y7162800D03*
G01*
X6540500Y9448800D03*
G01*
X6540500Y7162800D03*
D11*
G01*
X1434162Y9055834D03*
G01*
X2413713Y9205490D03*
G01*
X5461000Y8534400D03*
G01*
X2705100Y8140700D03*
G01*
X2278890Y9310189D03*
D12*
G01*
X4953000Y8610600D03*
G01*
X5194300Y8572500D03*
G01*
X2590800Y7429500D03*
G01*
X876300Y9194800D03*
G01*
X5600700Y7366000D03*
G01*
X5384800Y7797800D03*
G01*
X3784600Y9334500D03*
G01*
X4013200Y9271000D03*
G01*
X825500Y7467600D03*
G01*
X2247900Y7543800D03*
G01*
X4889500Y7937500D03*
G01*
X4965700Y8356600D03*
G01*
X5791200Y8356600D03*
G01*
X4533900Y8026400D03*
G01*
X4978400Y8496300D03*
M02*
