G04 Layer: TopLayer*
G04 EasyEDA v6.5.1, 2022-03-28 07:45:05*
G04 8a3c461addb741cca4737953a7c37c6d,45e7c3065f504378a11261742efe6332,10*
G04 Gerber Generator version 0.2*
G04 Scale: 100 percent, Rotated: No, Reflected: No *
G04 Dimensions in millimeters *
G04 leading zeros omitted , absolute positions ,4 integer and 5 decimal *
%FSLAX45Y45*%
%MOMM*%

%ADD10C,0.2540*%
%ADD11C,0.6000*%
%ADD12C,0.6096*%
%ADD14C,1.5240*%
%ADD15R,1.3000X1.3000*%
%ADD16C,1.3000*%
%ADD17R,1.5748X1.5748*%
%ADD18C,1.5748*%
%ADD20C,1.7000*%
%ADD21C,1.9000*%

%LPD*%
G36*
X1150518Y7099808D02*
G01*
X1146606Y7100570D01*
X1143304Y7102805D01*
X1070305Y7175804D01*
X1068070Y7179106D01*
X1067308Y7183018D01*
X1067308Y7289292D01*
X1066495Y7297318D01*
X1064310Y7304531D01*
X1060754Y7311237D01*
X1055624Y7317435D01*
X1036777Y7336332D01*
X1034542Y7339634D01*
X1033780Y7343546D01*
X1033780Y7371080D01*
X1006246Y7371080D01*
X1002334Y7371842D01*
X999032Y7374077D01*
X968705Y7404404D01*
X966469Y7407706D01*
X965708Y7411618D01*
X965708Y7452359D01*
X966469Y7456271D01*
X968400Y7459116D01*
X966724Y7461300D01*
X965708Y7465669D01*
X965708Y7621930D01*
X966724Y7626299D01*
X969518Y7629855D01*
X973582Y7631836D01*
X978052Y7631836D01*
X982116Y7629906D01*
X984961Y7626400D01*
X988872Y7618475D01*
X996492Y7607096D01*
X1005535Y7596835D01*
X1015796Y7587792D01*
X1027176Y7580172D01*
X1039469Y7574127D01*
X1052423Y7569758D01*
X1065834Y7567066D01*
X1079500Y7566152D01*
X1093165Y7567066D01*
X1106576Y7569758D01*
X1115060Y7572603D01*
X1118768Y7573162D01*
X1122426Y7572298D01*
X1125524Y7570165D01*
X1166164Y7529575D01*
X1172362Y7524445D01*
X1179068Y7520889D01*
X1186281Y7518704D01*
X1194308Y7517892D01*
X2192223Y7517892D01*
X2195423Y7517384D01*
X2198268Y7515859D01*
X2200554Y7513574D01*
X2204720Y7507579D01*
X2211679Y7500620D01*
X2219706Y7494981D01*
X2228646Y7490866D01*
X2238095Y7488326D01*
X2246122Y7487615D01*
X2249525Y7486700D01*
X2252421Y7484668D01*
X2271064Y7466075D01*
X2277262Y7460945D01*
X2283968Y7457389D01*
X2291181Y7455204D01*
X2299208Y7454392D01*
X2526131Y7454392D01*
X2529738Y7453731D01*
X2532888Y7451801D01*
X2535174Y7448854D01*
X2536240Y7445298D01*
X2535936Y7441590D01*
X2535326Y7439304D01*
X2534462Y7429500D01*
X2535326Y7419695D01*
X2537866Y7410246D01*
X2541981Y7401306D01*
X2547620Y7393279D01*
X2549194Y7391704D01*
X2551430Y7388402D01*
X2552192Y7384491D01*
X2552192Y7274255D01*
X2551277Y7269988D01*
X2548636Y7266482D01*
X2544775Y7264450D01*
X2540406Y7264196D01*
X2536342Y7265822D01*
X2534716Y7266889D01*
X2528163Y7270140D01*
X2528163Y7227062D01*
X2542032Y7227062D01*
X2545943Y7226300D01*
X2549194Y7224064D01*
X2551430Y7220762D01*
X2552192Y7216902D01*
X2552192Y7159498D01*
X2551430Y7155637D01*
X2549194Y7152335D01*
X2545943Y7150100D01*
X2542032Y7149338D01*
X2528163Y7149338D01*
X2528163Y7120839D01*
X2527350Y7116978D01*
X2525166Y7113676D01*
X2514295Y7102805D01*
X2510993Y7100570D01*
X2507081Y7099808D01*
X2460599Y7099808D01*
X2456738Y7100570D01*
X2453436Y7102805D01*
X2451201Y7106056D01*
X2450439Y7109968D01*
X2450439Y7149338D01*
X2407259Y7149338D01*
X2412238Y7140041D01*
X2419654Y7129780D01*
X2428494Y7120636D01*
X2431948Y7117994D01*
X2434590Y7114794D01*
X2435809Y7110780D01*
X2435301Y7106666D01*
X2433116Y7103059D01*
X2429764Y7100671D01*
X2425649Y7099808D01*
X2353106Y7099808D01*
X2349144Y7100620D01*
X2345791Y7102906D01*
X2343607Y7106310D01*
X2342946Y7110323D01*
X2343861Y7114286D01*
X2346299Y7117537D01*
X2354681Y7125055D01*
X2362809Y7134758D01*
X2369566Y7145528D01*
X2374696Y7157110D01*
X2378202Y7169302D01*
X2379980Y7181850D01*
X2379980Y7194550D01*
X2378202Y7207097D01*
X2374696Y7219289D01*
X2369566Y7230872D01*
X2362809Y7241641D01*
X2354681Y7251344D01*
X2345232Y7259828D01*
X2334717Y7266889D01*
X2323338Y7272477D01*
X2311298Y7276388D01*
X2298801Y7278573D01*
X2286152Y7279030D01*
X2273503Y7277709D01*
X2261209Y7274610D01*
X2249474Y7269886D01*
X2238502Y7263536D01*
X2228494Y7255764D01*
X2219655Y7246620D01*
X2212238Y7236358D01*
X2206294Y7225182D01*
X2201926Y7213244D01*
X2199132Y7199833D01*
X2197557Y7196124D01*
X2194661Y7193330D01*
X2190851Y7191857D01*
X2186838Y7192009D01*
X2183180Y7193686D01*
X2180488Y7196683D01*
X2179116Y7200493D01*
X2178202Y7207097D01*
X2174697Y7219289D01*
X2169566Y7230872D01*
X2162810Y7241641D01*
X2154682Y7251344D01*
X2145233Y7259828D01*
X2134717Y7266889D01*
X2123338Y7272477D01*
X2111298Y7276388D01*
X2098802Y7278573D01*
X2086152Y7279030D01*
X2073503Y7277709D01*
X2061210Y7274610D01*
X2049475Y7269886D01*
X2038502Y7263536D01*
X2028494Y7255764D01*
X2019655Y7246620D01*
X2012238Y7236358D01*
X2006295Y7225182D01*
X2001926Y7213244D01*
X1999132Y7199833D01*
X1997557Y7196124D01*
X1994662Y7193330D01*
X1990852Y7191857D01*
X1986838Y7192009D01*
X1983181Y7193686D01*
X1980488Y7196683D01*
X1979117Y7200493D01*
X1978202Y7207097D01*
X1974697Y7219289D01*
X1969566Y7230872D01*
X1962810Y7241641D01*
X1954682Y7251344D01*
X1945233Y7259828D01*
X1934718Y7266889D01*
X1923338Y7272477D01*
X1911299Y7276388D01*
X1898802Y7278573D01*
X1886153Y7279030D01*
X1873504Y7277709D01*
X1861210Y7274610D01*
X1849475Y7269886D01*
X1838502Y7263536D01*
X1828495Y7255764D01*
X1819656Y7246620D01*
X1812239Y7236358D01*
X1806295Y7225182D01*
X1801926Y7213244D01*
X1799132Y7199833D01*
X1797557Y7196124D01*
X1794662Y7193330D01*
X1790852Y7191857D01*
X1786839Y7192009D01*
X1783181Y7193686D01*
X1780489Y7196683D01*
X1779117Y7200493D01*
X1778203Y7207097D01*
X1774698Y7219289D01*
X1769567Y7230872D01*
X1762810Y7241641D01*
X1754682Y7251344D01*
X1745234Y7259828D01*
X1734718Y7266889D01*
X1723339Y7272477D01*
X1711299Y7276388D01*
X1698802Y7278573D01*
X1686153Y7279030D01*
X1673504Y7277709D01*
X1661210Y7274610D01*
X1649475Y7269886D01*
X1638503Y7263536D01*
X1628495Y7255764D01*
X1619656Y7246620D01*
X1612239Y7236358D01*
X1606296Y7225182D01*
X1601927Y7213244D01*
X1599133Y7199782D01*
X1597558Y7196074D01*
X1594662Y7193280D01*
X1590852Y7191857D01*
X1586839Y7191959D01*
X1583182Y7193686D01*
X1580489Y7196632D01*
X1579118Y7200442D01*
X1578203Y7207097D01*
X1574698Y7219289D01*
X1569516Y7230872D01*
X1562811Y7241641D01*
X1554683Y7251344D01*
X1545234Y7259828D01*
X1534718Y7266889D01*
X1523339Y7272477D01*
X1511300Y7276388D01*
X1498803Y7278573D01*
X1486103Y7279030D01*
X1473504Y7277709D01*
X1461211Y7274610D01*
X1449476Y7269886D01*
X1438452Y7263536D01*
X1428496Y7255764D01*
X1419656Y7246620D01*
X1412240Y7236358D01*
X1406245Y7225182D01*
X1401927Y7213244D01*
X1399286Y7200849D01*
X1398422Y7188200D01*
X1399286Y7175550D01*
X1401927Y7163155D01*
X1406245Y7151217D01*
X1412240Y7140041D01*
X1419656Y7129780D01*
X1428496Y7120636D01*
X1431899Y7117994D01*
X1434592Y7114794D01*
X1435811Y7110780D01*
X1435252Y7106666D01*
X1433118Y7103059D01*
X1429766Y7100671D01*
X1425651Y7099808D01*
G37*

%LPC*%
G36*
X1125220Y7462520D02*
G01*
X1173378Y7462520D01*
X1170127Y7469124D01*
X1162507Y7480503D01*
X1153464Y7490764D01*
X1143203Y7499807D01*
X1131824Y7507427D01*
X1125220Y7510678D01*
G37*
G36*
X985621Y7462520D02*
G01*
X1033780Y7462520D01*
X1033780Y7510678D01*
X1027176Y7507427D01*
X1015796Y7499807D01*
X1005535Y7490764D01*
X996492Y7480503D01*
X988872Y7469124D01*
G37*
G36*
X1125220Y7322921D02*
G01*
X1131824Y7326172D01*
X1143203Y7333792D01*
X1153464Y7342835D01*
X1162507Y7353096D01*
X1170127Y7364475D01*
X1173378Y7371080D01*
X1125220Y7371080D01*
G37*
G36*
X2407259Y7227062D02*
G01*
X2450439Y7227062D01*
X2450439Y7270292D01*
X2438501Y7263536D01*
X2428494Y7255764D01*
X2419654Y7246620D01*
X2412238Y7236358D01*
G37*

%LPD*%
G36*
X5428640Y7025894D02*
G01*
X5424728Y7026706D01*
X5421477Y7028891D01*
X5419242Y7032193D01*
X5418480Y7036053D01*
X5419242Y7039965D01*
X5421477Y7043267D01*
X5513324Y7135164D01*
X5518454Y7141362D01*
X5522010Y7148068D01*
X5524195Y7155281D01*
X5525008Y7163308D01*
X5525008Y7354417D01*
X5525871Y7358481D01*
X5528259Y7361885D01*
X5531815Y7364018D01*
X5535930Y7364577D01*
X5539892Y7363409D01*
X5543092Y7360767D01*
X5544972Y7357059D01*
X5547766Y7346746D01*
X5551881Y7337806D01*
X5557520Y7329779D01*
X5564479Y7322820D01*
X5572506Y7317181D01*
X5581446Y7313066D01*
X5590895Y7310526D01*
X5600700Y7309662D01*
X5610504Y7310526D01*
X5619953Y7313066D01*
X5628894Y7317181D01*
X5636920Y7322820D01*
X5643880Y7329779D01*
X5649518Y7337806D01*
X5653633Y7346746D01*
X5656173Y7356195D01*
X5657037Y7366000D01*
X5656173Y7375804D01*
X5653633Y7385253D01*
X5649518Y7394194D01*
X5643880Y7402220D01*
X5636920Y7409180D01*
X5628894Y7414818D01*
X5619953Y7418933D01*
X5610504Y7421473D01*
X5600700Y7422337D01*
X5590895Y7421473D01*
X5581446Y7418933D01*
X5572506Y7414818D01*
X5564479Y7409180D01*
X5557520Y7402220D01*
X5551881Y7394194D01*
X5547766Y7385253D01*
X5544972Y7374940D01*
X5543092Y7371232D01*
X5539892Y7368590D01*
X5535930Y7367422D01*
X5531815Y7367981D01*
X5528259Y7370114D01*
X5525871Y7373518D01*
X5525008Y7377582D01*
X5525008Y7695692D01*
X5524195Y7703718D01*
X5522010Y7710931D01*
X5518454Y7717637D01*
X5513324Y7723835D01*
X5443931Y7793278D01*
X5441899Y7796174D01*
X5440984Y7799578D01*
X5440273Y7807604D01*
X5437733Y7817053D01*
X5433618Y7825994D01*
X5427980Y7834020D01*
X5421020Y7840980D01*
X5412994Y7846618D01*
X5404053Y7850733D01*
X5394604Y7853273D01*
X5384800Y7854137D01*
X5374995Y7853273D01*
X5365546Y7850733D01*
X5356606Y7846618D01*
X5348579Y7840980D01*
X5341620Y7834020D01*
X5335981Y7825994D01*
X5331866Y7817053D01*
X5329326Y7807604D01*
X5328462Y7797800D01*
X5329326Y7787995D01*
X5331866Y7778546D01*
X5335981Y7769606D01*
X5341620Y7761579D01*
X5348579Y7754620D01*
X5356606Y7748981D01*
X5365546Y7744866D01*
X5374995Y7742326D01*
X5383022Y7741615D01*
X5386425Y7740700D01*
X5389321Y7738668D01*
X5444794Y7683195D01*
X5447030Y7679893D01*
X5447792Y7675981D01*
X5447792Y7183018D01*
X5447030Y7179106D01*
X5444794Y7175804D01*
X5371795Y7102805D01*
X5368493Y7100570D01*
X5364581Y7099808D01*
X5187645Y7099808D01*
X5183835Y7100519D01*
X5180634Y7102602D01*
X5178399Y7105751D01*
X5177485Y7109510D01*
X5178044Y7113320D01*
X5179517Y7117435D01*
X5180228Y7123785D01*
X5180228Y7252614D01*
X5179517Y7258964D01*
X5177586Y7264400D01*
X5174488Y7269327D01*
X5170424Y7273391D01*
X5165496Y7276490D01*
X5160060Y7278420D01*
X5153710Y7279131D01*
X5128768Y7279131D01*
X5124856Y7279894D01*
X5121605Y7282078D01*
X5119370Y7285380D01*
X5118608Y7289292D01*
X5118608Y7936992D01*
X5117795Y7945018D01*
X5115610Y7952231D01*
X5112054Y7958937D01*
X5106924Y7965135D01*
X4904435Y8167624D01*
X4898237Y8172754D01*
X4891532Y8176310D01*
X4884318Y8178495D01*
X4876292Y8179308D01*
X2749397Y8179308D01*
X2745536Y8180070D01*
X2742234Y8182305D01*
X2741015Y8183473D01*
X2733040Y8189061D01*
X2724200Y8193176D01*
X2714802Y8195716D01*
X2705100Y8196580D01*
X2695397Y8195716D01*
X2685999Y8193176D01*
X2677160Y8189061D01*
X2669184Y8183473D01*
X2662326Y8176615D01*
X2656738Y8168640D01*
X2652623Y8159800D01*
X2650083Y8150402D01*
X2649220Y8140700D01*
X2650083Y8130997D01*
X2652623Y8121599D01*
X2656738Y8112759D01*
X2662326Y8104784D01*
X2669184Y8097926D01*
X2677160Y8092338D01*
X2685999Y8088223D01*
X2695397Y8085683D01*
X2705100Y8084820D01*
X2714802Y8085683D01*
X2724200Y8088223D01*
X2733040Y8092338D01*
X2741015Y8097926D01*
X2742234Y8099094D01*
X2745536Y8101330D01*
X2749397Y8102092D01*
X3285845Y8102092D01*
X3289757Y8101330D01*
X3293059Y8099094D01*
X3295243Y8095843D01*
X3296005Y8091931D01*
X3295243Y8088020D01*
X3293059Y8084769D01*
X3255873Y8047532D01*
X3250742Y8041335D01*
X3247186Y8034629D01*
X3245002Y8027416D01*
X3244189Y8019389D01*
X3244189Y7431278D01*
X3243376Y7427264D01*
X3240989Y7423861D01*
X3237534Y7421727D01*
X3233470Y7421118D01*
X3229508Y7422184D01*
X3226257Y7424724D01*
X3224326Y7428331D01*
X3223310Y7431531D01*
X3219754Y7438237D01*
X3214624Y7444435D01*
X3139135Y7519924D01*
X3132937Y7525054D01*
X3126232Y7528610D01*
X3119018Y7530795D01*
X3110992Y7531608D01*
X2318918Y7531608D01*
X2315006Y7532370D01*
X2311704Y7534605D01*
X2307031Y7539278D01*
X2304999Y7542174D01*
X2304084Y7545578D01*
X2303373Y7553604D01*
X2300833Y7563053D01*
X2296718Y7571994D01*
X2291080Y7580020D01*
X2284120Y7586980D01*
X2276094Y7592618D01*
X2267153Y7596733D01*
X2257704Y7599273D01*
X2247900Y7600137D01*
X2238095Y7599273D01*
X2228646Y7596733D01*
X2227122Y7596073D01*
X2222855Y7595108D01*
X1432814Y7595108D01*
X1428699Y7595971D01*
X1425244Y7598511D01*
X1423162Y7602169D01*
X1422755Y7606385D01*
X1422908Y7607858D01*
X1422908Y8989872D01*
X1423771Y8993936D01*
X1426210Y8997340D01*
X1429816Y8999474D01*
X1443888Y9000794D01*
X1453286Y9003334D01*
X1462074Y9007449D01*
X1470050Y9013037D01*
X1476959Y9019946D01*
X1482547Y9027922D01*
X1486662Y9036710D01*
X1489202Y9046108D01*
X1489811Y9053525D01*
X1490726Y9056928D01*
X1492758Y9059824D01*
X1596847Y9163913D01*
X1600149Y9166098D01*
X1604010Y9166860D01*
X2369413Y9166860D01*
X2373274Y9166098D01*
X2376576Y9163913D01*
X2377795Y9162694D01*
X2385771Y9157106D01*
X2394610Y9152991D01*
X2404008Y9150451D01*
X2413711Y9149638D01*
X2423414Y9150451D01*
X2432812Y9152991D01*
X2441651Y9157106D01*
X2449626Y9162694D01*
X2450846Y9163913D01*
X2454148Y9166098D01*
X2458008Y9166860D01*
X4670907Y9166860D01*
X4678934Y9167672D01*
X4686147Y9169857D01*
X4692802Y9173413D01*
X4699050Y9178544D01*
X4854143Y9333636D01*
X4856988Y9335668D01*
X4860340Y9336582D01*
X4863795Y9336328D01*
X4873498Y9333890D01*
X4886147Y9332569D01*
X4898796Y9333026D01*
X4911293Y9335211D01*
X4923332Y9339122D01*
X4934762Y9344710D01*
X4945227Y9351772D01*
X4954676Y9360255D01*
X4962804Y9369958D01*
X4969560Y9380728D01*
X4974691Y9392310D01*
X4978247Y9405010D01*
X4979974Y9417050D01*
X4979974Y9429750D01*
X4978196Y9442297D01*
X4974691Y9454489D01*
X4969560Y9466072D01*
X4962804Y9476841D01*
X4954676Y9486544D01*
X4945227Y9495028D01*
X4934762Y9502089D01*
X4923332Y9507677D01*
X4911293Y9511588D01*
X4898796Y9513773D01*
X4886147Y9514230D01*
X4873498Y9512909D01*
X4861204Y9509810D01*
X4849469Y9505086D01*
X4838496Y9498736D01*
X4828489Y9490913D01*
X4819700Y9481820D01*
X4812233Y9471558D01*
X4806289Y9460382D01*
X4801920Y9448444D01*
X4799126Y9435033D01*
X4797552Y9431324D01*
X4794656Y9428530D01*
X4790897Y9427057D01*
X4786833Y9427210D01*
X4783175Y9428886D01*
X4780483Y9431883D01*
X4779111Y9435693D01*
X4778197Y9442297D01*
X4774692Y9454489D01*
X4769561Y9466072D01*
X4762804Y9476841D01*
X4754676Y9486544D01*
X4745228Y9495028D01*
X4734763Y9502089D01*
X4723333Y9507677D01*
X4711293Y9511588D01*
X4698796Y9513773D01*
X4686147Y9514230D01*
X4673498Y9512909D01*
X4661204Y9509810D01*
X4649470Y9505086D01*
X4638497Y9498736D01*
X4628489Y9490913D01*
X4619701Y9481820D01*
X4612233Y9471558D01*
X4606290Y9460382D01*
X4601921Y9448444D01*
X4599127Y9435033D01*
X4597552Y9431324D01*
X4594656Y9428530D01*
X4590897Y9427057D01*
X4586833Y9427210D01*
X4583176Y9428886D01*
X4580483Y9431883D01*
X4579112Y9435693D01*
X4578197Y9442297D01*
X4574692Y9454489D01*
X4569561Y9466072D01*
X4562805Y9476841D01*
X4554677Y9486544D01*
X4545228Y9495028D01*
X4534763Y9502089D01*
X4523333Y9507677D01*
X4511294Y9511588D01*
X4498797Y9513773D01*
X4486148Y9514230D01*
X4473498Y9512909D01*
X4461205Y9509810D01*
X4449470Y9505086D01*
X4438497Y9498736D01*
X4428490Y9490913D01*
X4419701Y9481820D01*
X4412234Y9471558D01*
X4406290Y9460382D01*
X4401921Y9448444D01*
X4399127Y9435033D01*
X4397552Y9431324D01*
X4394657Y9428530D01*
X4390898Y9427057D01*
X4386834Y9427210D01*
X4383176Y9428886D01*
X4380484Y9431883D01*
X4379112Y9435693D01*
X4378198Y9442297D01*
X4374692Y9454489D01*
X4369562Y9466072D01*
X4362805Y9476841D01*
X4354677Y9486544D01*
X4345228Y9495028D01*
X4334764Y9502089D01*
X4323334Y9507677D01*
X4311294Y9511588D01*
X4298797Y9513773D01*
X4286148Y9514230D01*
X4273499Y9512909D01*
X4261205Y9509810D01*
X4249470Y9505086D01*
X4238498Y9498736D01*
X4228490Y9490913D01*
X4219702Y9481820D01*
X4212234Y9471558D01*
X4206290Y9460382D01*
X4201922Y9448444D01*
X4199128Y9435033D01*
X4197553Y9431324D01*
X4194657Y9428530D01*
X4190898Y9427057D01*
X4186834Y9427210D01*
X4183176Y9428886D01*
X4180484Y9431883D01*
X4179112Y9435693D01*
X4178198Y9442297D01*
X4174693Y9454489D01*
X4169562Y9466072D01*
X4162806Y9476841D01*
X4154678Y9486544D01*
X4145229Y9495028D01*
X4134764Y9502089D01*
X4123334Y9507677D01*
X4111294Y9511588D01*
X4098798Y9513773D01*
X4086148Y9514230D01*
X4073499Y9512909D01*
X4061206Y9509810D01*
X4049471Y9505086D01*
X4038498Y9498736D01*
X4028490Y9490913D01*
X4019702Y9481820D01*
X4012234Y9471558D01*
X4006291Y9460382D01*
X4001922Y9448444D01*
X3999280Y9435693D01*
X3998417Y9423400D01*
X3999280Y9410750D01*
X4001922Y9398355D01*
X4006291Y9386417D01*
X4012234Y9375241D01*
X4019702Y9364980D01*
X4028490Y9355836D01*
X4038498Y9348063D01*
X4049471Y9341713D01*
X4061206Y9336938D01*
X4073499Y9333890D01*
X4086148Y9332569D01*
X4098798Y9333026D01*
X4111294Y9335211D01*
X4123334Y9339122D01*
X4134764Y9344710D01*
X4145229Y9351772D01*
X4154678Y9360255D01*
X4162806Y9369958D01*
X4169562Y9380728D01*
X4174693Y9392310D01*
X4178198Y9404553D01*
X4179163Y9410852D01*
X4180535Y9414611D01*
X4183278Y9417558D01*
X4186936Y9419234D01*
X4190949Y9419336D01*
X4194657Y9417913D01*
X4197553Y9415119D01*
X4199178Y9411462D01*
X4201922Y9398355D01*
X4206290Y9386417D01*
X4212234Y9375241D01*
X4219702Y9364980D01*
X4228490Y9355836D01*
X4238498Y9348063D01*
X4249470Y9341713D01*
X4261205Y9336938D01*
X4273499Y9333890D01*
X4286148Y9332569D01*
X4298797Y9333026D01*
X4311294Y9335211D01*
X4323334Y9339122D01*
X4334764Y9344710D01*
X4345228Y9351772D01*
X4354677Y9360255D01*
X4362805Y9369958D01*
X4369562Y9380728D01*
X4374692Y9392310D01*
X4378198Y9404553D01*
X4379163Y9410852D01*
X4380534Y9414611D01*
X4383278Y9417558D01*
X4386935Y9419234D01*
X4390948Y9419336D01*
X4394657Y9417913D01*
X4397552Y9415119D01*
X4399178Y9411462D01*
X4401921Y9398355D01*
X4406290Y9386417D01*
X4412234Y9375241D01*
X4419701Y9364980D01*
X4428490Y9355836D01*
X4438497Y9348063D01*
X4449470Y9341713D01*
X4461205Y9336938D01*
X4473498Y9333890D01*
X4486148Y9332569D01*
X4498797Y9333026D01*
X4511294Y9335211D01*
X4523333Y9339122D01*
X4534763Y9344710D01*
X4545228Y9351772D01*
X4554677Y9360255D01*
X4562805Y9369958D01*
X4569561Y9380728D01*
X4574692Y9392310D01*
X4578197Y9404553D01*
X4579162Y9410852D01*
X4580534Y9414611D01*
X4583277Y9417558D01*
X4586935Y9419234D01*
X4590948Y9419336D01*
X4594656Y9417913D01*
X4597552Y9415119D01*
X4599178Y9411462D01*
X4601921Y9398355D01*
X4606290Y9386417D01*
X4612233Y9375241D01*
X4619701Y9364980D01*
X4628489Y9355836D01*
X4638497Y9348063D01*
X4649470Y9341713D01*
X4661204Y9336938D01*
X4673498Y9333890D01*
X4686147Y9332569D01*
X4698796Y9333026D01*
X4711293Y9335211D01*
X4723231Y9339072D01*
X4727702Y9339478D01*
X4731918Y9337954D01*
X4735017Y9334754D01*
X4736490Y9330486D01*
X4735931Y9326016D01*
X4733544Y9322257D01*
X4658360Y9247073D01*
X4655058Y9244888D01*
X4651197Y9244076D01*
X4077360Y9244076D01*
X4073702Y9244787D01*
X4070553Y9246717D01*
X4068318Y9249664D01*
X4067251Y9253220D01*
X4067556Y9256877D01*
X4068673Y9261195D01*
X4069537Y9271000D01*
X4068673Y9280804D01*
X4066133Y9290253D01*
X4062018Y9299194D01*
X4056379Y9307220D01*
X4049420Y9314180D01*
X4041394Y9319818D01*
X4032453Y9323933D01*
X4023004Y9326473D01*
X4013200Y9327337D01*
X4003395Y9326473D01*
X3993946Y9323933D01*
X3985006Y9319818D01*
X3976979Y9314180D01*
X3975404Y9312605D01*
X3972102Y9310370D01*
X3968191Y9309608D01*
X3931818Y9309608D01*
X3927906Y9310370D01*
X3924604Y9312605D01*
X3915968Y9321190D01*
X3913987Y9324289D01*
X3910787Y9326372D01*
X3875735Y9361424D01*
X3869537Y9366554D01*
X3862832Y9370110D01*
X3857650Y9371685D01*
X3853891Y9373768D01*
X3851351Y9377222D01*
X3850436Y9381439D01*
X3850436Y9384538D01*
X3812336Y9384538D01*
X3808069Y9385503D01*
X3803853Y9387433D01*
X3794404Y9389973D01*
X3786835Y9390634D01*
X3782568Y9392005D01*
X3779316Y9395002D01*
X3777691Y9399168D01*
X3778199Y9404502D01*
X3779977Y9417050D01*
X3779977Y9429750D01*
X3778199Y9442297D01*
X3774694Y9454489D01*
X3769563Y9466072D01*
X3762806Y9476841D01*
X3754678Y9486544D01*
X3745229Y9495028D01*
X3734765Y9502089D01*
X3723335Y9507677D01*
X3711295Y9511588D01*
X3698798Y9513773D01*
X3686149Y9514230D01*
X3673500Y9512909D01*
X3661206Y9509810D01*
X3649472Y9505086D01*
X3638499Y9498736D01*
X3628491Y9490913D01*
X3619703Y9481820D01*
X3612235Y9471558D01*
X3606292Y9460382D01*
X3601923Y9448444D01*
X3599129Y9435033D01*
X3597554Y9431324D01*
X3594658Y9428530D01*
X3590848Y9427057D01*
X3586835Y9427210D01*
X3583178Y9428886D01*
X3580485Y9431883D01*
X3579114Y9435693D01*
X3578199Y9442297D01*
X3574694Y9454489D01*
X3569563Y9466072D01*
X3562807Y9476841D01*
X3554679Y9486544D01*
X3545230Y9495028D01*
X3534765Y9502089D01*
X3523335Y9507677D01*
X3511296Y9511588D01*
X3498799Y9513773D01*
X3486150Y9514230D01*
X3473500Y9512909D01*
X3461207Y9509810D01*
X3449472Y9505086D01*
X3438499Y9498736D01*
X3428492Y9490913D01*
X3419703Y9481820D01*
X3412236Y9471558D01*
X3406292Y9460382D01*
X3401923Y9448444D01*
X3399282Y9436049D01*
X3398418Y9423400D01*
X3399282Y9410750D01*
X3402177Y9397441D01*
X3402329Y9394088D01*
X3401364Y9390837D01*
X3399434Y9388094D01*
X3377793Y9366504D01*
X3374288Y9364218D01*
X3370122Y9363557D01*
X3366058Y9364624D01*
X3362807Y9367215D01*
X3360826Y9370923D01*
X3360572Y9375140D01*
X3361994Y9379051D01*
X3363061Y9380728D01*
X3368192Y9392310D01*
X3371697Y9404502D01*
X3373475Y9417050D01*
X3373475Y9429750D01*
X3371697Y9442297D01*
X3368192Y9454489D01*
X3363061Y9466072D01*
X3356305Y9476841D01*
X3348177Y9486544D01*
X3338728Y9495028D01*
X3328263Y9502089D01*
X3316833Y9507677D01*
X3304794Y9511588D01*
X3292297Y9513773D01*
X3279648Y9514230D01*
X3266998Y9512909D01*
X3254705Y9509810D01*
X3242970Y9505086D01*
X3231997Y9498736D01*
X3221990Y9490913D01*
X3213201Y9481820D01*
X3205734Y9471558D01*
X3199790Y9460382D01*
X3195523Y9448647D01*
X3193288Y9445040D01*
X3189782Y9442704D01*
X3185617Y9441942D01*
X3181502Y9442958D01*
X3178149Y9445548D01*
X3176168Y9449308D01*
X3174695Y9454489D01*
X3169564Y9466072D01*
X3162808Y9476841D01*
X3154680Y9486544D01*
X3145231Y9495028D01*
X3134766Y9502089D01*
X3123336Y9507677D01*
X3111296Y9511588D01*
X3098800Y9513773D01*
X3086150Y9514230D01*
X3073501Y9512909D01*
X3061208Y9509810D01*
X3049473Y9505086D01*
X3038500Y9498736D01*
X3028492Y9490913D01*
X3019704Y9481820D01*
X3012236Y9471558D01*
X3006293Y9460382D01*
X3001924Y9448444D01*
X2999130Y9435033D01*
X2997555Y9431324D01*
X2994660Y9428530D01*
X2990850Y9427057D01*
X2986836Y9427210D01*
X2983179Y9428886D01*
X2980486Y9431883D01*
X2979115Y9435693D01*
X2978200Y9442297D01*
X2974695Y9454489D01*
X2969564Y9466072D01*
X2962808Y9476841D01*
X2954680Y9486544D01*
X2945231Y9495028D01*
X2934766Y9502089D01*
X2923336Y9507677D01*
X2911297Y9511588D01*
X2898800Y9513773D01*
X2886151Y9514230D01*
X2873502Y9512909D01*
X2861208Y9509810D01*
X2849473Y9505086D01*
X2838500Y9498736D01*
X2828493Y9490913D01*
X2819704Y9481820D01*
X2812237Y9471558D01*
X2806293Y9460382D01*
X2801924Y9448444D01*
X2799130Y9435033D01*
X2797556Y9431324D01*
X2794660Y9428530D01*
X2790850Y9427057D01*
X2786837Y9427210D01*
X2783179Y9428886D01*
X2780487Y9431883D01*
X2779115Y9435693D01*
X2778201Y9442297D01*
X2774696Y9454489D01*
X2769565Y9466072D01*
X2762808Y9476841D01*
X2754680Y9486544D01*
X2745232Y9495028D01*
X2734767Y9502089D01*
X2723337Y9507677D01*
X2711297Y9511588D01*
X2698800Y9513773D01*
X2686151Y9514230D01*
X2673502Y9512909D01*
X2661208Y9509810D01*
X2649474Y9505086D01*
X2638501Y9498736D01*
X2628493Y9490913D01*
X2619705Y9481820D01*
X2612237Y9471558D01*
X2606294Y9460382D01*
X2601925Y9448444D01*
X2599131Y9434982D01*
X2597556Y9431274D01*
X2594660Y9428480D01*
X2590850Y9427057D01*
X2586837Y9427210D01*
X2583180Y9428886D01*
X2580487Y9431832D01*
X2579116Y9435642D01*
X2578201Y9442297D01*
X2574696Y9454489D01*
X2569565Y9466072D01*
X2562809Y9476841D01*
X2554681Y9486544D01*
X2545232Y9495028D01*
X2534716Y9502089D01*
X2523337Y9507677D01*
X2511298Y9511588D01*
X2498801Y9513773D01*
X2486152Y9514230D01*
X2473502Y9512909D01*
X2461209Y9509810D01*
X2449474Y9505086D01*
X2438501Y9498736D01*
X2432100Y9493758D01*
X2428138Y9491878D01*
X2423718Y9491827D01*
X2419756Y9493656D01*
X2416860Y9496958D01*
X2414473Y9501530D01*
X2409342Y9507728D01*
X2360320Y9556750D01*
X2358136Y9560052D01*
X2357374Y9563912D01*
X2358136Y9567824D01*
X2360320Y9571126D01*
X2363622Y9573310D01*
X2367534Y9574072D01*
X6478219Y9574072D01*
X6482638Y9573107D01*
X6486144Y9570313D01*
X6487414Y9567824D01*
X6489649Y9571126D01*
X6492900Y9573310D01*
X6496812Y9574072D01*
X6517538Y9573158D01*
X6534454Y9570618D01*
X6551015Y9566402D01*
X6567068Y9560610D01*
X6582460Y9553244D01*
X6589420Y9549079D01*
X6592062Y9546844D01*
X6593738Y9543796D01*
X6594348Y9540392D01*
X6594348Y9502648D01*
X6635191Y9502648D01*
X6638290Y9502140D01*
X6641134Y9500768D01*
X6644995Y9496298D01*
X6653733Y9481616D01*
X6660997Y9466122D01*
X6666687Y9450019D01*
X6670802Y9433458D01*
X6673240Y9416542D01*
X6674103Y9399168D01*
X6674103Y8378342D01*
X6673291Y8374430D01*
X6671056Y8371128D01*
X6667753Y8368893D01*
X6663791Y8368182D01*
X6659930Y8368995D01*
X6656628Y8371281D01*
X6654647Y8373364D01*
X6644640Y8381136D01*
X6633667Y8387486D01*
X6621881Y8392210D01*
X6609588Y8395309D01*
X6596989Y8396630D01*
X6584289Y8396173D01*
X6571843Y8393988D01*
X6559753Y8390077D01*
X6548374Y8384489D01*
X6537858Y8377428D01*
X6528460Y8368944D01*
X6520281Y8359241D01*
X6513576Y8348472D01*
X6508394Y8336889D01*
X6504940Y8324697D01*
X6503162Y8312150D01*
X6503162Y8299450D01*
X6504940Y8286902D01*
X6508394Y8274710D01*
X6513576Y8263128D01*
X6520281Y8252358D01*
X6528460Y8242655D01*
X6537858Y8234172D01*
X6548374Y8227110D01*
X6559753Y8221522D01*
X6571843Y8217611D01*
X6584289Y8215426D01*
X6596989Y8214969D01*
X6609588Y8216290D01*
X6621881Y8219338D01*
X6633667Y8224113D01*
X6644640Y8230463D01*
X6654647Y8238236D01*
X6656628Y8240318D01*
X6659930Y8242604D01*
X6663791Y8243417D01*
X6667753Y8242706D01*
X6671056Y8240471D01*
X6673291Y8237169D01*
X6674103Y8233257D01*
X6674103Y7200849D01*
X6673138Y7182459D01*
X6670598Y7165543D01*
X6666382Y7148982D01*
X6660591Y7132929D01*
X6653275Y7117537D01*
X6651091Y7113879D01*
X6648805Y7111238D01*
X6645757Y7109561D01*
X6642353Y7108952D01*
X6594348Y7108952D01*
X6594348Y7059625D01*
X6593738Y7056170D01*
X6592062Y7053173D01*
X6589420Y7050887D01*
X6581597Y7046264D01*
X6566153Y7039000D01*
X6550050Y7033310D01*
X6533438Y7029196D01*
X6516573Y7026757D01*
X6499148Y7025894D01*
G37*

%LPC*%
G36*
X6432448Y9502648D02*
G01*
X6486652Y9502648D01*
X6486652Y9558578D01*
X6486245Y9557664D01*
X6482740Y9554819D01*
X6480048Y9553498D01*
X6467652Y9545269D01*
X6456324Y9535566D01*
X6446316Y9524593D01*
X6437731Y9512452D01*
G37*
G36*
X4998415Y9462262D02*
G01*
X5050434Y9462262D01*
X5050434Y9514281D01*
X5024882Y9514281D01*
X5018532Y9513570D01*
X5013096Y9511690D01*
X5008168Y9508591D01*
X5004104Y9504527D01*
X5001006Y9499600D01*
X4999126Y9494164D01*
X4998415Y9487814D01*
G37*
G36*
X5128158Y9462262D02*
G01*
X5180228Y9462262D01*
X5180228Y9487814D01*
X5179517Y9494164D01*
X5177586Y9499600D01*
X5174488Y9504527D01*
X5170424Y9508591D01*
X5165496Y9511690D01*
X5160060Y9513570D01*
X5153710Y9514281D01*
X5128158Y9514281D01*
G37*
G36*
X3807256Y9462262D02*
G01*
X3850436Y9462262D01*
X3850436Y9505492D01*
X3838498Y9498736D01*
X3828491Y9490913D01*
X3819702Y9481820D01*
X3812235Y9471558D01*
G37*
G36*
X3928160Y9462262D02*
G01*
X3971239Y9462262D01*
X3969562Y9466072D01*
X3962806Y9476841D01*
X3954678Y9486544D01*
X3945229Y9495028D01*
X3934764Y9502089D01*
X3928160Y9505340D01*
G37*
G36*
X5795467Y8579358D02*
G01*
X5816904Y8579358D01*
X5823204Y8580069D01*
X5828690Y8581948D01*
X5833567Y8585047D01*
X5837682Y8589111D01*
X5840730Y8594039D01*
X5842660Y8599474D01*
X5843371Y8605824D01*
X5843371Y8633307D01*
X5795467Y8633307D01*
G37*
G36*
X6486652Y7054799D02*
G01*
X6486652Y7108952D01*
X6432448Y7108952D01*
X6437731Y7099147D01*
X6446316Y7087006D01*
X6456324Y7076033D01*
X6467652Y7066330D01*
X6480048Y7058101D01*
G37*
G36*
X3928160Y9341459D02*
G01*
X3934764Y9344710D01*
X3945229Y9351772D01*
X3954678Y9360255D01*
X3962806Y9369958D01*
X3969562Y9380728D01*
X3971239Y9384538D01*
X3928160Y9384538D01*
G37*
G36*
X5948070Y7083552D02*
G01*
X6116929Y7083552D01*
X6123228Y7084263D01*
X6128715Y7086193D01*
X6133592Y7089241D01*
X6137706Y7093356D01*
X6140805Y7098233D01*
X6142685Y7103719D01*
X6143396Y7110018D01*
X6143396Y7266381D01*
X6142685Y7272680D01*
X6140805Y7278166D01*
X6137706Y7283043D01*
X6133592Y7287158D01*
X6128715Y7290206D01*
X6123228Y7292136D01*
X6116929Y7292848D01*
X5948070Y7292848D01*
X5941771Y7292136D01*
X5936284Y7290206D01*
X5931408Y7287158D01*
X5927293Y7283043D01*
X5924194Y7278166D01*
X5922314Y7272680D01*
X5921603Y7266381D01*
X5921603Y7110018D01*
X5922314Y7103719D01*
X5924194Y7098233D01*
X5927293Y7093356D01*
X5931408Y7089241D01*
X5936284Y7086193D01*
X5941771Y7084263D01*
G37*
G36*
X5729630Y7088784D02*
G01*
X5729630Y7139330D01*
X5679033Y7139330D01*
X5685586Y7127697D01*
X5694070Y7116318D01*
X5703925Y7106107D01*
X5715050Y7097268D01*
X5727192Y7089902D01*
G37*
G36*
X6432448Y7216648D02*
G01*
X6486652Y7216648D01*
X6486652Y7270800D01*
X6480048Y7267498D01*
X6467652Y7259269D01*
X6456324Y7249566D01*
X6446316Y7238593D01*
X6437731Y7226452D01*
G37*
G36*
X6594348Y7216648D02*
G01*
X6648551Y7216648D01*
X6647027Y7220000D01*
X6639153Y7232650D01*
X6629857Y7244232D01*
X6619138Y7254595D01*
X6607251Y7263587D01*
X6594348Y7271054D01*
G37*
G36*
X6486652Y9340799D02*
G01*
X6486652Y9394952D01*
X6432448Y9394952D01*
X6437731Y9385147D01*
X6446316Y9373006D01*
X6456324Y9362033D01*
X6467652Y9352330D01*
X6480048Y9344101D01*
G37*
G36*
X5827369Y7237069D02*
G01*
X5877814Y7237069D01*
X5875121Y7242606D01*
X5867349Y7254544D01*
X5858154Y7265365D01*
X5847638Y7274915D01*
X5836005Y7283043D01*
X5827369Y7287514D01*
G37*
G36*
X5679033Y7237069D02*
G01*
X5729630Y7237069D01*
X5729630Y7287615D01*
X5727192Y7286498D01*
X5715050Y7279131D01*
X5703925Y7270292D01*
X5694070Y7260081D01*
X5685586Y7248702D01*
G37*
G36*
X6594348Y9340545D02*
G01*
X6607251Y9348012D01*
X6619138Y9357004D01*
X6629857Y9367367D01*
X6639153Y9378950D01*
X6647027Y9391599D01*
X6648551Y9394952D01*
X6594348Y9394952D01*
G37*
G36*
X5024882Y9332468D02*
G01*
X5050434Y9332468D01*
X5050434Y9384538D01*
X4998415Y9384538D01*
X4998415Y9358985D01*
X4999126Y9352635D01*
X5001006Y9347200D01*
X5004104Y9342272D01*
X5008168Y9338208D01*
X5013096Y9335109D01*
X5018532Y9333179D01*
G37*
G36*
X5128158Y9332468D02*
G01*
X5153710Y9332468D01*
X5160060Y9333179D01*
X5165496Y9335109D01*
X5170424Y9338208D01*
X5174488Y9342272D01*
X5177586Y9347200D01*
X5179517Y9352635D01*
X5180228Y9358985D01*
X5180228Y9384538D01*
X5128158Y9384538D01*
G37*
G36*
X5858103Y9257893D02*
G01*
X5871718Y9259214D01*
X5884976Y9262414D01*
X5897676Y9267291D01*
X5909665Y9273844D01*
X5920638Y9281922D01*
X5930442Y9291421D01*
X5938875Y9302140D01*
X5945835Y9313875D01*
X5951169Y9326422D01*
X5954776Y9339580D01*
X5956554Y9353092D01*
X5956554Y9366707D01*
X5954776Y9380220D01*
X5951169Y9393377D01*
X5945835Y9405924D01*
X5938875Y9417659D01*
X5930442Y9428378D01*
X5920638Y9437878D01*
X5909665Y9445955D01*
X5897676Y9452508D01*
X5884976Y9457385D01*
X5871718Y9460585D01*
X5858103Y9461906D01*
X5844489Y9461449D01*
X5831027Y9459214D01*
X5818022Y9455150D01*
X5805627Y9449409D01*
X5794146Y9442094D01*
X5783732Y9433306D01*
X5774588Y9423146D01*
X5766866Y9411919D01*
X5760720Y9399778D01*
X5756249Y9386874D01*
X5753557Y9373514D01*
X5752642Y9359900D01*
X5753557Y9346285D01*
X5756249Y9332925D01*
X5760720Y9320022D01*
X5766866Y9307880D01*
X5774588Y9296654D01*
X5783732Y9286494D01*
X5794146Y9277705D01*
X5805627Y9270390D01*
X5818022Y9264650D01*
X5831027Y9260586D01*
X5844489Y9258350D01*
G37*
G36*
X5608116Y9257893D02*
G01*
X5621680Y9259214D01*
X5634939Y9262414D01*
X5647690Y9267291D01*
X5659628Y9273844D01*
X5670600Y9281922D01*
X5680405Y9291421D01*
X5688888Y9302140D01*
X5695848Y9313875D01*
X5701131Y9326422D01*
X5704738Y9339580D01*
X5706567Y9353092D01*
X5706567Y9366707D01*
X5704738Y9380220D01*
X5701131Y9393377D01*
X5695848Y9405924D01*
X5688888Y9417659D01*
X5680405Y9428378D01*
X5670600Y9437878D01*
X5659628Y9445955D01*
X5647690Y9452508D01*
X5634939Y9457385D01*
X5621680Y9460585D01*
X5608116Y9461906D01*
X5594502Y9461449D01*
X5581040Y9459214D01*
X5568035Y9455150D01*
X5555640Y9449409D01*
X5544159Y9442094D01*
X5533745Y9433306D01*
X5524601Y9423146D01*
X5516880Y9411919D01*
X5510733Y9399778D01*
X5506262Y9386874D01*
X5503519Y9373514D01*
X5502605Y9359900D01*
X5503519Y9346285D01*
X5506262Y9332925D01*
X5510733Y9320022D01*
X5516880Y9307880D01*
X5524601Y9296654D01*
X5533745Y9286494D01*
X5544159Y9277705D01*
X5555640Y9270390D01*
X5568035Y9264650D01*
X5581040Y9260586D01*
X5594502Y9258350D01*
G37*
G36*
X6108141Y9257893D02*
G01*
X6121704Y9259214D01*
X6134963Y9262414D01*
X6147663Y9267291D01*
X6159652Y9273844D01*
X6170625Y9281922D01*
X6180429Y9291421D01*
X6188862Y9302140D01*
X6195822Y9313875D01*
X6201156Y9326422D01*
X6204762Y9339580D01*
X6206591Y9353092D01*
X6206591Y9366707D01*
X6204762Y9380220D01*
X6201156Y9393377D01*
X6195822Y9405924D01*
X6188862Y9417659D01*
X6180429Y9428378D01*
X6170625Y9437878D01*
X6159652Y9445955D01*
X6147663Y9452508D01*
X6134963Y9457385D01*
X6121704Y9460585D01*
X6108141Y9461906D01*
X6094476Y9461449D01*
X6081064Y9459214D01*
X6068009Y9455150D01*
X6055664Y9449409D01*
X6044133Y9442094D01*
X6033719Y9433306D01*
X6024575Y9423146D01*
X6016853Y9411919D01*
X6010706Y9399778D01*
X6006236Y9386874D01*
X6003544Y9373514D01*
X6002629Y9359900D01*
X6003544Y9346285D01*
X6006236Y9332925D01*
X6010706Y9320022D01*
X6016853Y9307880D01*
X6024575Y9296654D01*
X6033719Y9286494D01*
X6044133Y9277705D01*
X6055664Y9270390D01*
X6068009Y9264650D01*
X6081064Y9260586D01*
X6094476Y9258350D01*
G37*
G36*
X5795467Y8714892D02*
G01*
X5843371Y8714892D01*
X5843371Y8742375D01*
X5842660Y8748725D01*
X5840730Y8754160D01*
X5837682Y8759088D01*
X5833567Y8763152D01*
X5828690Y8766251D01*
X5823204Y8768130D01*
X5816904Y8768842D01*
X5795467Y8768842D01*
G37*
G36*
X5678271Y8714892D02*
G01*
X5726176Y8714892D01*
X5726176Y8768842D01*
X5704789Y8768842D01*
X5698439Y8768130D01*
X5693003Y8766251D01*
X5688076Y8763152D01*
X5684012Y8759088D01*
X5680913Y8754160D01*
X5678982Y8748725D01*
X5678271Y8742375D01*
G37*
G36*
X5827369Y7088886D02*
G01*
X5836005Y7093356D01*
X5847638Y7101484D01*
X5858154Y7111034D01*
X5867349Y7121855D01*
X5875121Y7133793D01*
X5877814Y7139330D01*
X5827369Y7139330D01*
G37*
G36*
X5704789Y8579358D02*
G01*
X5726176Y8579358D01*
X5726176Y8633307D01*
X5678271Y8633307D01*
X5678271Y8605824D01*
X5678982Y8599474D01*
X5680913Y8594039D01*
X5684012Y8589111D01*
X5688076Y8585047D01*
X5693003Y8581948D01*
X5698439Y8580069D01*
G37*
G36*
X6196990Y8214969D02*
G01*
X6209588Y8216290D01*
X6221882Y8219338D01*
X6233668Y8224113D01*
X6244640Y8230463D01*
X6254648Y8238236D01*
X6263436Y8247380D01*
X6270904Y8257641D01*
X6276848Y8268817D01*
X6281166Y8280755D01*
X6283807Y8293150D01*
X6284722Y8305800D01*
X6283807Y8318449D01*
X6281166Y8330844D01*
X6276848Y8342782D01*
X6270904Y8353958D01*
X6263436Y8364220D01*
X6254648Y8373364D01*
X6244640Y8381136D01*
X6233668Y8387486D01*
X6221882Y8392210D01*
X6209588Y8395309D01*
X6196990Y8396630D01*
X6184290Y8396173D01*
X6171844Y8393988D01*
X6159754Y8390077D01*
X6148374Y8384489D01*
X6137859Y8377428D01*
X6128461Y8368944D01*
X6120282Y8359241D01*
X6113576Y8348472D01*
X6108395Y8336889D01*
X6104940Y8324697D01*
X6103162Y8312150D01*
X6103162Y8299450D01*
X6104940Y8286902D01*
X6108395Y8274710D01*
X6113576Y8263128D01*
X6120282Y8252358D01*
X6128461Y8242655D01*
X6137859Y8234172D01*
X6148374Y8227110D01*
X6159754Y8221522D01*
X6171844Y8217611D01*
X6184290Y8215426D01*
G37*
G36*
X4978400Y8439962D02*
G01*
X4988204Y8440826D01*
X4997653Y8443366D01*
X5006594Y8447481D01*
X5014620Y8453120D01*
X5016195Y8454694D01*
X5019497Y8456930D01*
X5023408Y8457692D01*
X5422392Y8457692D01*
X5430418Y8458504D01*
X5437632Y8460689D01*
X5444337Y8464245D01*
X5450535Y8469376D01*
X5456986Y8475776D01*
X5459882Y8477808D01*
X5463286Y8478723D01*
X5470702Y8479383D01*
X5480100Y8481923D01*
X5488940Y8486038D01*
X5496915Y8491626D01*
X5503773Y8498484D01*
X5509361Y8506460D01*
X5513476Y8515299D01*
X5516016Y8524697D01*
X5516880Y8534400D01*
X5516016Y8544102D01*
X5513476Y8553500D01*
X5512714Y8555177D01*
X5511749Y8559190D01*
X5512511Y8563203D01*
X5514746Y8566658D01*
X5524449Y8576360D01*
X5527751Y8578545D01*
X5531612Y8579358D01*
X5623610Y8579358D01*
X5629960Y8580069D01*
X5635396Y8581948D01*
X5640324Y8585047D01*
X5644388Y8589111D01*
X5647486Y8594039D01*
X5649417Y8599474D01*
X5650128Y8605824D01*
X5650128Y8742375D01*
X5649417Y8748725D01*
X5647486Y8754160D01*
X5644388Y8759088D01*
X5640324Y8763152D01*
X5635396Y8766251D01*
X5629960Y8768130D01*
X5623610Y8768842D01*
X5511495Y8768842D01*
X5505196Y8768130D01*
X5499709Y8766251D01*
X5494832Y8763152D01*
X5490718Y8759088D01*
X5487670Y8754160D01*
X5485739Y8748725D01*
X5485028Y8742375D01*
X5485028Y8650376D01*
X5484266Y8646464D01*
X5482082Y8643162D01*
X5434076Y8595156D01*
X5428945Y8588959D01*
X5425389Y8582253D01*
X5424017Y8577834D01*
X5423001Y8575548D01*
X5421477Y8573617D01*
X5418226Y8570315D01*
X5412638Y8562340D01*
X5408523Y8553500D01*
X5404967Y8540496D01*
X5402681Y8537549D01*
X5399532Y8535568D01*
X5395874Y8534908D01*
X5254650Y8534908D01*
X5250688Y8535720D01*
X5247335Y8538006D01*
X5245150Y8541410D01*
X5244490Y8545423D01*
X5245455Y8549386D01*
X5247233Y8553246D01*
X5249773Y8562695D01*
X5250637Y8572500D01*
X5249773Y8582304D01*
X5247233Y8591753D01*
X5243118Y8600694D01*
X5237480Y8608720D01*
X5230520Y8615680D01*
X5222494Y8621318D01*
X5213553Y8625433D01*
X5204104Y8627973D01*
X5194300Y8628837D01*
X5184495Y8627973D01*
X5175046Y8625433D01*
X5166106Y8621318D01*
X5158079Y8615680D01*
X5156504Y8614105D01*
X5153202Y8611870D01*
X5149291Y8611108D01*
X5018633Y8611108D01*
X5014925Y8611819D01*
X5011775Y8613800D01*
X5009489Y8616797D01*
X5005933Y8629853D01*
X5001818Y8638794D01*
X4996180Y8646820D01*
X4989220Y8653780D01*
X4981194Y8659418D01*
X4972253Y8663533D01*
X4962804Y8666073D01*
X4953000Y8666937D01*
X4943195Y8666073D01*
X4933746Y8663533D01*
X4924806Y8659418D01*
X4916779Y8653780D01*
X4909820Y8646820D01*
X4904181Y8638794D01*
X4900066Y8629853D01*
X4897526Y8620404D01*
X4896662Y8610600D01*
X4897526Y8600795D01*
X4900066Y8591346D01*
X4904181Y8582406D01*
X4909820Y8574379D01*
X4916779Y8567420D01*
X4924806Y8561781D01*
X4933746Y8557666D01*
X4937760Y8556599D01*
X4941519Y8554669D01*
X4944160Y8551367D01*
X4945227Y8547303D01*
X4944567Y8543137D01*
X4942281Y8539581D01*
X4935220Y8532520D01*
X4929581Y8524494D01*
X4925466Y8515553D01*
X4922926Y8506104D01*
X4922062Y8496300D01*
X4922926Y8486495D01*
X4925466Y8477046D01*
X4929581Y8468106D01*
X4935220Y8460079D01*
X4942179Y8453120D01*
X4950206Y8447481D01*
X4959146Y8443366D01*
X4968595Y8440826D01*
G37*
G36*
X4965700Y8300262D02*
G01*
X4975504Y8301126D01*
X4984953Y8303666D01*
X4993894Y8307781D01*
X5001920Y8313420D01*
X5003495Y8314994D01*
X5006797Y8317230D01*
X5010708Y8317992D01*
X5746191Y8317992D01*
X5750102Y8317230D01*
X5753404Y8314994D01*
X5754979Y8313420D01*
X5763006Y8307781D01*
X5771946Y8303666D01*
X5781395Y8301126D01*
X5791200Y8300262D01*
X5801004Y8301126D01*
X5810453Y8303666D01*
X5819394Y8307781D01*
X5827420Y8313420D01*
X5834380Y8320379D01*
X5840018Y8328406D01*
X5844133Y8337346D01*
X5846673Y8346795D01*
X5847537Y8356600D01*
X5846673Y8366404D01*
X5844133Y8375853D01*
X5840018Y8384794D01*
X5834380Y8392820D01*
X5827420Y8399780D01*
X5819394Y8405418D01*
X5810453Y8409533D01*
X5801004Y8412073D01*
X5791200Y8412937D01*
X5781395Y8412073D01*
X5771946Y8409533D01*
X5763006Y8405418D01*
X5754979Y8399780D01*
X5753404Y8398205D01*
X5750102Y8395970D01*
X5746191Y8395208D01*
X5010708Y8395208D01*
X5006797Y8395970D01*
X5003495Y8398205D01*
X5001920Y8399780D01*
X4993894Y8405418D01*
X4984953Y8409533D01*
X4975504Y8412073D01*
X4965700Y8412937D01*
X4955895Y8412073D01*
X4946446Y8409533D01*
X4937506Y8405418D01*
X4929479Y8399780D01*
X4922520Y8392820D01*
X4916881Y8384794D01*
X4912766Y8375853D01*
X4910226Y8366404D01*
X4909362Y8356600D01*
X4910226Y8346795D01*
X4912766Y8337346D01*
X4916881Y8328406D01*
X4922520Y8320379D01*
X4929479Y8313420D01*
X4937506Y8307781D01*
X4946446Y8303666D01*
X4955895Y8301126D01*
G37*

%LPD*%
G36*
X900836Y7025894D02*
G01*
X882446Y7026859D01*
X865581Y7029399D01*
X849020Y7033615D01*
X832916Y7039406D01*
X817524Y7046772D01*
X814679Y7048449D01*
X812038Y7050735D01*
X810361Y7053732D01*
X809752Y7057136D01*
X809752Y7108952D01*
X757631Y7108952D01*
X754227Y7109561D01*
X751179Y7111238D01*
X748944Y7113879D01*
X746302Y7118400D01*
X739038Y7133844D01*
X733298Y7149947D01*
X729234Y7166559D01*
X726744Y7183424D01*
X725932Y7200849D01*
X725932Y9399168D01*
X726846Y9417558D01*
X729386Y9434423D01*
X733602Y9450984D01*
X739394Y9467037D01*
X746760Y9482480D01*
X755548Y9497110D01*
X765759Y9510776D01*
X766876Y9511995D01*
X770280Y9514484D01*
X774395Y9515348D01*
X809752Y9515348D01*
X809752Y9542830D01*
X810361Y9546285D01*
X812038Y9549282D01*
X814679Y9551568D01*
X818388Y9553702D01*
X833882Y9560966D01*
X849934Y9566706D01*
X866546Y9570770D01*
X883462Y9573260D01*
X900836Y9574072D01*
X907287Y9574072D01*
X911199Y9573310D01*
X914450Y9571126D01*
X916686Y9567824D01*
X917448Y9563912D01*
X917448Y9515348D01*
X971651Y9515348D01*
X970127Y9518700D01*
X962253Y9531350D01*
X952957Y9542932D01*
X942238Y9553295D01*
X938936Y9555835D01*
X936142Y9558985D01*
X934923Y9562998D01*
X935380Y9567164D01*
X937514Y9570770D01*
X940917Y9573209D01*
X945032Y9574072D01*
X1153160Y9574072D01*
X1157071Y9573310D01*
X1160373Y9571126D01*
X1162558Y9567824D01*
X1163320Y9563912D01*
X1162558Y9560052D01*
X1160373Y9556750D01*
X942187Y9338564D01*
X937056Y9332315D01*
X933500Y9325660D01*
X931316Y9318447D01*
X930503Y9310420D01*
X930503Y9244533D01*
X929741Y9240621D01*
X927506Y9237319D01*
X924255Y9235135D01*
X920343Y9234373D01*
X916482Y9235135D01*
X904494Y9243618D01*
X895553Y9247733D01*
X886104Y9250273D01*
X876300Y9251137D01*
X866495Y9250273D01*
X857046Y9247733D01*
X848106Y9243618D01*
X840079Y9237980D01*
X833119Y9231020D01*
X827481Y9222994D01*
X823366Y9214053D01*
X820826Y9204604D01*
X819962Y9194800D01*
X820826Y9184995D01*
X823366Y9175546D01*
X827481Y9166606D01*
X833119Y9158579D01*
X840079Y9151620D01*
X848106Y9145981D01*
X857046Y9141866D01*
X866495Y9139326D01*
X874521Y9138615D01*
X877925Y9137700D01*
X880821Y9135668D01*
X885494Y9130995D01*
X887730Y9127693D01*
X888492Y9123781D01*
X888492Y7391908D01*
X889304Y7383881D01*
X891489Y7376668D01*
X895045Y7369962D01*
X900176Y7363764D01*
X987094Y7276795D01*
X989330Y7273493D01*
X990092Y7269581D01*
X990092Y7222947D01*
X989330Y7219086D01*
X987196Y7215835D01*
X985570Y7214717D01*
X987094Y7213650D01*
X989330Y7210399D01*
X990092Y7206488D01*
X990092Y7163308D01*
X990904Y7155281D01*
X993089Y7148068D01*
X996645Y7141362D01*
X1001776Y7135164D01*
X1093622Y7043267D01*
X1095857Y7039965D01*
X1096619Y7036053D01*
X1095857Y7032193D01*
X1093622Y7028891D01*
X1090371Y7026706D01*
X1086459Y7025894D01*
G37*

%LPC*%
G36*
X917448Y7054545D02*
G01*
X930351Y7062012D01*
X942238Y7071004D01*
X952957Y7081367D01*
X962253Y7092950D01*
X970127Y7105599D01*
X971651Y7108952D01*
X917448Y7108952D01*
G37*
G36*
X809752Y9353499D02*
G01*
X809752Y9407652D01*
X755548Y9407652D01*
X760831Y9397847D01*
X769416Y9385706D01*
X779424Y9374733D01*
X790752Y9365030D01*
X803148Y9356801D01*
G37*
G36*
X917346Y9353245D02*
G01*
X930351Y9360712D01*
X942238Y9369704D01*
X952957Y9380067D01*
X962253Y9391650D01*
X970127Y9404299D01*
X971651Y9407652D01*
X917448Y9407652D01*
G37*
G36*
X755548Y7216648D02*
G01*
X809752Y7216648D01*
X809752Y7270800D01*
X803148Y7267498D01*
X790752Y7259269D01*
X779424Y7249566D01*
X769416Y7238593D01*
X760831Y7226452D01*
G37*
G36*
X917448Y7216648D02*
G01*
X972159Y7216648D01*
X962253Y7232650D01*
X952957Y7244232D01*
X942238Y7254595D01*
X930351Y7263587D01*
X917448Y7271054D01*
G37*

%LPD*%
D10*
X3489299Y7188200D02*
G01*
X3467100Y7188200D01*
X3323567Y7331732D01*
X3323567Y7997167D01*
X3375533Y8049133D01*
X4511166Y8049133D01*
X4533900Y8026400D01*
X2705100Y8140700D02*
G01*
X4876800Y8140700D01*
X5080000Y7937500D01*
X5080000Y7197496D01*
X5089296Y7188200D01*
X5089296Y9423400D02*
G01*
X5130800Y9423400D01*
X5168900Y9385300D01*
X5168900Y9105900D01*
X5232400Y9042400D01*
X5727700Y9042400D01*
X5892800Y8877300D01*
X6426200Y8877300D01*
X6540500Y8991600D01*
X6540500Y9448800D01*
X3889301Y9423400D02*
G01*
X3983149Y9517247D01*
X4948994Y9517247D01*
X4996383Y9469854D01*
X4996383Y8971483D01*
X5052466Y8915400D01*
X5207000Y8915400D01*
X5257800Y8966200D01*
X5676900Y8966200D01*
X5765800Y8877300D01*
X5765800Y8770871D01*
X5760824Y8674097D01*
X4978400Y8496300D02*
G01*
X5422900Y8496300D01*
X5461000Y8534400D01*
X4965700Y8356600D02*
G01*
X5791200Y8356600D01*
X2247900Y7543800D02*
G01*
X2298700Y7493000D01*
X3111500Y7493000D01*
X3187700Y7416800D01*
X3187700Y7099300D01*
X3213100Y7073900D01*
X4533900Y7073900D01*
X4584700Y7124700D01*
X4584700Y7315200D01*
X4673600Y7404100D01*
X4927600Y7404100D01*
X4978400Y7454900D01*
X4978400Y7848600D01*
X4889500Y7937500D01*
X1079500Y7670800D02*
G01*
X1193800Y7556500D01*
X2235200Y7556500D01*
X2247900Y7543800D01*
X863600Y9461500D02*
G01*
X812800Y9410700D01*
X812800Y9156700D01*
X876300Y9093200D01*
X876300Y7518400D01*
X825500Y7467600D01*
X3784600Y9334500D02*
G01*
X3848100Y9334500D01*
X3911600Y9271000D01*
X4013200Y9271000D01*
X6540500Y7162800D02*
G01*
X6426200Y7048500D01*
X5918200Y7048500D01*
X5778500Y7188200D01*
X3282797Y7188200D02*
G01*
X3282797Y8019897D01*
X3352800Y8089900D01*
X4864100Y8089900D01*
X5029200Y7924800D01*
X5029200Y7429500D01*
X4953000Y7353300D01*
X4851400Y7353300D01*
X4787900Y7289800D01*
X4787900Y7124700D01*
X4851400Y7061200D01*
X5384800Y7061200D01*
X5486400Y7162800D01*
X5486400Y7696200D01*
X5384800Y7797800D01*
X5089296Y9423400D02*
G01*
X5089296Y9134703D01*
X5219700Y9004300D01*
X5702300Y9004300D01*
X5842000Y8864600D01*
X5842000Y8712200D01*
X5803900Y8674100D01*
X5760821Y8674100D01*
X5089298Y7188197D02*
G01*
X4996385Y7188197D01*
X2590800Y7429500D02*
G01*
X2590800Y7124700D01*
X2527300Y7061200D01*
X1130300Y7061200D01*
X1028700Y7162800D01*
X1028700Y7289800D01*
X927100Y7391400D01*
X927100Y9118600D01*
X927100Y9144000D01*
X876300Y9194800D01*
X4953000Y8610600D02*
G01*
X4991100Y8572500D01*
X5194300Y8572500D01*
X2278890Y9310189D02*
G01*
X2375156Y9310189D01*
X2382395Y9317428D01*
X2382395Y9317428D02*
G01*
X3383333Y9317428D01*
X3489302Y9423397D01*
X2382395Y9317428D02*
G01*
X2382395Y9480090D01*
X2293114Y9569371D01*
X1227584Y9569371D01*
X969114Y9310900D01*
X969114Y8035185D01*
X1079502Y7924797D01*
X1079502Y8686797D02*
G01*
X1254610Y8861905D01*
X1254610Y9018546D01*
X1527685Y9291622D01*
X2157529Y9291622D01*
X2289304Y9423397D01*
X5461000Y8534400D02*
G01*
X5461000Y8567513D01*
X5567586Y8674100D01*
X1079502Y8940797D02*
G01*
X1277114Y9138409D01*
X1277114Y9351083D01*
X1443281Y9517250D01*
X1995451Y9517250D01*
X2089304Y9423397D01*
X1079502Y7416797D02*
G01*
X2260704Y7416797D01*
X2489304Y7188197D01*
X4889299Y9423397D02*
G01*
X4671392Y9205490D01*
X2413713Y9205490D01*
X2413713Y9205490D02*
G01*
X1583819Y9205490D01*
X1434162Y9055834D01*
G36*
X5704199Y8605250D02*
G01*
X5704199Y8742949D01*
X5817453Y8742949D01*
X5817453Y8605250D01*
G37*
G36*
X5624200Y8605250D02*
G01*
X5624200Y8742949D01*
X5510946Y8742949D01*
X5510946Y8605250D01*
G37*
D14*
G01*
X6104699Y9359900D03*
G01*
X5854712Y9359900D03*
G01*
X5604700Y9359900D03*
D15*
G01*
X5089296Y7188200D03*
D16*
G01*
X4889296Y7188200D03*
G01*
X4689297Y7188200D03*
G01*
X4489297Y7188200D03*
G01*
X4289297Y7188200D03*
G01*
X4089298Y7188200D03*
G01*
X3889298Y7188200D03*
G01*
X3689299Y7188200D03*
G01*
X3489299Y7188200D03*
G01*
X3282797Y7188200D03*
G01*
X3089300Y7188200D03*
G01*
X2889300Y7188200D03*
G01*
X2689301Y7188200D03*
G01*
X2489301Y7188200D03*
G01*
X2289302Y7188200D03*
G01*
X2089302Y7188200D03*
G01*
X1889302Y7188200D03*
G01*
X1689303Y7188200D03*
G01*
X1489303Y7188200D03*
D15*
G01*
X5089296Y9423400D03*
D16*
G01*
X4889296Y9423400D03*
G01*
X4689297Y9423400D03*
G01*
X4489297Y9423400D03*
G01*
X4289297Y9423400D03*
G01*
X4089298Y9423400D03*
G01*
X3889298Y9423400D03*
G01*
X3689299Y9423400D03*
G01*
X3489299Y9423400D03*
G01*
X3282797Y9423400D03*
G01*
X3089300Y9423400D03*
G01*
X2889300Y9423400D03*
G01*
X2689301Y9423400D03*
G01*
X2489301Y9423400D03*
G01*
X2289302Y9423400D03*
G01*
X2089302Y9423400D03*
G01*
X1889302Y9423400D03*
G01*
X1689303Y9423400D03*
G01*
X1489303Y9423400D03*
D17*
G01*
X1079500Y9194800D03*
D18*
G01*
X1079500Y8940800D03*
G01*
X1079500Y8686800D03*
G01*
X1079500Y8432800D03*
G01*
X1079500Y8178800D03*
G01*
X1079500Y7924800D03*
G01*
X1079500Y7670800D03*
G01*
X1079500Y7416800D03*
G36*
X6117498Y7266939D02*
G01*
X5947498Y7266939D01*
X5947498Y7109460D01*
X6117498Y7109460D01*
G37*
D20*
G01*
X5778500Y7188200D03*
D21*
G01*
X863600Y9461500D03*
G01*
X863600Y7162800D03*
G01*
X6540500Y9448800D03*
G01*
X6540500Y7162800D03*
D11*
G01*
X1434162Y9055834D03*
G01*
X2413713Y9205490D03*
G01*
X5461000Y8534400D03*
G01*
X2705100Y8140700D03*
G01*
X2278890Y9310189D03*
D12*
G01*
X4953000Y8610600D03*
G01*
X5194300Y8572500D03*
G01*
X2590800Y7429500D03*
G01*
X876300Y9194800D03*
G01*
X5600700Y7366000D03*
G01*
X5384800Y7797800D03*
G01*
X3784600Y9334500D03*
G01*
X4013200Y9271000D03*
G01*
X825500Y7467600D03*
G01*
X2247900Y7543800D03*
G01*
X4889500Y7937500D03*
G01*
X4965700Y8356600D03*
G01*
X5791200Y8356600D03*
G01*
X4533900Y8026400D03*
G01*
X4978400Y8496300D03*
M02*
