<svg id="图层_1" data-name="图层 1" xmlns="http://www.w3.org/2000/svg" viewBox="0 0 1077.89 741.36"><polygon points="1077.46 21.86 661.64 740.86 552.67 740.86 503.65 415.49 607.16 415.49 634.15 606.45 966.73 21.86 1077.46 21.86"/><polygon points="777 307.83 729.55 390.25 334.91 392.03 382.28 306.07 777 307.83"/><polygon points="526.95 0.5 585.31 284.72 481.8 284.72 453.34 132.13 111.16 740.86 0.44 740.86 417.98 0.5 526.95 0.5"/><line x1="417.98" y1="0.5" x2="0.44" y2="740.86" style="fill:none;stroke:#000;stroke-miterlimit:10"/><line x1="417.98" y1="0.5" x2="526.95" y2="0.5" style="fill:none;stroke:#000;stroke-miterlimit:10"/><line x1="0.44" y1="740.86" x2="111.16" y2="740.86" style="fill:none;stroke:#000;stroke-miterlimit:10"/><line x1="453.34" y1="132.13" x2="111.16" y2="740.86" style="fill:none;stroke:#000;stroke-miterlimit:10"/><line x1="481.8" y1="284.72" x2="585.31" y2="284.72" style="fill:none;stroke:#000;stroke-miterlimit:10"/><line x1="526.95" y1="0.5" x2="585.31" y2="284.72" style="fill:none;stroke:#000;stroke-miterlimit:10"/><line x1="481.8" y1="284.72" x2="453.34" y2="132.13" style="fill:none;stroke:#000;stroke-miterlimit:10"/><line x1="382.28" y1="306.07" x2="334.91" y2="392.03" style="fill:none;stroke:#000;stroke-miterlimit:10"/><line x1="382.28" y1="306.07" x2="777" y2="307.83" style="fill:none;stroke:#000;stroke-miterlimit:10"/><line x1="334.91" y1="392.03" x2="729.55" y2="390.25" style="fill:none;stroke:#000;stroke-miterlimit:10"/><line x1="777" y1="307.83" x2="729.55" y2="390.25" style="fill:none;stroke:#000;stroke-miterlimit:10"/><line x1="661.64" y1="740.86" x2="1077.46" y2="21.86" style="fill:none;stroke:#000;stroke-miterlimit:10"/><line x1="661.64" y1="740.86" x2="552.67" y2="740.86" style="fill:none;stroke:#000;stroke-miterlimit:10"/><line x1="1077.46" y1="21.86" x2="966.73" y2="21.86" style="fill:none;stroke:#000;stroke-miterlimit:10"/><line x1="634.15" y1="606.45" x2="966.73" y2="21.86" style="fill:none;stroke:#000;stroke-miterlimit:10"/><line x1="503.65" y1="415.49" x2="607.16" y2="415.49" style="fill:none;stroke:#000;stroke-miterlimit:10"/><line x1="503.65" y1="415.49" x2="552.67" y2="740.86" style="fill:none;stroke:#000;stroke-miterlimit:10"/><line x1="607.16" y1="415.49" x2="634.15" y2="606.45" style="fill:none;stroke:#000;stroke-miterlimit:10"/></svg>